<?xml version="1.0" standalone="no"?>
<!DOCTYPE svg PUBLIC "-//W3C//DTD SVG 1.1//EN" "http://www.w3.org/Graphics/SVG/1.1/DTD/svg11.dtd" >
<svg xmlns="http://www.w3.org/2000/svg">
<metadata>
This is a custom SVG webfont generated by Fontspring.
Designer    : http://www.insignedesign.com
Foundry     : Jeremy Dooley
Foundry URL : http://www.insignedesign.com
</metadata>
<defs>
<font id="webfont" horiz-adv-x="731" >
<font-face units-per-em="1000" ascent="750" descent="-250" />
<missing-glyph horiz-adv-x="225" />
<glyph unicode=" "  horiz-adv-x="225" />
<glyph unicode="&#x09;" horiz-adv-x="225" />
<glyph unicode="&#xa0;" horiz-adv-x="225" />
<glyph unicode="!" horiz-adv-x="208" d="M219 224h-130l110 516h130zM172 2h-130l34 158h130z" />
<glyph unicode="&#x22;" horiz-adv-x="395" d="M253 442h-97l43 277h129zM425 442h-97l43 277h129z" />
<glyph unicode="#" horiz-adv-x="729" d="M208 0h-126l79 142h-97l26 123h140l63 114h-95l26 124h138l87 154h126l-87 -154h81l86 154h127l-87 -154h78l-26 -124h-121l-63 -114h90l-26 -123h-133l-79 -142h-126l79 142h-81zM419 379l-63 -114h80l64 114h-81z" />
<glyph unicode="$" horiz-adv-x="551" d="M319 -95h-127l19 86q-76 3 -178 35l37 174h116l-19 -89q56 -17 98 -17q141 0 163 101q6 27 -9 48t-43 35.5t-62.5 29t-68 33t-59 42t-37 62t-0.5 87.5q35 170 235 194l19 90h127l-19 -90q68 -8 132 -40l-37 -174h-116l21 98q-35 16 -71 16q-134 0 -152 -88q-6 -27 9 -48 t42.5 -36t62 -29.5t68 -33t59.5 -42.5t37 -61.5t1 -86.5q-19 -90 -80 -139.5t-148 -64.5z" />
<glyph unicode="%" horiz-adv-x="973" d="M455 451q-32 -155 -201 -155q-87 0 -119 38.5t-16 116.5l27 125q32 155 201 155q87 0 119 -38.5t16 -116.5zM241 453q-9 -30 -2 -45t36 -15q14 0 24.5 5t16.5 10.5t11.5 20.5t7 22.5t6.5 29.5l20 93q8 31 1 45.5t-36 14.5q-14 0 -24.5 -5t-16.5 -10.5t-11 -20t-7 -23 t-6 -29.5zM306 -10h-150l646 733h149zM964 145q-32 -155 -201 -155q-88 0 -120 39t-16 116l27 125q32 155 202 155q87 0 119 -39t16 -116zM750 147q-8 -31 -1.5 -45.5t35.5 -14.5q23 0 36.5 13.5t17.5 27t11 47.5l19 93q8 30 1.5 45t-34.5 15q-14 0 -24.5 -5t-16.5 -10.5 t-11 -20t-7 -23t-6 -29.5z" />
<glyph unicode="&#x26;" horiz-adv-x="845" d="M874 266h-109l14 64h-50l-49 -229h56l-21 -101h-247l21 101h55l49 229h-218q-126 0 -147 -99l-9 -42q-12 -55 24 -75.5t102 -20.5q54 0 104 9l-6 -99q-72 -13 -119 -13q-29 0 -53 1.5t-51 5t-46.5 10t-39.5 17t-31 25.5t-20.5 35t-8 46t6.5 59l9 42q12 59 52 97t99 48 q-54 14 -73 45t-6 88l5 24q23 109 101 153t215 44q88 0 223 -27l-37 -175h-117l17 83q-58 9 -105 9q-82 0 -116.5 -20.5t-43.5 -66.5l-5 -24q-9 -43 20.5 -59t86.5 -16h504z" />
<glyph unicode="'" horiz-adv-x="194" d="M239 442h-97l43 277h129z" />
<glyph unicode="(" horiz-adv-x="333" d="M247 307q-24 -99 -18 -232.5t45 -203.5l-52 -38q-80 83 -111.5 205t-0.5 269t114.5 269.5t199.5 205.5l35 -39q-68 -69 -128.5 -197.5t-83.5 -238.5z" />
<glyph unicode=")" horiz-adv-x="333" d="M216 307q24 99 17.5 233t-45.5 203l54 39q79 -83 110.5 -205.5t0.5 -269.5t-114.5 -269t-198.5 -205l-37 38q69 70 129.5 198.5t83.5 237.5z" />
<glyph unicode="*" horiz-adv-x="447" d="M366 370l-39 115l-89 -115l-88 72l117 86l-135 22l74 113l104 -62l2 123h132l-51 -123l130 62l24 -113l-143 -22l80 -86z" />
<glyph unicode="+" horiz-adv-x="536" d="M336 22h-124l40 186h-200l25 119h200l39 185h124l-39 -185h197l-25 -119h-197z" />
<glyph unicode="," horiz-adv-x="258" d="M104 -125h-112l123 269h150z" />
<glyph unicode="-" horiz-adv-x="368" d="M374 242h-277l23 108h277z" />
<glyph unicode="." horiz-adv-x="209" d="M170 0h-131l30 144h131z" />
<glyph unicode="/" horiz-adv-x="489" d="M128 -46h-132l505 798h134z" />
<glyph unicode="0" horiz-adv-x="642" d="M314 -10q-138 0 -193.5 69.5t-28.5 197.5l44 205q27 129 112 198.5t224 69.5h8q139 0 194 -69t28 -199l-44 -205q-27 -128 -112 -197.5t-224 -69.5h-8zM337 98h8q78 0 116.5 42.5t53.5 117.5l43 203q17 79 -2.5 120.5t-98.5 41.5h-8q-79 0 -116.5 -41.5t-54.5 -120.5 l-43 -203q-8 -45 -7 -80.5t28 -57.5t81 -22z" />
<glyph unicode="1" horiz-adv-x="337" d="M338 101l-21 -101h-248l21 101h55l106 500h-54l25 118h192l-131 -618h55z" />
<glyph unicode="2" horiz-adv-x="632" d="M281 507h-116l37 174q123 48 254 48q137 0 195.5 -51.5t33.5 -168.5q-4 -21 -14 -41.5t-21 -38t-32 -39.5l-36.5 -37t-46 -39l-49 -37.5t-58 -39.5l-59.5 -39.5l-66.5 -43l-67.5 -43.5h258l20 92h117l-43 -203h-549l23 111q278 186 359 252q110 90 122 148 q13 62 -11.5 87t-96.5 25q-71 0 -133 -21z" />
<glyph unicode="3" horiz-adv-x="608" d="M278 514h-117l37 174q121 42 236 42q140 0 202 -44t39 -153l-5 -24q-13 -57 -45 -88t-91 -45q55 -10 78.5 -48t11.5 -97l-9 -42q-43 -199 -342 -199q-88 0 -230 23l37 174h117l-17 -81q61 -8 116 -8q162 0 181 91l9 42q11 52 -20.5 71t-93.5 19h-65l20 103h58 q130 0 149 85l5 24q9 47 -19 68t-114 21q-42 0 -108 -11z" />
<glyph unicode="4" horiz-adv-x="608" d="M586 101l-21 -101h-248l21 101h58l13 62h-360l22 104l457 452h165l-463 -452h201l32 149h133l-32 -149h90l-22 -104h-90l-13 -62h57z" />
<glyph unicode="5" horiz-adv-x="599" d="M650 545h-117l16 74h-203l-57 -144q207 -4 281.5 -60.5t47.5 -183.5l-1 -4q-51 -237 -359 -237q-88 0 -218 30l37 175h117l-19 -90q57 -10 97 -10q180 0 208 132l1 4q10 36 3.5 63t-38.5 45t-109 27.5t-209 10.5l127 342h432z" />
<glyph unicode="6" horiz-adv-x="615" d="M623 731l10 -100q-224 -47 -356 -192q87 40 172 40h8q120 0 166 -55.5t20 -178.5l-5 -22q-26 -123 -105.5 -178t-222.5 -55h-8q-143 0 -199 55t-30 178l6 27q45 191 176.5 310.5t367.5 170.5zM325 98h8q83 0 119 32t49 94l4 20q14 64 -8 95.5t-106 31.5h-8 q-84 0 -119 -31.5t-49 -95.5l-4 -20q-13 -62 9 -94t105 -32z" />
<glyph unicode="7" horiz-adv-x="569" d="M255 545h-117l37 174h536l-21 -101l-482 -618h-151l498 618h-284z" />
<glyph unicode="8" horiz-adv-x="660" d="M362 -10h-70q-46 0 -79.5 3.5t-62 13t-45.5 25t-26.5 40t-9 58t10.5 78.5q14 69 53.5 115.5t93.5 58.5q-81 25 -54 152l1 4q24 112 86 152t190 40h70q128 0 173 -40t21 -152l-1 -4q-27 -126 -118 -152q47 -12 66.5 -58.5t5.5 -115.5q-28 -129 -96.5 -173.5t-208.5 -44.5z M314 99h74q70 0 99 22.5t43 89.5q14 65 -4.5 89t-92.5 24h-70q-74 0 -102.5 -24t-42.5 -89q-14 -68 5 -90t91 -22zM497 625h-70q-60 0 -84 -18t-35 -70q-12 -55 5.5 -74.5t75.5 -19.5h70q58 0 83.5 19.5t37.5 74.5q11 52 -6 70t-77 18z" />
<glyph unicode="9" horiz-adv-x="614" d="M143 -12l-10 99q222 47 356 192q-86 -39 -172 -39h-8q-120 0 -166 55.5t-20 178.5l5 22q26 122 105 177.5t222 55.5h8q143 0 199.5 -55.5t30.5 -177.5l-5 -22q0 -1 -1 -3l-1 -2q-45 -191 -176 -310.5t-367 -170.5zM440 621h-8q-83 0 -118.5 -32.5t-48.5 -94.5l-5 -19 q-14 -64 8 -95.5t106 -31.5h8q58 0 93.5 17t50.5 42.5t24 67.5l5 19q13 62 -9.5 94.5t-105.5 32.5z" />
<glyph unicode=":" horiz-adv-x="189" d="M161 0h-130l30 144h130zM244 395h-130l31 143h130z" />
<glyph unicode=";" horiz-adv-x="250" d="M280 380h-131l34 158h131zM88 -125h-112l123 269h150z" />
<glyph unicode="&#x3c;" horiz-adv-x="587" d="M553 122l-23 -108l-436 205l20 94l524 205l-23 -108l-378 -144z" />
<glyph unicode="=" horiz-adv-x="535" d="M567 301h-480l26 118h480zM526 105h-481l25 119h481z" />
<glyph unicode="&#x3e;" horiz-adv-x="502" d="M50 14l23 108l379 144l-317 144l23 108l436 -205l-20 -94z" />
<glyph unicode="?" horiz-adv-x="464" d="M248 512h-116l37 174q113 43 206 43q41 0 72.5 -5t60.5 -17.5t43.5 -34.5t21 -55.5t-5.5 -80.5q-7 -36 -32.5 -70t-56.5 -61l-62 -52.5t-55 -53.5t-30 -55l-13 -62h-130l13 62q7 35 32 69.5t55.5 62.5l60.5 54.5t53 54t28 51.5q11 49 -8 68t-62 19q-50 0 -90 -11zM279 -4 h-130l29 136h130z" />
<glyph unicode="@" horiz-adv-x="809" d="M580 114l-3 -114q-75 -37 -159 -37q-87 0 -152.5 21.5t-110.5 68t-57.5 119t7.5 175.5q23 108 99.5 197t180 137.5t210.5 48.5q167 0 254.5 -93.5t58.5 -227.5q-58 -275 -279 -275q-28 0 -57 15.5t-41 45.5q-65 -43 -117 -43q-66 0 -100.5 40.5t-20.5 107.5 q19 88 90.5 155.5t174.5 67.5q77 0 107 -35t19 -88q-3 -12 -10 -28.5t-16.5 -35t-11.5 -23.5q-32 -82 11 -82q33 0 68 52.5t50 121.5q19 90 -40 147.5t-166 57.5q-119 0 -214 -78t-118 -185q-30 -142 26 -203t182 -61q70 0 135 31zM452 257q36 1 68.5 34.5t42.5 72.5 q5 26 -3.5 43t-36.5 15q-44 -3 -74.5 -33.5t-41.5 -72.5q-8 -28 4 -44.5t41 -14.5z" />
<glyph unicode="A" d="M289 101l-21 -101h-263l21 101h70l303 517h-67l21 101h224l101 -618h69l-21 -101h-263l21 101h51l-11 102h-231l-55 -102h51zM486 565l-138 -259h165z" />
<glyph unicode="B" horiz-adv-x="676" d="M407 0h-383l21 101h68l110 517h-68l21 101h373q101 0 148 -22.5t51.5 -66.5t-9.5 -110q-15 -69 -57.5 -106t-92.5 -42q65 -4 92 -47.5t13 -110.5l-3 -15q-11 -53 -27.5 -86.5t-47.5 -60.5t-82 -39.5t-127 -12.5zM548 199l3 15q13 60 -3 84t-71 24h-178l-47 -221h176 q55 0 81.5 22t38.5 76zM319 416h166q50 0 74.5 23t36.5 81q10 53 -4 75.5t-64 22.5h-166z" />
<glyph unicode="C" horiz-adv-x="589" d="M648 515h-116l21 97q-37 7 -64 7h-15q-95 0 -133.5 -36t-58.5 -128l-40 -191q-20 -91 3.5 -127t118.5 -36h15q69 0 169 34l4 -109q-103 -36 -197 -36h-15q-157 0 -215 61.5t-26 212.5l40 191q32 151 117 213t242 62h15q113 0 172 -40z" />
<glyph unicode="D" horiz-adv-x="694" d="M527 719q118 0 173 -29.5t61 -89t-14 -149.5l-39 -183q-32 -154 -100 -211t-233 -57h-351l21 101h68l110 517h-68l21 101h351zM565 268l39 183q20 90 -2.5 128.5t-117.5 38.5h-122l-110 -517h122q50 0 83 10t54 32.5t33 51t21 73.5z" />
<glyph unicode="E" horiz-adv-x="589" d="M678 545h-117l16 73h-215l-42 -197h203l-21 -101h-203l-47 -219h215l15 73h117l-36 -174h-539l21 101h68l110 517h-68l21 101h539z" />
<glyph unicode="F" horiz-adv-x="571" d="M676 545h-117l16 73h-213l-45 -209h208l-21 -102h-208l-44 -206h69l-21 -101h-276l21 101h70l110 517h-70l21 101h537z" />
<glyph unicode="G" horiz-adv-x="629" d="M689 507h-117l21 97q-52 15 -104 15h-15q-95 0 -133.5 -36t-58.5 -128l-40 -191q-20 -91 3.5 -127t118.5 -36h16q50 0 90 16l45 208h139l-59 -276q-108 -59 -239 -59h-16q-157 0 -215 61.5t-26 212.5l40 191q32 151 117 213t242 62h15q68 0 114.5 -11.5t98.5 -37.5z" />
<glyph unicode="H" horiz-adv-x="756" d="M753 101l-21 -101h-275l21 101h68l46 217h-294l-46 -217h68l-21 -101h-275l21 101h68l110 517h-68l21 101h275l-21 -101h-68l-42 -199h294l42 199h-68l21 101h275l-21 -101h-68l-110 -517h68z" />
<glyph unicode="I" horiz-adv-x="323" d="M320 101l-21 -101h-275l21 101h68l110 517h-68l21 101h275l-21 -101h-68l-110 -517h68z" />
<glyph unicode="J" horiz-adv-x="295" d="M437 719l-21 -101h-69l-133 -624q-25 -117 -73.5 -169.5t-134.5 -52.5q-66 0 -129 31l58 95q58 -17 77 -17q24 0 37 24t27 90l133 623h-68l21 101h275z" />
<glyph unicode="K" horiz-adv-x="665" d="M320 101l-21 -101h-275l21 101h68l110 517h-68l21 101h275l-21 -101h-68l-47 -220l305 321h175l-21 -101h-88l-240 -241l149 -276h86l-21 -101h-175l-179 354l-54 -253h68z" />
<glyph unicode="L" horiz-adv-x="553" d="M452 719l-21 -101h-68l-110 -517h196l15 73h116l-36 -174h-520l21 101h70l110 517h-70l21 101h276z" />
<glyph unicode="M" horiz-adv-x="1070" d="M295 101l-21 -101h-269l21 101h70l231 517h-66l21 101h207l78 -562l317 562h206l-21 -101h-67l12 -517h72l-21 -101h-269l21 101h59l5 396l-284 -507h-132l-71 507l-160 -396h61z" />
<glyph unicode="N" horiz-adv-x="735" d="M656 0h-138l-181 501l-85 -400h69l-21 -101h-276l21 101h68l110 517h-68l21 101h207l179 -509l87 408h-69l21 101h276l-21 -101h-69z" />
<glyph unicode="O" horiz-adv-x="684" d="M345 -10h-12q-153 0 -209.5 61.5t-24.5 212.5l40 191q32 152 115 213.5t237 61.5h12q153 0 209.5 -62t24.5 -213l-40 -191q-32 -151 -115.5 -212.5t-236.5 -61.5zM554 264l40 191q20 91 -2.5 128.5t-112.5 37.5h-12q-90 0 -127.5 -37t-57.5 -129l-40 -191q-20 -91 3 -128 t112 -37h12q89 0 127 37t58 128z" />
<glyph unicode="P" horiz-adv-x="638" d="M320 101l-21 -101h-275l21 101h68l110 517h-68l21 101h330q143 0 195 -47t23 -182q-29 -134 -100.5 -181t-214.5 -47h-123l-34 -161h68zM308 363h123q74 0 102.5 25t45.5 102q17 78 -1.5 103t-92.5 25h-123z" />
<glyph unicode="Q" horiz-adv-x="684" d="M503 -75l-1 -110q-77 -20 -113 -20q-84 0 -113.5 36.5t-9.5 134.5l6 27q-117 10 -159.5 73t-13.5 198l40 191q32 152 115 213.5t237 61.5h12q153 0 209.5 -62t24.5 -213l-40 -191q-29 -136 -98.5 -198.5t-192.5 -72.5l-7 -34q-6 -26 0.5 -37t26.5 -11q10 0 77 14z M554 264l40 191q20 91 -2.5 128.5t-112.5 37.5h-12q-90 0 -127.5 -37t-57.5 -129l-40 -191q-20 -91 3 -128t112 -37h12q89 0 127 37t58 128z" />
<glyph unicode="R" horiz-adv-x="661" d="M673 101l-21 -101h-177l-68 262h-121l-34 -161h68l-21 -101h-275l21 101h68l110 517h-68l21 101h330q143 0 195 -47t23 -182q-20 -97 -62.5 -146.5t-113.5 -68.5l48 -174h77zM308 363h123q74 0 102.5 25t45.5 102q17 78 -1.5 103t-92.5 25h-123z" />
<glyph unicode="S" horiz-adv-x="551" d="M606 512h-116l21 98q-35 16 -71 16q-134 0 -152 -88q-6 -27 9 -48t42.5 -36t62 -29.5t68 -33t59.5 -42.5t37 -61.5t1 -86.5q-16 -76 -66 -125t-111 -67.5t-134 -18.5t-115.5 7.5t-107.5 28.5l37 174h116l-19 -89q56 -17 98 -17q141 0 163 101q6 27 -9 48t-43 35.5 t-62.5 29t-68 33t-59 42t-37 62t-0.5 87.5q12 59 44 100t76.5 61.5t87.5 28.5t91 8q107 0 195 -44z" />
<glyph unicode="T" horiz-adv-x="597" d="M702 545h-117l16 73h-102l-110 -517h68l-21 -101h-275l21 101h68l110 517h-102l-16 -73h-117l37 174h577z" />
<glyph unicode="U" horiz-adv-x="703" d="M849 719l-21 -101h-68l-74 -348q-33 -155 -111 -218t-222 -63h-8q-144 0 -195 63t-18 218l74 348h-69l21 101h275l-21 -101h-68l-74 -349q-22 -85 -1 -123.5t101 -38.5h8q81 0 115.5 36.5t53.5 125.5l74 349h-67l21 101h274z" />
<glyph unicode="V" horiz-adv-x="694" d="M432 719l-21 -101h-63l34 -449l226 449h-63l21 101h275l-21 -101h-69l-349 -628h-117l-81 628h-68l21 101h275z" />
<glyph unicode="W" horiz-adv-x="1051" d="M417 719l-21 -101h-56l17 -430l263 535h113l38 -535l200 430h-55l21 101h261l-21 -101h-65l-332 -621h-113l-37 501l-250 -501h-112l-70 621h-62l21 101h260z" />
<glyph unicode="X" horiz-adv-x="661" d="M294 101l-21 -101h-268l21 101h77l219 260l-108 257h-75l21 101h267l-21 -101h-45l63 -172l136 172h-45l21 101h268l-21 -101h-76l-217 -257l108 -260h79l-21 -101h-268l21 101h42l-64 171l-136 -171h43z" />
<glyph unicode="Y" horiz-adv-x="660" d="M806 719l-21 -101h-71l-257 -345l-37 -172h68l-21 -101h-275l21 101h69l37 172l-113 345h-69l21 101h275l-21 -101h-62l60 -238l161 238h-61l21 101h275z" />
<glyph unicode="Z" horiz-adv-x="580" d="M278 545h-117l37 174h499l-21 -101l-469 -517h253l15 73h117l-36 -174h-532l21 101l468 517h-219z" />
<glyph unicode="[" horiz-adv-x="286" d="M218 -146h-205l189 886h205l-24 -111h-74l-141 -665h74z" />
<glyph unicode="\" horiz-adv-x="463" d="M458 -18h-130l-164 771h130z" />
<glyph unicode="]" horiz-adv-x="286" d="M208 -146h-205l24 110h75l141 665h-75l24 111h205z" />
<glyph unicode="^" horiz-adv-x="540" d="M417 680l191 -298h-158l-69 127l-123 -127h-157z" />
<glyph unicode="_" horiz-adv-x="617" d="M556 -65h-522l25 121h522z" />
<glyph unicode="`" horiz-adv-x="313" d="M300 589l-144 175l164 21l97 -183z" />
<glyph unicode="a" horiz-adv-x="537" d="M115 346q8 37 14.5 60t19 51t28 43.5t40.5 26.5t58 11q58 0 155 -56l10 46h132l-85 -398q-6 -31 14 -31q12 0 30 6l1 -94q-62 -21 -97 -21q-75 0 -86 60q-146 -60 -191 -60q-33 0 -53.5 11t-29 26.5t-9 44t2.5 51.5t11 60zM211 183q-11 -41 -7.5 -66t29.5 -25 q30 0 120 30l61 285q-74 29 -108 29q-26 0 -38 -21.5t-22 -68.5z" />
<glyph unicode="b" horiz-adv-x="537" d="M363 745l-61 -285q129 78 184 78q33 0 53.5 -11t29.5 -26.5t9.5 -43.5t-3 -51t-11.5 -60l-35 -163q-7 -36 -13.5 -59.5t-19 -51.5t-28.5 -44t-41 -27t-58 -11q-48 0 -155 56l-9 -46h-187l21 101h56l115 543h-56l22 101h187zM435 353q10 37 6 60t-30 23q-38 0 -125 -51 l-57 -271q67 -29 108 -29q26 0 37.5 21.5t22.5 69.5z" />
<glyph unicode="c" horiz-adv-x="477" d="M504 361h-109l15 71q-18 3 -41 3q-100 0 -121 -100l-30 -141q-23 -101 78 -101q67 0 148 15l-5 -94q-96 -24 -165 -24q-120 0 -163.5 55t-20.5 164l23 110q23 109 90.5 164t187.5 55q60 0 144 -31z" />
<glyph unicode="d" horiz-adv-x="541" d="M622 745l-131 -615q-6 -31 14 -31q13 0 30 6l1 -94q-62 -21 -97 -21q-75 0 -86 60q-144 -60 -190 -60q-33 0 -53.5 11t-29.5 26.5t-9.5 44t2.5 51.5t11 60l35 163q8 37 14.5 60t19 51t28 43.5t41 26.5t58.5 11q56 0 155 -57l34 163h-56l22 101h187zM250 346l-36 -169 q-11 -40 -7 -65.5t29 -25.5q13 0 37 7t52 17.5t34 12.5l60 283q-73 30 -109 30q-26 0 -38 -22t-22 -68z" />
<glyph unicode="e" horiz-adv-x="501" d="M469 120l4 -94q-111 -36 -199 -36q-120 0 -163.5 55t-20.5 164l20 95q16 77 36.5 122.5t56 70.5t78 33t113.5 8q109 0 140 -41.5t15 -114.5l-4 -18q-16 -75 -88.5 -119t-237.5 -47l-1 -4q-21 -101 78 -101q82 0 173 27zM423 375l1 4q9 24 2 44t-37 20q-60 0 -93 -16.5 t-42 -60.5l-23 -111q93 14 137 40.5t55 79.5z" />
<glyph unicode="f" horiz-adv-x="322" d="M68 -36l98 461h-71l22 103h72l7 33q24 116 86 159.5t170 24.5q29 -4 65 -19l-45 -86q-51 14 -72 14q-33 0 -48.5 -23.5t-25.5 -69.5l-7 -33h94l-22 -103h-94l-98 -461q-24 -111 -66.5 -152.5t-119.5 -41.5q-60 0 -131 30l52 100q53 -18 80 -18q20 0 32 18.5t22 63.5z" />
<glyph unicode="g" horiz-adv-x="509" d="M119 346q8 37 14.5 60t19 51t28 43.5t41 26.5t58.5 11q56 0 150 -79l15 69h131l-128 -601q-33 -155 -186 -155q-64 0 -251 52l47 94q161 -43 197 -43q34 0 46.5 19.5t24.5 75.5l16 76q-125 -56 -179 -56q-33 0 -53.5 11t-29.5 26.5t-9.5 44t2.5 51.5t11 60zM214 176 q-11 -40 -7.5 -65.5t29.5 -25.5q37 0 121 29l57 270q-19 16 -51.5 34t-52.5 18q-25 0 -37 -20t-21 -63z" />
<glyph unicode="h" horiz-adv-x="575" d="M286 101l-21 -101h-247l21 101h58l115 543h-56l22 101h187l-61 -286q115 66 163 76q14 3 26 3q33 0 53.5 -11t29.5 -26.5t9.5 -43.5t-3 -51t-11.5 -60l-46 -216q-6 -31 14 -31q13 0 30 6l2 -94q-62 -21 -97 -21q-53 0 -75 30t-7 101l48 225q4 20 5.5 34.5t0.5 28t-8 20.5 t-20 7q-9 0 -22.5 -4t-30 -11l-28.5 -12.5t-29 -14t-20 -10.5l-60 -283h58z" />
<glyph unicode="i" horiz-adv-x="278" d="M273 105l1 -94q-62 -21 -97 -21q-53 0 -75 30t-7 101l65 306h-56l22 101h187l-85 -398q-6 -31 15 -31q12 0 30 6zM328 600h-130l31 145h130z" />
<glyph unicode="j" horiz-adv-x="250" d="M65 -34l98 462h-56l22 100h187l-120 -562q-23 -111 -66 -152.5t-120 -41.5q-59 0 -131 30l52 99q55 -17 81 -17q20 0 32 18.5t21 63.5zM331 600h-132l31 145h132z" />
<glyph unicode="k" horiz-adv-x="558" d="M286 101l-21 -101h-247l21 101h58l115 543h-56l22 101h187l-96 -450l218 233h137l-22 -101h-59l-149 -145l76 -152q12 -28 39 -28q25 0 46 8v-100q-65 -20 -104 -20q-73 0 -91 60l-97 217l-35 -166h58z" />
<glyph unicode="l" horiz-adv-x="272" d="M266 105l2 -94q-63 -21 -97 -21q-53 0 -75 30t-7 101l111 523h-55l22 101h186l-131 -615q-6 -31 14 -31q14 0 30 6z" />
<glyph unicode="m" horiz-adv-x="810" d="M822 101l-21 -101h-190l73 346q11 40 7.5 65t-28.5 25q-20 0 -108 -51q-1 -13 -7 -39l-52 -245h59l-21 -101h-190l73 346q11 40 7.5 65t-29.5 25q-7 0 -18 -4t-24.5 -11l-23.5 -12.5t-23.5 -14l-16.5 -10.5l-60 -283h57l-21 -101h-247l21 101h59l69 326h-59l22 101h190 l-15 -69q2 1 16 10t18 12t18 11.5t20.5 12l19 10t20.5 9.5l18 7t18.5 5.5t16.5 1.5q89 0 92 -81q125 81 175 81q33 0 53.5 -11t29.5 -26.5t9.5 -43.5t-3 -51t-11.5 -60l-52 -245h59z" />
<glyph unicode="n" horiz-adv-x="575" d="M286 101l-21 -101h-247l21 101h58l69 326h-56l22 101h187l-15 -69q115 66 163 76q14 3 26 3q33 0 53.5 -11t29.5 -26.5t9.5 -43.5t-3 -51t-11.5 -60l-46 -216q-6 -31 14 -31q13 0 30 6l2 -94q-62 -21 -97 -21q-53 0 -75 30t-7 101l48 225q4 20 5.5 34.5t0.5 28t-8 20.5 t-20 7q-9 0 -22.5 -4t-30 -11l-28.5 -12.5t-29 -14t-20 -10.5l-60 -283h58z" />
<glyph unicode="o" horiz-adv-x="522" d="M557 384l-51 -240q-17 -82 -77 -118t-171 -36t-155 36t-27 118l51 240q18 83 77 118.5t171 35.5t156 -35.5t26 -118.5zM376 145l51 238q6 30 -10 45t-62 15q-85 0 -97 -60l-51 -238q-6 -29 10.5 -44.5t61.5 -15.5q85 0 97 60z" />
<glyph unicode="p" horiz-adv-x="536" d="M563 346l-35 -163q-7 -36 -13.5 -59.5t-19 -51.5t-28.5 -44t-41 -27t-58 -11q-48 0 -155 56l-34 -161h88l-22 -102h-277l22 102h58l115 542h-56l22 101h187l-15 -68q129 78 184 78q33 0 53.5 -11t29.5 -26.5t9.5 -43.5t-3 -51t-11.5 -60zM396 176l38 177q10 37 6 60 t-30 23q-38 0 -125 -51l-56 -264q69 -36 107 -36q26 0 37.5 21.5t22.5 69.5z" />
<glyph unicode="q" horiz-adv-x="522" d="M119 346q8 37 14.5 60t19 51t28 43.5t41 26.5t58.5 11q56 0 150 -79l15 69h131l-137 -643h56l-22 -102h-277l22 102h90l34 161q-125 -56 -179 -56q-33 0 -53.5 11t-29.5 26.5t-9.5 44t2.5 51.5t11 60zM214 176q-11 -40 -7.5 -65.5t29.5 -25.5q37 0 122 36l56 263 q-19 16 -51.5 34t-52.5 18q-25 0 -37 -20t-21 -63z" />
<glyph unicode="r" horiz-adv-x="445" d="M320 527l-16 -75q116 86 158 86q53 0 63 -31t-9 -111l-8 -36h-109l8 36q5 40 -20 40q-21 0 -100 -60l-58 -275h57l-21 -101h-247l21 101h58l69 325h-55l22 101h187z" />
<glyph unicode="s" horiz-adv-x="465" d="M497 365h-109l14 67q-31 11 -66 11q-84 0 -96 -56q-4 -20 8.5 -33.5t35.5 -21t51.5 -14t56.5 -17t49.5 -26t31 -45t0.5 -69.5q-11 -54 -36.5 -89.5t-63 -52.5t-73.5 -23t-83 -6q-43 0 -80.5 5.5t-55 10t-54.5 16.5l31 146h110l-15 -73q36 -9 78 -9q95 0 109 61 q6 27 -20 42t-65.5 23.5t-78 22t-60 48t-9.5 90.5q35 165 242 165q80 0 179 -27z" />
<glyph unicode="t" horiz-adv-x="345" d="M340 119l9 -99q-97 -30 -145 -30q-62 0 -91.5 33.5t-13.5 105.5l63 296h-63l22 103h63l24 116h132l-24 -116h112l-22 -103h-112l-63 -294q-6 -32 24 -32q23 0 85 20z" />
<glyph unicode="u" horiz-adv-x="564" d="M558 105l1 -94q-62 -21 -97 -21q-75 0 -86 61q-146 -61 -195 -61q-33 0 -53.5 11t-29 26.5t-9 44t2.5 51.5t11 60l52 244h-56l22 101h187l-75 -352q-11 -40 -7.5 -65.5t29.5 -25.5q38 0 125 30l66 312h-56l22 101h187l-85 -398q-6 -31 14 -31q14 0 30 6z" />
<glyph unicode="v" horiz-adv-x="530" d="M305 528l-67 -313q-28 -130 58 -130q83 0 111 130l28 130q17 82 -39 82h-27l22 101h27q97 0 133.5 -40.5t16.5 -134.5l-22 -103q-30 -140 -94.5 -200t-176.5 -60t-150.5 60t-8.5 200l37 177h-57l22 101h187z" />
<glyph unicode="w" horiz-adv-x="807" d="M305 528l-6 -26h6l-61 -287q-28 -130 54 -130q71 0 99 130l45 212h-56l22 101h187l-68 -320q-25 -123 55 -123q74 0 104 137l27 130q8 40 -0.5 57.5t-39.5 17.5h-27l22 101h27q96 0 132.5 -40.5t16.5 -134.5l-22 -103q-30 -140 -92 -200t-169 -60q-85 0 -132 66 q-71 -66 -152 -66q-111 0 -148 60t-7 200l37 177h-63l22 101h187z" />
<glyph unicode="x" horiz-adv-x="515" d="M286 528l43 -198l118 198h151l-22 -101h-51l-113 -164l53 -162h57l-21 -101h-155l-45 199l-130 -199h-155l21 101h58l123 162l-47 164h-64l22 101h157z" />
<glyph unicode="y" horiz-adv-x="531" d="M155 427h-56l22 101h187l-75 -352q-11 -40 -7.5 -65.5t29.5 -25.5q39 0 122 30l66 312h-56l22 101h187l-128 -601q-33 -155 -185 -155q-66 0 -251 52l46 94q161 -43 198 -43q34 0 46 19.5t24 75.5l16 77q-127 -57 -181 -57q-33 0 -53.5 11t-29 26.5t-9 44t2.5 51.5t11 60 z" />
<glyph unicode="z" horiz-adv-x="447" d="M213 373h-110l33 155h389l-22 -101l-323 -326h160l12 55h109l-33 -156h-412l21 101l330 326h-143z" />
<glyph unicode="{" horiz-adv-x="354" d="M472 738l-19 -89q-71 0 -87 -74q-4 -18 -10.5 -60t-11.5 -67q-22 -101 -96 -156q50 -55 30 -155q-5 -24 -16.5 -66.5t-15.5 -60.5q-16 -74 56 -74l-19 -89q-95 0 -136 27t-39 97q1 25 7 51.5t15.5 60t13.5 54.5q21 104 -53 107h-5l21 97q79 0 103 107q5 21 10 55 t10.5 60.5t14.5 50.5q28 70 80 97t147 27z" />
<glyph unicode="|" horiz-adv-x="214" d="M133 -180h-124l200 942h124z" />
<glyph unicode="}" horiz-adv-x="354" d="M172 649l19 89q95 0 136.5 -27t38.5 -97q-1 -24 -6.5 -50.5t-15 -60.5t-13.5 -55q-24 -107 57 -107l-21 -97h-5q-76 -3 -97 -107q-4 -20 -9.5 -54t-11.5 -60.5t-15 -51.5q-27 -70 -79.5 -97t-147.5 -27l19 89q72 0 88 74q4 18 10.5 60t11.5 67q20 99 96 155 q-52 56 -30 156q5 25 16.5 67t15.5 60q16 74 -57 74z" />
<glyph unicode="~" horiz-adv-x="555" d="M497 352l89 -46q-36 -67 -88 -101t-102 -34q-39 0 -88 28t-72 28q-24 0 -67 -54l-91 47q75 114 165 131q46 8 101.5 -22t85.5 -30q24 0 67 53z" />
<glyph unicode="&#xa1;" horiz-adv-x="212" d="M253 376h-130l34 158h130zM128 -214h-129l111 526h130z" />
<glyph unicode="&#xa2;" horiz-adv-x="402" d="M271 -105h-123l21 99q-77 12 -101.5 63t-5.5 142l27 130q37 173 195 205l23 106h123l-23 -104q39 -5 85 -19l-47 -113q-64 19 -104 19q-100 0 -126 -120l-17 -78q-25 -121 74 -121q32 0 114 20l-1 -113q-60 -15 -93 -19z" />
<glyph unicode="&#xa3;" horiz-adv-x="535" d="M458 302h-108q-1 -20 -6 -43q-11 -52 -34.5 -85.5t-79.5 -56.5h336l-24 -117h-516l25 118q129 49 148 140q1 5 6 44h-95l23 110h79q3 37 12 79l9 42q43 202 299 202q47 0 157 -22l-46 -111q-120 15 -154 14q-104 -2 -120 -83l-9 -42q-8 -35 -10 -79h131z" />
<glyph unicode="&#xa4;" horiz-adv-x="652" d="M514 21l-46 54q-63 -32 -134 -32q-66 0 -120 33l-69 -54l-82 94l71 55q-20 55 -8 115q13 59 57 114l-49 56l72 54l51 39l47 -54q69 32 134 32q69 0 120 -31l40 31t27 21l85 -95l-71 -53q18 -52 6 -113q-12 -54 -57 -116l49 -55zM358 158q58 0 106.5 37.5t60.5 91.5 q11 51 -22 88t-90 37t-106.5 -36.5t-60.5 -89.5q-11 -52 22.5 -90t89.5 -38z" />
<glyph unicode="&#xa5;" horiz-adv-x="628" d="M383 0h-138l20 96h-162l22 105h162l12 54h-161l22 104h121l-121 361h153l88 -310l220 310h153l-276 -361h124l-22 -104h-163l-12 -54h163l-22 -105h-163z" />
<glyph unicode="&#xa6;" horiz-adv-x="214" d="M133 -180h-124l86 403h124zM241 328h-124l84 396h124z" />
<glyph unicode="&#xa7;" horiz-adv-x="413" d="M6 -22l45 100q77 -27 149 -27q78 0 88 51q4 19 -11 32.5t-40.5 21t-54.5 20.5t-52.5 29t-35 49.5t-1.5 79.5q18 80 71 118q-36 41 -21 116q35 162 230 162q69 0 152 -23l-43 -100q-58 18 -124 18q-73 0 -82 -43q-5 -23 17 -38t55.5 -26t66 -27t50 -51.5t6.5 -89.5 q-17 -77 -72 -119q38 -43 22 -114q-19 -88 -84.5 -128.5t-151.5 -40.5q-57 0 -90 6t-89 24zM226 348q-4 -22 11.5 -34t50.5 -25q43 10 50 47q4 19 -9.5 31t-43.5 22q-51 -6 -59 -41z" />
<glyph unicode="&#xa8;" horiz-adv-x="423" d="M303 590h-130l33 158h130zM499 590h-130l33 158h130z" />
<glyph unicode="&#xa9;" horiz-adv-x="812" d="M859 350q-19 -88 -66.5 -159t-111 -115t-135.5 -67.5t-144 -23.5q-73 0 -135 23t-107 68.5t-61.5 114t1.5 159.5q19 88 66.5 159t111 115t135 67t144.5 23q72 0 134 -22.5t107.5 -68t62 -114t-1.5 -159.5zM775 350q15 74 2.5 129t-47.5 92t-83 55.5t-104 18.5 q-120 0 -224 -77.5t-134 -217.5q-15 -74 -2.5 -129.5t47 -92t82.5 -55t105 -18.5q120 0 224 78t134 217zM638 429h-84l11 55q-20 2 -32 2q-78 0 -95 -78l-23 -109q-18 -79 61 -79q44 0 116 12l-5 -73q-79 -19 -128 -19q-179 0 -143 170l19 86q18 84 70 127t145 43 q49 0 112 -24z" />
<glyph unicode="&#xaa;" horiz-adv-x="387" d="M453 407l-16 -74h-138l8 34q-73 -38 -115 -41q-22 0 -32 3q-32 6 -46 24t-13 41.5t6 51.5q11 50 32.5 79.5t70.5 38.5q52 7 132 -28l11 48q15 69 -42 69q-27 0 -52 -6l-10 -47h-80l23 107q69 20 139 20q149 0 118 -143l-38 -177h42zM260 511q-42 0 -56 -65q-7 -27 -1 -45 t30 -18q22 0 82 25l18 83q-56 20 -73 20z" />
<glyph unicode="&#xab;" horiz-adv-x="575" d="M240 37l-160 235l260 235l72 -75l-170 -160l102 -159zM472 37l-160 235l260 235l71 -75l-169 -160l102 -159z" />
<glyph unicode="&#xac;" horiz-adv-x="575" d="M553 120h-122l37 175h-400l25 118h522z" />
<glyph unicode="&#xad;" horiz-adv-x="368" d="M374 242h-277l23 108h277z" />
<glyph unicode="&#xae;" horiz-adv-x="812" d="M859 350q-19 -88 -66.5 -159t-111 -115t-135.5 -67.5t-144 -23.5q-73 0 -135 23t-107 68.5t-61.5 114t1.5 159.5q19 88 66.5 159t111 115t135 67t144.5 23q72 0 134 -22.5t107.5 -68t62 -114t-1.5 -159.5zM775 350q15 74 2.5 129t-47.5 92t-83 55.5t-104 18.5 q-120 0 -224 -77.5t-134 -217.5q-15 -74 -2.5 -129.5t47 -92t82.5 -55t105 -18.5q120 0 224 78t134 217zM660 227l-17 -79h-128l-33 132h-47l-28 -132h-147l17 79h45l54 253h-45l16 78h202q87 0 117 -28.5t13 -110.5q-22 -102 -92 -127l21 -65h52zM452 359h55q30 0 44.5 14 t21.5 46q6 33 -2 47t-38 14h-55z" />
<glyph unicode="&#xaf;" horiz-adv-x="390" d="M468 591h-295l21 98h295z" />
<glyph unicode="&#xb0;" horiz-adv-x="302" d="M421 696q-10 -48 -52 -80.5t-98 -32.5q-55 0 -83 32.5t-18 80.5q10 47 52 80.5t98 33.5t83.5 -33.5t17.5 -80.5zM339 696q4 17 -5 29t-30 12q-20 0 -34.5 -12t-18.5 -29q-3 -16 6.5 -28.5t29.5 -12.5t34.5 12.5t17.5 28.5z" />
<glyph unicode="&#xb1;" horiz-adv-x="544" d="M354 108h-124l40 186h-200l25 119h200l40 185h124l-40 -185h197l-25 -119h-197zM519 -54h-521l25 121h522z" />
<glyph unicode="&#xb2;" horiz-adv-x="511" d="M324 768h-112l32 153q101 42 202 42q112 0 160.5 -40.5t27.5 -137.5q-17 -79 -147 -170q-43 -30 -176 -110h161l10 48h111l-32 -153h-438l22 105q181 117 262.5 179t90.5 104q9 43 -7 58t-65 15q-46 0 -85 -13z" />
<glyph unicode="&#xb3;" horiz-adv-x="505" d="M322 774h-111l33 153q96 37 187 37q118 0 168.5 -35.5t31.5 -123.5l-5 -20q-7 -38 -27 -60.5t-66 -35.5q79 -16 60 -107l-7 -32q-33 -158 -275 -158q-64 0 -185 18l32 153h111l-13 -62q43 -5 77 -5q109 0 120 54l7 32q7 31 -12.5 42.5t-58.5 11.5h-59l20 99h51 q83 0 94 50l5 20q6 28 -13 41.5t-83 13.5q-18 0 -65 -7z" />
<glyph unicode="&#xb4;" horiz-adv-x="305" d="M330 590h-124l175 223h163z" />
<glyph unicode="&#xb5;" horiz-adv-x="556" d="M147 -230h-131l139 657h-56l22 101h187l-75 -352q-11 -40 -7.5 -65.5t29.5 -25.5q38 0 125 30l66 312h-56l22 101h187l-86 -404q-5 -25 15 -25q14 0 30 6l1 -94q-62 -21 -97 -21q-75 0 -86 61q-128 -53 -182 -60z" />
<glyph unicode="&#xb6;" horiz-adv-x="615" d="M580 -3l-22 -102h-183l154 723h-65l-154 -723h-182l22 102h63l65 307q-89 8 -131 64t-23 142q20 93 95.5 151t177.5 58h274l-153 -722h62z" />
<glyph unicode="&#xb7;" horiz-adv-x="287" d="M242 197h-130l34 159h130z" />
<glyph unicode="&#xb8;" horiz-adv-x="312" d="M72 -76l73 99h59l-50 -63q40 -2 70 -23t22 -57q-8 -38 -39.5 -62.5t-72.5 -32t-82.5 -5t-74.5 14.5l35 49q18 -9 47 -11.5t57 8t34 36.5q3 15 -2 25t-17.5 14t-25.5 5.5t-29 2.5h-4z" />
<glyph unicode="&#xb9;" horiz-adv-x="267" d="M346 497l-20 -97h-205l20 97h36l73 345h-36l24 113h169l-97 -458h36z" />
<glyph unicode="&#xba;" horiz-adv-x="302" d="M421 696q-10 -48 -52 -80.5t-98 -32.5q-55 0 -83 32.5t-18 80.5q10 47 52 80.5t98 33.5t83.5 -33.5t17.5 -80.5zM339 696q4 17 -5 29t-30 12q-20 0 -34.5 -12t-18.5 -29q-3 -16 6.5 -28.5t29.5 -12.5t34.5 12.5t17.5 28.5z" />
<glyph unicode="&#xbb;" horiz-adv-x="575" d="M378 272l-261 -235l-70 76l169 159l-102 160l103 75zM609 272l-260 -235l-70 76l168 159l-101 160l103 75z" />
<glyph unicode="&#xbc;" horiz-adv-x="1163" d="M1101 97l-20 -97h-204l20 97h39l7 32h-265l21 98l332 328h159l-339 -328h113l23 109h127l-23 -109h67l-21 -98h-67l-7 -32h38zM874 730l-477 -740h-140l475 740h142zM286 262l-20 -97h-205l20 97h36l74 345h-36l24 113h169l-98 -458h36z" />
<glyph unicode="&#xbd;" horiz-adv-x="1163" d="M906 368h-112l32 153q101 42 202 42q112 0 160.5 -40.5t27.5 -137.5q-17 -79 -147 -170q-43 -30 -176 -110h161l10 48h111l-32 -153h-438l22 105q181 117 262.5 179t90.5 104q9 43 -7.5 58t-65.5 15q-45 0 -84 -13zM874 730l-474 -740h-140l472 740h142zM286 262l-20 -97 h-205l20 97h36l74 345h-36l24 113h169l-98 -458h36z" />
<glyph unicode="&#xbe;" horiz-adv-x="1318" d="M254 539h-111l33 153q98 37 187 37q118 0 168.5 -35.5t31.5 -123.5l-5 -20q-7 -38 -27 -60.5t-66 -35.5q79 -16 60 -107l-7 -32q-33 -158 -275 -158q-64 0 -185 18l32 153h111l-13 -62q43 -5 77 -5q109 0 120 54l7 32q7 31 -12.5 42.5t-58.5 11.5h-59l20 99h51 q85 0 94 50l5 20q6 28 -13 41.5t-83 13.5q-18 0 -65 -7zM1274 97l-20 -97h-204l20 97h39l7 32h-265l21 98l332 328h159l-339 -328h113l23 109h127l-23 -109h67l-21 -98h-67l-7 -32h38zM1054 730l-476 -740h-141l476 740h141z" />
<glyph unicode="&#xbf;" horiz-adv-x="451" d="M258 12h116l-37 -174q-111 -43 -206 -43q-109 0 -161.5 42t-29.5 151q9 43 45 86t74.5 71.5t73.5 65.5t42 69l13 62h130l-13 -62q-9 -42 -44.5 -86t-73 -74t-71.5 -66.5t-40 -65.5q-11 -49 8 -68t62 -19q48 0 91 11zM228 528h130l-29 -136h-130z" />
<glyph unicode="&#xc0;" d="M289 101l-21 -101h-263l21 101h70l303 517h-67l21 101h224l101 -618h69l-21 -101h-263l21 101h51l-11 102h-231l-55 -102h51zM468 769l-144 175l165 21l97 -183zM486 565l-138 -259h165z" />
<glyph unicode="&#xc1;" d="M289 101l-21 -101h-263l21 101h70l303 517h-67l21 101h224l101 -618h69l-21 -101h-263l21 101h51l-11 102h-231l-55 -102h51zM588 770h-124l176 223h163zM486 565l-138 -259h165z" />
<glyph unicode="&#xc2;" d="M289 101l-21 -101h-263l21 101h70l303 517h-67l21 101h224l101 -618h69l-21 -101h-263l21 101h51l-11 102h-231l-55 -102h51zM668 760l-127 65l-154 -65l-25 40l207 158l141 -158zM486 565l-138 -259h165z" />
<glyph unicode="&#xc3;" d="M289 101l-21 -101h-263l21 101h70l303 517h-67l21 101h224l101 -618h69l-21 -101h-263l21 101h51l-11 102h-231l-55 -102h51zM423 763l-66 34q42 76 114 93q38 8 74.5 -12t66.5 -19q21 0 52 35l66 -27q-23 -41 -54.5 -67t-61.5 -33q-38 -8 -74.5 12t-66.5 19 q-22 0 -50 -35zM486 565l-138 -259h165z" />
<glyph unicode="&#xc4;" d="M289 101l-21 -101h-263l21 101h70l303 517h-67l21 101h224l101 -618h69l-21 -101h-263l21 101h51l-11 102h-231l-55 -102h51zM486 565l-138 -259h165zM495 770h-130l34 158h130zM691 770h-130l34 158h130z" />
<glyph unicode="&#xc5;" d="M289 101l-21 -101h-263l21 101h70l303 517h-67l21 101h224l101 -618h69l-21 -101h-263l21 101h51l-11 102h-231l-55 -102h51zM677 876q-10 -48 -52 -80.5t-98 -32.5q-55 0 -83 32.5t-18 80.5q10 47 52 80.5t97 33.5q56 0 84 -33.5t18 -80.5zM486 565l-138 -259h165z M595 876q3 17 -6 29t-30 12q-20 0 -34.5 -12t-17.5 -29q-4 -16 5.5 -28.5t29.5 -12.5t34.5 12.5t18.5 28.5z" />
<glyph unicode="&#xc6;" horiz-adv-x="1084" d="M1057 0h-538l21 101h68l22 102h-308l-86 -102h53l-21 -101h-263l21 101h65l456 517h-61l21 101h702l-37 -174h-116l16 73h-215l-42 -197h203l-21 -101h-203l-47 -219h215l15 73h116zM671 618l-262 -312h243l66 312h-47z" />
<glyph unicode="&#xc7;" horiz-adv-x="589" d="M648 515h-116l21 97q-37 7 -64 7h-15q-95 0 -133.5 -36t-58.5 -128l-40 -191q-20 -91 3.5 -127t118.5 -36h15q69 0 169 34l4 -109q-93 -33 -184 -36l-25 -32q40 -2 70 -23t22 -57q-8 -38 -39.5 -62.5t-72.5 -32t-83 -5t-75 14.5l36 49q18 -9 47 -11.5t57 8t34 36.5 q2 11 0.5 18.5t-9 12.5t-12.5 8t-18.5 4.5t-18.5 2t-20 1.5l51 69q-140 5 -192 67t-21 206l40 191q32 151 117 213t242 62h15q113 0 172 -40z" />
<glyph unicode="&#xc8;" horiz-adv-x="589" d="M678 545h-117l16 73h-215l-42 -197h203l-21 -101h-203l-47 -219h215l15 73h117l-36 -174h-539l21 101h68l110 517h-68l21 101h539zM438 769l-144 175l165 21l97 -183z" />
<glyph unicode="&#xc9;" horiz-adv-x="589" d="M678 545h-117l16 73h-215l-42 -197h203l-21 -101h-203l-47 -219h215l15 73h117l-36 -174h-539l21 101h68l110 517h-68l21 101h539zM558 770h-124l176 223h163z" />
<glyph unicode="&#xca;" horiz-adv-x="589" d="M678 545h-117l16 73h-215l-42 -197h203l-21 -101h-203l-47 -219h215l15 73h117l-36 -174h-539l21 101h68l110 517h-68l21 101h539zM638 760l-127 65l-154 -65l-25 40l207 158l141 -158z" />
<glyph unicode="&#xcb;" horiz-adv-x="589" d="M678 545h-117l16 73h-215l-42 -197h203l-21 -101h-203l-47 -219h215l15 73h117l-36 -174h-539l21 101h68l110 517h-68l21 101h539zM661 770h-130l34 158h130zM465 770h-130l34 158h130z" />
<glyph unicode="&#xcc;" horiz-adv-x="323" d="M320 101l-21 -101h-275l21 101h68l110 517h-68l21 101h275l-21 -101h-68l-110 -517h68zM263 769l-144 175l165 21l97 -183z" />
<glyph unicode="&#xcd;" horiz-adv-x="323" d="M320 101l-21 -101h-275l21 101h68l110 517h-68l21 101h275l-21 -101h-68l-110 -517h68zM383 770h-124l176 223h163z" />
<glyph unicode="&#xce;" horiz-adv-x="323" d="M320 101l-21 -101h-275l21 101h68l110 517h-68l21 101h275l-21 -101h-68l-110 -517h68zM463 760l-127 65l-154 -65l-25 40l207 158l141 -158z" />
<glyph unicode="&#xcf;" horiz-adv-x="323" d="M320 101l-21 -101h-275l21 101h68l110 517h-68l21 101h275l-21 -101h-68l-110 -517h68zM290 770h-130l34 158h130zM486 770h-130l34 158h130z" />
<glyph unicode="&#xd0;" horiz-adv-x="681" d="M375 0h-351l21 101h68l42 196h-62l26 123h62l42 198h-68l21 101h351q118 0 173 -29.5t61 -89t-14 -149.5l-39 -183q-32 -154 -100 -211t-233 -57zM565 268l39 183q20 90 -2.5 128.5t-117.5 38.5h-122l-42 -198h103l-26 -123h-103l-42 -196h122q50 0 83 10t54 32.5t33 51 t21 73.5z" />
<glyph unicode="&#xd1;" horiz-adv-x="735" d="M656 0h-138l-181 501l-85 -400h69l-21 -101h-276l21 101h68l110 517h-68l21 101h207l179 -509l87 408h-69l21 101h276l-21 -101h-69zM426 763l-66 34q42 76 114 93q38 8 74.5 -12t66.5 -19q21 0 52 35l66 -27q-23 -41 -54.5 -67t-61.5 -33q-38 -8 -74.5 12t-66.5 19 q-22 0 -50 -35z" />
<glyph unicode="&#xd2;" horiz-adv-x="684" d="M345 -10h-12q-153 0 -209.5 61.5t-24.5 212.5l40 191q32 152 115 213.5t237 61.5h12q153 0 209.5 -62t24.5 -213l-40 -191q-32 -151 -115.5 -212.5t-236.5 -61.5zM554 264l40 191q20 91 -2.5 128.5t-112.5 37.5h-12q-90 0 -127.5 -37t-57.5 -129l-40 -191q-20 -91 3 -128 t112 -37h12q89 0 127 37t58 128zM444 769l-144 175l165 21l97 -183z" />
<glyph unicode="&#xd3;" horiz-adv-x="684" d="M345 -10h-12q-153 0 -209.5 61.5t-24.5 212.5l40 191q32 152 115 213.5t237 61.5h12q153 0 209.5 -62t24.5 -213l-40 -191q-32 -151 -115.5 -212.5t-236.5 -61.5zM554 264l40 191q20 91 -2.5 128.5t-112.5 37.5h-12q-90 0 -127.5 -37t-57.5 -129l-40 -191q-20 -91 3 -128 t112 -37h12q89 0 127 37t58 128zM564 770h-124l176 223h163z" />
<glyph unicode="&#xd4;" horiz-adv-x="684" d="M345 -10h-12q-153 0 -209.5 61.5t-24.5 212.5l40 191q32 152 115 213.5t237 61.5h12q153 0 209.5 -62t24.5 -213l-40 -191q-32 -151 -115.5 -212.5t-236.5 -61.5zM554 264l40 191q20 91 -2.5 128.5t-112.5 37.5h-12q-90 0 -127.5 -37t-57.5 -129l-40 -191q-20 -91 3 -128 t112 -37h12q89 0 127 37t58 128zM644 760l-127 65l-154 -65l-25 40l207 158l141 -158z" />
<glyph unicode="&#xd5;" horiz-adv-x="684" d="M345 -10h-12q-153 0 -209.5 61.5t-24.5 212.5l40 191q32 152 115 213.5t237 61.5h12q153 0 209.5 -62t24.5 -213l-40 -191q-32 -151 -115.5 -212.5t-236.5 -61.5zM554 264l40 191q20 91 -2.5 128.5t-112.5 37.5h-12q-90 0 -127.5 -37t-57.5 -129l-40 -191q-20 -91 3 -128 t112 -37h12q89 0 127 37t58 128zM399 763l-66 34q42 76 114 93q38 8 74.5 -12t66.5 -19q21 0 52 35l66 -27q-23 -41 -54.5 -67t-61.5 -33q-38 -8 -74.5 12t-66.5 19q-22 0 -50 -35z" />
<glyph unicode="&#xd6;" horiz-adv-x="684" d="M345 -10h-12q-153 0 -209.5 61.5t-24.5 212.5l40 191q32 152 115 213.5t237 61.5h12q153 0 209.5 -62t24.5 -213l-40 -191q-32 -151 -115.5 -212.5t-236.5 -61.5zM554 264l40 191q20 91 -2.5 128.5t-112.5 37.5h-12q-90 0 -127.5 -37t-57.5 -129l-40 -191q-20 -91 3 -128 t112 -37h12q89 0 127 37t58 128zM471 770h-130l34 158h130zM667 770h-130l34 158h130z" />
<glyph unicode="&#xd7;" horiz-adv-x="598" d="M480 24l-143 164l-214 -165l-68 79l213 163l-141 166l101 79l143 -165l215 164l68 -78l-212 -165l142 -164z" />
<glyph unicode="&#xd8;" horiz-adv-x="732" d="M223 -41h-133l46 73q-84 60 -46 232l40 191q32 152 115 213.5t237 61.5h12q40 0 82 -5l20 32h134l-46 -72q80 -61 44 -230l-40 -191q-32 -151 -115.5 -212.5t-236.5 -61.5h-12q-39 0 -79 5zM233 264q-14 -62 -9 -94l284 449q-22 2 -38 2h-12q-90 0 -127.5 -37t-57.5 -129 zM545 264l40 191q13 56 10 89l-282 -444q10 -1 35 -1h12q89 0 127 37t58 128z" />
<glyph unicode="&#xd9;" horiz-adv-x="703" d="M849 719l-21 -101h-68l-74 -348q-33 -155 -111 -218t-222 -63h-8q-144 0 -195 63t-18 218l74 348h-69l21 101h275l-21 -101h-68l-74 -349q-22 -85 -1 -123.5t101 -38.5h8q81 0 115.5 36.5t53.5 125.5l74 349h-67l21 101h274zM453 769l-144 175l165 21l97 -183z" />
<glyph unicode="&#xda;" horiz-adv-x="703" d="M849 719l-21 -101h-68l-74 -348q-33 -155 -111 -218t-222 -63h-8q-144 0 -195 63t-18 218l74 348h-69l21 101h275l-21 -101h-68l-74 -349q-22 -85 -1 -123.5t101 -38.5h8q81 0 115.5 36.5t53.5 125.5l74 349h-67l21 101h274zM573 770h-124l176 223h163z" />
<glyph unicode="&#xdb;" horiz-adv-x="703" d="M849 719l-21 -101h-68l-74 -348q-33 -155 -111 -218t-222 -63h-8q-144 0 -195 63t-18 218l74 348h-69l21 101h275l-21 -101h-68l-74 -349q-22 -85 -1 -123.5t101 -38.5h8q81 0 115.5 36.5t53.5 125.5l74 349h-67l21 101h274zM652 760l-127 65l-154 -65l-25 40l207 158 l141 -158z" />
<glyph unicode="&#xdc;" horiz-adv-x="703" d="M849 719l-21 -101h-68l-74 -348q-33 -155 -111 -218t-222 -63h-8q-144 0 -195 63t-18 218l74 348h-69l21 101h275l-21 -101h-68l-74 -349q-22 -85 -1 -123.5t101 -38.5h8q81 0 115.5 36.5t53.5 125.5l74 349h-67l21 101h274zM675 770h-130l34 158h130zM479 770h-130 l34 158h130z" />
<glyph unicode="&#xdd;" horiz-adv-x="660" d="M806 719l-21 -101h-71l-257 -345l-37 -172h68l-21 -101h-275l21 101h69l37 172l-113 345h-69l21 101h275l-21 -101h-62l60 -238l161 238h-61l21 101h275zM552 770h-124l176 223h163z" />
<glyph unicode="&#xde;" horiz-adv-x="617" d="M311 101l-21 -101h-275l21 101h68l110 517h-68l21 101h275l-21 -101h-68l-13 -60h120q41 0 70.5 -2t57.5 -7t46 -14t32.5 -23.5t20 -35.5t5 -49.5t-8.5 -65.5q-11 -52 -29.5 -88t-42.5 -58t-61.5 -33.5t-76.5 -15.5t-97 -4h-120l-13 -61h68zM438 456h-120l-40 -191h120 q74 0 101 18.5t40 77.5q13 58 -7 76.5t-94 18.5z" />
<glyph unicode="&#xdf;" horiz-adv-x="648" d="M233 20l2 4l30 141h109l-16 -71q38 -8 68 -8q99 0 111 58q4 19 -12.5 32.5t-44.5 21t-59.5 20.5t-57.5 29t-39 49.5t-3 79.5q35 162 175 162q21 0 39.5 13t24.5 42q4 8 0.5 18.5t-10.5 20.5t-30.5 16.5t-59.5 6.5q-49 0 -79.5 -14.5t-40 -30.5t-15.5 -41l-120 -569h-187 l21 101h57l99 468q19 90 98 139t184 49q103 0 165.5 -45t47.5 -119q-34 -152 -178 -152q-48 0 -59 -51q-4 -20 12.5 -34t44.5 -21.5t60 -20t58 -28.5t39 -49t3 -78q-11 -53 -36.5 -88t-63 -52t-74 -23t-84.5 -6q-57 0 -90 6t-89 24z" />
<glyph unicode="&#xe0;" horiz-adv-x="520" d="M531 101l-21 -101h-189l9 46q-104 -52 -156 -55q-23 -1 -44 3q-43 8 -62.5 32.5t-17.5 57t8 70.5q14 68 43.5 108.5t96.5 52.5q71 10 181 -38l14 65q11 51 -4 73t-53 22q-33 0 -70 -8l-14 -65h-109l31 146q97 28 190 28q202 0 160 -196l-51 -241h58zM267 243 q-33 0 -50.5 -23t-26.5 -66q-10 -37 -1.5 -61.5t41.5 -24.5q30 0 112 35l24 112q-73 28 -99 28zM319 589l-144 175l164 21l97 -183z" />
<glyph unicode="&#xe1;" horiz-adv-x="520" d="M531 101l-21 -101h-189l9 46q-104 -52 -156 -55q-23 -1 -44 3q-43 8 -62.5 32.5t-17.5 57t8 70.5q14 68 43.5 108.5t96.5 52.5q71 10 181 -38l14 65q11 51 -4 73t-53 22q-33 0 -70 -8l-14 -65h-109l31 146q97 28 190 28q202 0 160 -196l-51 -241h58zM267 243 q-33 0 -50.5 -23t-26.5 -66q-10 -37 -1.5 -61.5t41.5 -24.5q30 0 112 35l24 112q-73 28 -99 28zM439 590h-124l175 223h163z" />
<glyph unicode="&#xe2;" horiz-adv-x="520" d="M531 101l-21 -101h-189l9 46q-104 -52 -156 -55q-23 -1 -44 3q-43 8 -62.5 32.5t-17.5 57t8 70.5q14 68 43.5 108.5t96.5 52.5q71 10 181 -38l14 65q11 51 -4 73t-53 22q-33 0 -70 -8l-14 -65h-109l31 146q97 28 190 28q202 0 160 -196l-51 -241h58zM267 243 q-33 0 -50.5 -23t-26.5 -66q-10 -37 -1.5 -61.5t41.5 -24.5q30 0 112 35l24 112q-73 28 -99 28zM518 580l-127 65l-154 -65l-26 40l208 158l140 -158z" />
<glyph unicode="&#xe3;" horiz-adv-x="520" d="M531 101l-21 -101h-189l9 46q-104 -52 -156 -55q-23 -1 -44 3q-43 8 -62.5 32.5t-17.5 57t8 70.5q14 68 43.5 108.5t96.5 52.5q71 10 181 -38l14 65q11 51 -4 73t-53 22q-33 0 -70 -8l-14 -65h-109l31 146q97 28 190 28q202 0 160 -196l-51 -241h58zM267 243 q-33 0 -50.5 -23t-26.5 -66q-10 -37 -1.5 -61.5t41.5 -24.5q30 0 112 35l24 112q-73 28 -99 28zM273 583l-65 34q42 75 113 93q39 8 75.5 -12t66.5 -19q22 0 51 35l67 -27q-49 -84 -117 -100q-38 -8 -74 12t-66 19q-22 0 -51 -35z" />
<glyph unicode="&#xe4;" horiz-adv-x="520" d="M531 101l-21 -101h-189l9 46q-104 -52 -156 -55q-23 -1 -44 3q-43 8 -62.5 32.5t-17.5 57t8 70.5q14 68 43.5 108.5t96.5 52.5q71 10 181 -38l14 65q11 51 -4 73t-53 22q-33 0 -70 -8l-14 -65h-109l31 146q97 28 190 28q202 0 160 -196l-51 -241h58zM267 243 q-33 0 -50.5 -23t-26.5 -66q-10 -37 -1.5 -61.5t41.5 -24.5q30 0 112 35l24 112q-73 28 -99 28zM346 590h-130l33 158h130zM542 590h-130l33 158h130z" />
<glyph unicode="&#xe5;" horiz-adv-x="520" d="M531 101l-21 -101h-189l9 46q-104 -52 -156 -55q-23 -1 -44 3q-43 8 -62.5 32.5t-17.5 57t8 70.5q14 68 43.5 108.5t96.5 52.5q71 10 181 -38l14 65q11 51 -4 73t-53 22q-33 0 -70 -8l-14 -65h-109l31 146q97 28 190 28q202 0 160 -196l-51 -241h58zM267 243 q-33 0 -50.5 -23t-26.5 -66q-10 -37 -1.5 -61.5t41.5 -24.5q30 0 112 35l24 112q-73 28 -99 28zM527 696q-10 -48 -52 -80.5t-98 -32.5q-55 0 -83 32.5t-18 80.5q10 47 52 80.5t98 33.5t83.5 -33.5t17.5 -80.5zM445 696q4 17 -5 29t-30 12q-20 0 -34.5 -12t-18.5 -29 q-3 -16 6.5 -28.5t29.5 -12.5t34.5 12.5t17.5 28.5z" />
<glyph unicode="&#xe6;" horiz-adv-x="764" d="M734 119l4 -94q-111 -36 -199 -36q-92 0 -140 33q-81 -31 -229 -31q-40 0 -66.5 10t-39 24.5t-16 39t-1.5 46t9 51.5q8 36 17 60t27 49t49.5 37t77.5 12q64 0 143 -34l12 56q11 53 -7.5 73.5t-64.5 19.5q-46 -2 -137 -19l-3 94q93 28 183 28q89 0 130 -38q58 38 176 38 q109 0 140 -41.5t15 -114.5l-14 -63q-20 -101 -313 -105l-4 -21q-10 -46 8 -73.5t70 -27.5q82 0 173 27zM329 92l26 121q2 9 -33 16.5t-67 7.5q-29 0 -44 -18.5t-24 -59.5q-10 -37 -3 -61.5t36 -24.5q105 0 109 19zM672 333l10 46q8 24 3 44t-31 20q-119 0 -135 -77l-18 -88 q163 12 171 55z" />
<glyph unicode="&#xe7;" horiz-adv-x="477" d="M504 361h-109l15 71q-18 3 -41 3q-100 0 -121 -100l-30 -141q-23 -101 78 -101q67 0 148 15l-5 -94q-81 -21 -152 -24l-27 -35q40 -2 70 -23t22 -57q-8 -38 -39.5 -62.5t-72.5 -32t-83 -5t-75 14.5l36 49q18 -9 47 -11.5t57 8t34 36.5q3 15 -2 25t-17.5 14t-25.5 5.5 t-29 2.5h-4l54 73q-184 18 -142 217l23 110q23 109 90.5 164t187.5 55q60 0 144 -31z" />
<glyph unicode="&#xe8;" horiz-adv-x="501" d="M469 120l4 -94q-111 -36 -199 -36q-120 0 -163.5 55t-20.5 164l20 95q16 77 36.5 122.5t56 70.5t78 33t113.5 8q109 0 140 -41.5t15 -114.5l-4 -18q-16 -75 -88.5 -119t-237.5 -47l-1 -4q-21 -101 78 -101q82 0 173 27zM423 375l1 4q9 24 2 44t-37 20q-60 0 -93 -16.5 t-42 -60.5l-23 -111q93 14 137 40.5t55 79.5zM329 587l-144 175l165 21l97 -183z" />
<glyph unicode="&#xe9;" horiz-adv-x="501" d="M469 120l4 -94q-111 -36 -199 -36q-120 0 -163.5 55t-20.5 164l20 95q16 77 36.5 122.5t56 70.5t78 33t113.5 8q109 0 140 -41.5t15 -114.5l-4 -18q-16 -75 -88.5 -119t-237.5 -47l-1 -4q-21 -101 78 -101q82 0 173 27zM423 375l1 4q9 24 2 44t-37 20q-60 0 -93 -16.5 t-42 -60.5l-23 -111q93 14 137 40.5t55 79.5zM449 588h-124l176 223h163z" />
<glyph unicode="&#xea;" horiz-adv-x="501" d="M469 120l4 -94q-111 -36 -199 -36q-120 0 -163.5 55t-20.5 164l20 95q16 77 36.5 122.5t56 70.5t78 33t113.5 8q109 0 140 -41.5t15 -114.5l-4 -18q-16 -75 -88.5 -119t-237.5 -47l-1 -4q-21 -101 78 -101q82 0 173 27zM423 375l1 4q9 24 2 44t-37 20q-60 0 -93 -16.5 t-42 -60.5l-23 -111q93 14 137 40.5t55 79.5zM528 578l-127 65l-154 -65l-25 40l207 158l141 -158z" />
<glyph unicode="&#xeb;" horiz-adv-x="501" d="M469 120l4 -94q-111 -36 -199 -36q-120 0 -163.5 55t-20.5 164l20 95q16 77 36.5 122.5t56 70.5t78 33t113.5 8q109 0 140 -41.5t15 -114.5l-4 -18q-16 -75 -88.5 -119t-237.5 -47l-1 -4q-21 -101 78 -101q82 0 173 27zM423 375l1 4q9 24 2 44t-37 20q-60 0 -93 -16.5 t-42 -60.5l-23 -111q93 14 137 40.5t55 79.5zM356 588h-130l34 158h130zM552 588h-130l34 158h130z" />
<glyph unicode="&#xec;" horiz-adv-x="274" d="M286 101l-21 -101h-247l21 101h59l69 326h-57l22 101h188l-91 -427h57zM283 589l-144 175l164 21l97 -183z" />
<glyph unicode="&#xed;" horiz-adv-x="274" d="M286 101l-21 -101h-247l21 101h59l69 326h-57l22 101h188l-91 -427h57zM337 590h-124l175 223h163z" />
<glyph unicode="&#xee;" horiz-adv-x="274" d="M286 101l-21 -101h-247l21 101h59l69 326h-57l22 101h188l-91 -427h57zM401 580l-127 65l-154 -65l-26 40l208 158l140 -158z" />
<glyph unicode="&#xef;" horiz-adv-x="274" d="M286 101l-21 -101h-247l21 101h59l69 326h-57l22 101h188l-91 -427h57zM425 590h-130l33 158h130zM229 590h-130l33 158h130z" />
<glyph unicode="&#xf0;" horiz-adv-x="636" d="M271 631l52 100q50 -13 76 -22l42 64l74 -33l-40 -62q246 -121 187 -428v-5l-5 -22q-26 -123 -106 -178t-223 -55h-8q-143 0 -198.5 55t-29.5 178l5 22q26 123 95 178.5t189 55.5h8q84 0 156 -40q-41 85 -135 140l-41 -62l-73 33l40 61q-34 12 -65 20zM343 98h8 q83 0 119 32t49 94l4 20q14 64 -8 95.5t-106 31.5h-8q-84 0 -119 -31.5t-49 -95.5l-4 -20q-13 -62 9 -94t105 -32z" />
<glyph unicode="&#xf1;" horiz-adv-x="563" d="M286 101l-21 -101h-247l21 101h58l69 326h-56l22 101h187l-15 -69q115 66 163 76q14 3 26 3q33 0 53.5 -11t29.5 -26.5t9.5 -43.5t-3 -51t-11.5 -60l-46 -216q-6 -31 14 -31q13 0 30 6l2 -94q-62 -21 -97 -21q-53 0 -75 30t-7 101l48 225q4 20 5.5 34.5t0.5 28t-8 20.5 t-20 7q-9 0 -22.5 -4t-30 -11l-28.5 -12.5t-29 -14t-20 -10.5l-60 -283h58zM325 581l-66 34q42 76 114 93q39 8 75 -12t66 -19q23 0 52 35l66 -27q-23 -41 -54.5 -67t-61.5 -33q-38 -8 -74 12t-67 19q-22 0 -50 -35z" />
<glyph unicode="&#xf2;" horiz-adv-x="522" d="M557 384l-51 -240q-17 -82 -77 -118t-171 -36t-155 36t-27 118l51 240q18 83 77 118.5t171 35.5t156 -35.5t26 -118.5zM376 145l51 238q6 30 -10 45t-62 15q-85 0 -97 -60l-51 -238q-6 -29 10.5 -44.5t61.5 -15.5q85 0 97 60zM325 587l-144 175l165 21l97 -183z" />
<glyph unicode="&#xf3;" horiz-adv-x="522" d="M557 384l-51 -240q-17 -82 -77 -118t-171 -36t-155 36t-27 118l51 240q18 83 77 118.5t171 35.5t156 -35.5t26 -118.5zM376 145l51 238q6 30 -10 45t-62 15q-85 0 -97 -60l-51 -238q-6 -29 10.5 -44.5t61.5 -15.5q85 0 97 60zM445 588h-124l176 223h163z" />
<glyph unicode="&#xf4;" horiz-adv-x="522" d="M557 384l-51 -240q-17 -82 -77 -118t-171 -36t-155 36t-27 118l51 240q18 83 77 118.5t171 35.5t156 -35.5t26 -118.5zM376 145l51 238q6 30 -10 45t-62 15q-85 0 -97 -60l-51 -238q-6 -29 10.5 -44.5t61.5 -15.5q85 0 97 60zM524 578l-127 65l-154 -65l-25 40l207 158 l141 -158z" />
<glyph unicode="&#xf5;" horiz-adv-x="522" d="M557 384l-51 -240q-17 -82 -77 -118t-171 -36t-155 36t-27 118l51 240q18 83 77 118.5t171 35.5t156 -35.5t26 -118.5zM376 145l51 238q6 30 -10 45t-62 15q-85 0 -97 -60l-51 -238q-6 -29 10.5 -44.5t61.5 -15.5q85 0 97 60zM280 581l-66 34q42 76 114 93q39 8 75 -12 t66 -19q23 0 52 35l66 -27q-23 -41 -54.5 -67t-61.5 -33q-38 -8 -74 12t-67 19q-22 0 -50 -35z" />
<glyph unicode="&#xf6;" horiz-adv-x="522" d="M557 384l-51 -240q-17 -82 -77 -118t-171 -36t-155 36t-27 118l51 240q18 83 77 118.5t171 35.5t156 -35.5t26 -118.5zM376 145l51 238q6 30 -10 45t-62 15q-85 0 -97 -60l-51 -238q-6 -29 10.5 -44.5t61.5 -15.5q85 0 97 60zM351 588h-130l34 158h130zM547 588h-130 l34 158h130z" />
<glyph unicode="&#xf7;" horiz-adv-x="462" d="M485 228h-413l26 124h413zM293 0h-131l33 158h131zM381 416h-131l34 158h131z" />
<glyph unicode="&#xf8;" horiz-adv-x="506" d="M106 -56h-80l65 87q-39 36 -21 120l48 226q18 86 78 123.5t171 37.5q60 0 99 -10l47 62h80l-69 -91q42 -39 24 -122l-48 -226q-18 -86 -78 -123.5t-172 -37.5q-59 0 -101 11zM370 152l42 198l-192 -255q16 -10 51 -10q85 0 99 67zM248 376l-40 -190l188 249q-19 8 -49 8 q-46 0 -68.5 -16.5t-30.5 -50.5z" />
<glyph unicode="&#xf9;" horiz-adv-x="556" d="M558 105l1 -94q-62 -21 -97 -21q-75 0 -86 61q-146 -61 -195 -61q-33 0 -53.5 11t-29 26.5t-9 44t2.5 51.5t11 60l52 244h-56l22 101h187l-75 -352q-11 -40 -7.5 -65.5t29.5 -25.5q38 0 125 30l66 312h-56l22 101h187l-85 -398q-6 -31 14 -31q14 0 30 6zM319 587 l-144 175l165 21l97 -183z" />
<glyph unicode="&#xfa;" horiz-adv-x="556" d="M558 105l1 -94q-62 -21 -97 -21q-75 0 -86 61q-146 -61 -195 -61q-33 0 -53.5 11t-29 26.5t-9 44t2.5 51.5t11 60l52 244h-56l22 101h187l-75 -352q-11 -40 -7.5 -65.5t29.5 -25.5q38 0 125 30l66 312h-56l22 101h187l-86 -404q-5 -25 15 -25q14 0 30 6zM439 588h-124 l176 223h163z" />
<glyph unicode="&#xfb;" horiz-adv-x="556" d="M558 105l1 -94q-62 -21 -97 -21q-75 0 -86 61q-146 -61 -195 -61q-33 0 -53.5 11t-29 26.5t-9 44t2.5 51.5t11 60l52 244h-56l22 101h187l-75 -352q-11 -40 -7.5 -65.5t29.5 -25.5q38 0 125 30l66 312h-56l22 101h187l-85 -398q-6 -31 14 -31q14 0 30 6zM519 578l-127 65 l-154 -65l-25 40l207 158l141 -158z" />
<glyph unicode="&#xfc;" horiz-adv-x="556" d="M558 105l1 -94q-62 -21 -97 -21q-75 0 -86 61q-146 -61 -195 -61q-33 0 -53.5 11t-29 26.5t-9 44t2.5 51.5t11 60l52 244h-56l22 101h187l-75 -352q-11 -40 -7.5 -65.5t29.5 -25.5q38 0 125 30l66 312h-56l22 101h187l-86 -404q-5 -25 15 -25q14 0 30 6zM542 588h-130 l34 158h130zM346 588h-130l34 158h130z" />
<glyph unicode="&#xfd;" horiz-adv-x="531" d="M155 427h-56l22 101h187l-75 -352q-11 -40 -7.5 -65.5t29.5 -25.5q39 0 122 30l66 312h-56l22 101h187l-128 -601q-33 -155 -185 -155q-66 0 -251 52l46 94q161 -43 198 -43q34 0 46 19.5t24 75.5l16 77q-127 -57 -181 -57q-33 0 -53.5 11t-29 26.5t-9 44t2.5 51.5t11 60 zM436 588h-124l176 223h163z" />
<glyph unicode="&#xfe;" horiz-adv-x="544" d="M267 -115l-22 -102h-277l22 102h61l156 733h-62l21 101h278l-21 -101h-85l-34 -161q79 55 168 55q31 0 52.5 -6.5t33 -20t17 -28.5t4.5 -39t-4 -43t-9 -48l-32 -151q-10 -45 -19 -72t-27.5 -56.5t-49.5 -43.5t-77 -14q-87 0 -145 56l-34 -161h85zM403 176l32 151 q11 37 8 63.5t-30 26.5q-77 0 -124 -29l-58 -273q32 -30 112 -30q27 0 38.5 21.5t21.5 69.5z" />
<glyph unicode="&#xff;" horiz-adv-x="531" d="M155 427h-56l22 101h187l-75 -352q-11 -40 -7.5 -65.5t29.5 -25.5q39 0 122 30l66 312h-56l22 101h187l-128 -601q-33 -155 -185 -155q-66 0 -251 52l46 94q161 -43 198 -43q34 0 46 19.5t24 75.5l16 77q-127 -57 -181 -57q-33 0 -53.5 11t-29 26.5t-9 44t2.5 51.5t11 60 zM539 588h-130l34 158h130zM343 588h-130l34 158h130z" />
<glyph unicode="&#x152;" horiz-adv-x="999" d="M1088 545h-117l16 73h-215l-42 -197h203l-21 -101h-203l-47 -219h215l15 73h117l-36 -174h-471l2 11q-63 -21 -159 -21h-12q-153 0 -209.5 61.5t-24.5 212.5l40 191q32 152 115 213.5t237 61.5h12q92 0 149 -22l2 11h471zM554 264l40 191q20 91 -2.5 128.5t-112.5 37.5 h-12q-90 0 -127.5 -37t-57.5 -129l-40 -191q-20 -91 3 -128t112 -37h12q89 0 127 37t58 128z" />
<glyph unicode="&#x153;" horiz-adv-x="792" d="M752 120l4 -94q-111 -36 -199 -36q-92 0 -140 33q-57 -33 -166 -33q-111 0 -155 36t-27 118l51 240q18 83 77 118.5t171 35.5q95 0 140 -26q55 26 169 26q109 0 140 -41.5t15 -114.5l-4 -18q-15 -74 -85.5 -118t-231.5 -48l-12 -55q12 -50 80 -50q82 0 173 27zM272 85 q73 0 93 46q-1 33 8 78l20 95q11 55 28 100q-3 39 -73 39q-85 0 -97 -60l-51 -238q-6 -29 10.5 -44.5t61.5 -15.5zM706 375l1 4q9 24 2 44t-37 20q-89 0 -119 -39q0 -1 -1 -8.5t-2 -11.5l-27 -128q88 14 130 40.5t53 78.5z" />
<glyph unicode="&#x178;" horiz-adv-x="660" d="M806 719l-21 -101h-71l-257 -345l-37 -172h68l-21 -101h-275l21 101h69l37 172l-113 345h-69l21 101h275l-21 -101h-62l60 -238l161 238h-61l21 101h275zM459 770h-130l34 158h130zM655 770h-130l34 158h130z" />
<glyph unicode="&#x2c6;" horiz-adv-x="430" d="M478 580l-127 65l-154 -65l-26 40l208 158l140 -158z" />
<glyph unicode="&#x2dc;" horiz-adv-x="404" d="M218 583l-65 34q42 75 113 93q39 8 75.5 -12t66.5 -19q22 0 51 35l67 -27q-49 -84 -117 -100q-38 -8 -74 12t-66 19q-22 0 -51 -35z" />
<glyph unicode="&#x2000;" horiz-adv-x="496" />
<glyph unicode="&#x2001;" horiz-adv-x="993" />
<glyph unicode="&#x2002;" horiz-adv-x="496" />
<glyph unicode="&#x2003;" horiz-adv-x="993" />
<glyph unicode="&#x2004;" horiz-adv-x="331" />
<glyph unicode="&#x2005;" horiz-adv-x="248" />
<glyph unicode="&#x2006;" horiz-adv-x="165" />
<glyph unicode="&#x2007;" horiz-adv-x="165" />
<glyph unicode="&#x2008;" horiz-adv-x="124" />
<glyph unicode="&#x2009;" horiz-adv-x="198" />
<glyph unicode="&#x200a;" horiz-adv-x="55" />
<glyph unicode="&#x2010;" horiz-adv-x="368" d="M374 242h-277l23 108h277z" />
<glyph unicode="&#x2011;" horiz-adv-x="368" d="M374 242h-277l23 108h277z" />
<glyph unicode="&#x2013;" horiz-adv-x="578" d="M582 242h-483l23 108h483z" />
<glyph unicode="&#x2014;" horiz-adv-x="839" d="M844 242h-747l23 108h747z" />
<glyph unicode="&#x2018;" horiz-adv-x="243" d="M256 455h-150l161 264h112z" />
<glyph unicode="&#x2019;" horiz-adv-x="244" d="M226 457h-112l122 262h152z" />
<glyph unicode="&#x201a;" horiz-adv-x="258" d="M104 -125h-112l123 269h150z" />
<glyph unicode="&#x201c;" horiz-adv-x="477" d="M284 455h-150l160 264h113zM472 455h-150l160 264h112z" />
<glyph unicode="&#x201d;" horiz-adv-x="460" d="M442 719h150l-160 -264h-114zM253 719h151l-161 -264h-112z" />
<glyph unicode="&#x201e;" horiz-adv-x="464" d="M104 -125h-112l123 269h150zM310 -125h-113l124 269h150z" />
<glyph unicode="&#x2022;" horiz-adv-x="331" d="M309 120h-236l65 304h236z" />
<glyph unicode="&#x2026;" horiz-adv-x="628" d="M170 0h-131l30 144h131zM380 0h-132l30 144h132zM589 0h-131l30 144h131z" />
<glyph unicode="&#x202f;" horiz-adv-x="198" />
<glyph unicode="&#x2039;" horiz-adv-x="346" d="M240 37l-160 235l260 235l72 -75l-170 -160l102 -159z" />
<glyph unicode="&#x203a;" horiz-adv-x="346" d="M380 272l-260 -235l-70 76l168 159l-101 160l103 75z" />
<glyph unicode="&#x205f;" horiz-adv-x="248" />
<glyph unicode="&#x20ac;" horiz-adv-x="659" d="M718 515h-116l21 97q-37 7 -64 7h-15q-95 0 -133.5 -36t-58.5 -128l-11 -51h163l-39 -75h-140l-8 -42h163l-39 -75h-138q-6 -60 22 -85.5t109 -25.5h15q69 0 169 34l4 -109q-103 -36 -197 -36h-15q-143 0 -204 50t-46 172h-97l35 75h76l8 42h-95l35 75h76l11 51 q32 151 117 213t242 62h15q113 0 172 -40z" />
<glyph unicode="&#x2122;" horiz-adv-x="910" d="M970 425l-16 -74h-137l4 196l-116 -201h-97l-33 201l-78 -196h-136l16 74h50l102 220h-41l15 74h144l35 -251l142 251h143l-15 -74h-39l7 -220h50zM454 615h-80l7 30h-31l-47 -220h40l-16 -74h-175l16 74h39l47 220h-31l-7 -30h-80l22 104h318z" />
</font>
</defs>
</svg>
