<?xml version="1.0" standalone="no"?>
<!DOCTYPE svg PUBLIC "-//W3C//DTD SVG 1.1//EN" "http://www.w3.org/Graphics/SVG/1.1/DTD/svg11.dtd" >
<svg xmlns="http://www.w3.org/2000/svg">
<metadata>
This is a custom SVG webfont generated by Fontspring.
Designer    : http://www.insignedesign.com
Foundry     : Jeremy Dooley
Foundry URL : http://www.insignedesign.com
</metadata>
<defs>
<font id="webfont" horiz-adv-x="739" >
<font-face units-per-em="1000" ascent="750" descent="-250" />
<missing-glyph horiz-adv-x="225" />
<glyph unicode=" "  horiz-adv-x="225" />
<glyph unicode="&#x09;" horiz-adv-x="225" />
<glyph unicode="&#xa0;" horiz-adv-x="225" />
<glyph unicode="!" horiz-adv-x="215" d="M181 231h-142v511h142v-511zM181 2h-142v168h142v-168z" />
<glyph unicode="&#x22;" horiz-adv-x="405" d="M165 435h-106l-17 284h140zM346 435h-106l-17 284h140z" />
<glyph unicode="#" horiz-adv-x="748" d="M220 0h-137l47 137h-97v134h143l36 105h-93v134h139l53 154h137l-53 -154h75l53 154h138l-53 -154h75v-134h-122l-36 -105h88v-134h-134l-47 -137h-136l47 137h-76zM349 376l-36 -105h76l36 105h-76z" />
<glyph unicode="$" horiz-adv-x="556" d="M348 -93h-138v84q-80 4 -185 36h-1v183h127v-91q60 -16 96 -16q137 0 137 95q0 30 -26 52.5t-65.5 35.5t-85 32.5t-85 42t-65.5 65.5t-26 101q0 174 197 199v89h138v-89q63 -8 141 -41v-184h-127v102q-38 14 -69 14q-130 0 -130 -83q0 -30 26 -53t65.5 -36.5t85 -33 t85 -42t65.5 -65.5t26 -100q0 -90 -51 -140t-135 -66v-91z" />
<glyph unicode="%" horiz-adv-x="991" d="M367 446q0 -79 -42 -118t-131 -39q-174 0 -174 157v129q0 157 174 157q89 0 131 -39t42 -118v-129zM153 447q0 -29 8 -40.5t33 -11.5q20 0 29.5 11t10.5 23t1 39v11v94q0 29 -8 41t-33 12q-20 0 -29.5 -11t-10.5 -23t-1 -39v-11v-95zM320 -10h-163l494 731h164zM953 147 q0 -79 -42 -118t-131 -39t-131 39t-42 118v129q0 156 173 156t173 -156v-129zM739 148q0 -29 8 -41t33 -12q20 0 29.5 11t10.5 23t1 39v11v95q0 29 -8 41t-33 12q-20 0 -29.5 -11t-10.5 -23t-1 -39v-11v-95z" />
<glyph unicode="&#x26;" horiz-adv-x="854" d="M825 263h-119v63h-40v-216h53v-110h-254v110h52v216h-213q-116 0 -116 -93v-42q0 -51 37.5 -70t100.5 -19q50 0 99 9l16 -108q-71 -13 -114 -13q-63 0 -108 7t-89.5 26.5t-68 61.5t-23.5 106v42q0 56 30 94.5t86 47.5q-57 15 -80 45.5t-23 84.5v25q0 111 70 155.5 t210 44.5q91 0 231 -28v-183h-127v83q-61 8 -98 8q-81 0 -109 -18.5t-28 -61.5v-25q0 -67 114 -67h511v-175z" />
<glyph unicode="'" horiz-adv-x="203" d="M155 435h-106l-17 284h140z" />
<glyph unicode="(" horiz-adv-x="335" d="M190 305q0 -107 33.5 -235.5t86.5 -198.5l-49 -42q-101 85 -160.5 206.5t-59.5 269.5q0 149 59.5 270.5t160.5 205.5l49 -42q-53 -70 -86.5 -198.5t-33.5 -235.5z" />
<glyph unicode=")" horiz-adv-x="335" d="M146 305q0 107 -33.5 235.5t-87.5 198.5l49 42q101 -84 160.5 -205.5t59.5 -270.5q0 -148 -59.5 -269.5t-160.5 -206.5l-49 42q53 70 87 199t34 235z" />
<glyph unicode="*" horiz-adv-x="460" d="M292 362l-61 112l-62 -112l-113 78l99 82l-139 20l55 123l114 -64l-26 122h145l-27 -122l114 64l53 -123l-139 -20l100 -83z" />
<glyph unicode="+" horiz-adv-x="545" d="M342 21h-136v181h-198v130h198v180h136v-180h194v-130h-194v-181z" />
<glyph unicode="," horiz-adv-x="274" d="M140 -125h-123l69 277h165z" />
<glyph unicode="-" horiz-adv-x="370" d="M328 237h-286v118h286v-118z" />
<glyph unicode="." horiz-adv-x="213" d="M178 0h-143v152h143v-152z" />
<glyph unicode="/" horiz-adv-x="503" d="M151 -45h-146l339 791h146z" />
<glyph unicode="0" horiz-adv-x="640" d="M316 -10q-140 0 -211 69.5t-71 195.5v208q0 128 71 197.5t211 69.5h8q140 0 211 -69.5t71 -197.5v-208q0 -126 -71 -195.5t-211 -69.5h-8zM316 107h8q74 0 100 39.5t26 110.5v205q0 35 -4.5 59.5t-17 47t-38.5 33.5t-66 11h-8q-40 0 -66 -11t-38.5 -33.5t-17 -47 t-4.5 -59.5v-205q0 -71 26 -110.5t100 -39.5z" />
<glyph unicode="1" horiz-adv-x="346" d="M327 110v-110h-254v110h52v480h-52v129h203v-609h51z" />
<glyph unicode="2" horiz-adv-x="636" d="M181 496h-127v183q115 50 246 50q139 0 210.5 -52t71.5 -172q0 -45 -22.5 -89t-70.5 -89t-95 -82t-123 -92l-46 -33h240v95h127v-215h-556v120l112 86.5l92.5 73.5t80.5 70t54.5 57.5t39.5 55t11 45.5q0 60 -28.5 82.5t-97.5 22.5q-63 0 -119 -19v-98z" />
<glyph unicode="3" horiz-adv-x="610" d="M176 503h-127v183q113 44 229 44q145 0 217.5 -44.5t72.5 -155.5v-25q0 -54 -23 -84.5t-80 -45.5q56 -9 86 -47.5t30 -94.5v-42q0 -201 -304 -201q-90 0 -239 23v183h127v-81q61 -8 112 -8q154 0 154 84v42q0 47 -33 64.5t-91 17.5h-70l-1 112h61q122 0 122 78v25 q0 43 -31 63t-116 20q-34 0 -96 -10v-100z" />
<glyph unicode="4" horiz-adv-x="611" d="M569 110v-110h-254v110h55v55h-353v112l353 442h180l-361 -442h181v146h145v-146h89v-112h-89v-55h54z" />
<glyph unicode="5" horiz-adv-x="603" d="M540 536h-127v74h-194l-23 -134q205 -4 292.5 -60.5t87.5 -183.5v-4q0 -66 -24.5 -113.5t-68.5 -74t-98 -38.5t-120 -12q-93 0 -230 31v183h126v-90q55 -10 93 -10q76 0 124.5 29t48.5 95v4q0 40 -10 61.5t-47.5 41t-116 27.5t-210.5 8l54 349h443v-183z" />
<glyph unicode="6" horiz-adv-x="617" d="M468 731l34 -109q-205 -43 -307 -178q79 37 159 37h8q120 0 177 -56t57 -181v-19q0 -125 -68.5 -180t-213.5 -55h-8q-145 0 -213.5 55t-68.5 180v23q4 194 110 314.5t334 168.5zM306 107h8q80 0 106 30.5t26 89.5v16q0 61 -25.5 90.5t-106.5 29.5h-8q-81 0 -106.5 -29.5 t-25.5 -90.5v-16q0 -59 26 -89.5t106 -30.5z" />
<glyph unicode="7" horiz-adv-x="571" d="M148 536h-127v183h541v-109l-347 -610h-164l364 610h-267v-74z" />
<glyph unicode="8" horiz-adv-x="659" d="M364 -10h-69q-143 0 -202.5 44.5t-59.5 174.5q0 66 29.5 112.5t78.5 58.5q-85 26 -85 151v4q0 114 54.5 154.5t184.5 40.5h69q130 0 184.5 -40t54.5 -155v-4q0 -125 -85 -151q49 -12 78.5 -58.5t29.5 -112.5q0 -130 -59.5 -174.5t-202.5 -44.5zM293 108h74q65 0 87 20.5 t22 83.5q0 61 -21.5 83t-90.5 22h-68q-70 0 -91.5 -22t-21.5 -83q0 -63 21.5 -83.5t88.5 -20.5zM364 616h-69q-55 0 -74 -16.5t-19 -65.5q0 -51 19.5 -69t74.5 -18h68q54 0 73.5 18t19.5 69q0 49 -19 65.5t-74 16.5z" />
<glyph unicode="9" horiz-adv-x="617" d="M148 -12l-33 108q204 42 307 179q-77 -37 -160 -37h-8q-120 0 -177 55.5t-57 181.5v18q0 125 68.5 180t213.5 55h8q145 0 213.5 -55t68.5 -180v-11q0 -199 -106 -322.5t-338 -171.5zM310 611h-8q-80 0 -106 -30.5t-26 -89.5v-16q0 -60 25.5 -90t106.5 -30h8 q81 0 106.5 30t25.5 90v16q0 59 -26 89.5t-106 30.5z" />
<glyph unicode=":" horiz-adv-x="198" d="M171 0h-142v152h142v-152zM171 386h-142v152h142v-152z" />
<glyph unicode=";" horiz-adv-x="263" d="M213 370h-143v168h143v-168zM124 -125h-123l69 277h165z" />
<glyph unicode="&#x3c;" horiz-adv-x="594" d="M535 124v-117l-486 208v102l486 208v-117l-342 -142z" />
<glyph unicode="=" horiz-adv-x="542" d="M507 294h-480v128h480v-128zM507 100h-481v129h481v-129z" />
<glyph unicode="&#x3e;" horiz-adv-x="505" d="M49 7v117l342 142l-342 142v117l486 -208v-102z" />
<glyph unicode="?" horiz-adv-x="475" d="M151 502h-127v183q106 44 203 44q53 0 93.5 -8.5t75 -29.5t53 -60.5t18.5 -97.5q0 -43 -27.5 -85.5t-60 -70.5t-60 -63t-27.5 -65v-66h-141v66q0 33 17 66.5t41.5 61l49.5 53.5t42 53t17 50q0 81 -83 81q-44 0 -84 -10v-102zM293 -4h-142v144h142v-144z" />
<glyph unicode="@" horiz-adv-x="807" d="M541 118l21 -124q-63 -31 -137 -31q-88 0 -158.5 21t-124.5 65.5t-83.5 120t-29.5 177.5q0 108 58.5 196.5t152.5 137t201 48.5q167 0 276 -93t109 -228q0 -277 -225 -277q-28 0 -60.5 14.5t-54.5 42.5q-59 -37 -103 -37q-67 0 -110.5 41t-43.5 108q0 88 57 155t162 67 q77 0 115 -34.5t38 -86.5q0 -10 -3 -25.5t-8 -33.5t-6 -23q-19 -83 25 -83q28 0 50.5 53t22.5 115q0 85 -69.5 140t-171.5 55q-116 0 -192 -75.5t-76 -176.5q0 -140 65 -196.5t189 -56.5q59 0 114 24zM400 264q32 3 54.5 32.5t24.5 64.5q-1 24 -11.5 38.5t-34.5 12.5 q-40 -4 -61.5 -30.5t-23.5 -64.5q-2 -25 12 -40t40 -13z" />
<glyph unicode="A" d="M276 110v-110h-271v110h68l189 499h-63v110h235l232 -609h68v-110h-271v110h48l-29 89h-226l-28 -89h48zM370 553l-78 -241h154z" />
<glyph unicode="B" horiz-adv-x="680" d="M409 0h-386v110h66v499h-66v110h376q79 0 127 -11.5t72 -40t31 -61t7 -89.5q0 -67 -36.5 -103.5t-85.5 -41.5q68 -4 105.5 -47.5t37.5 -108.5v-14q0 -53 -9 -87.5t-35 -62t-76 -40t-128 -12.5zM501 202v14q0 58 -19.5 80t-71.5 22h-170v-208h169q52 0 72 20.5t20 71.5z M240 420h159q47 0 64 21.5t17 75.5q0 49 -18 70.5t-63 21.5h-159v-189z" />
<glyph unicode="C" horiz-adv-x="594" d="M547 504h-127v99q-38 6 -60 6h-16q-92 0 -120.5 -34t-28.5 -121v-188q0 -87 28.5 -121t120.5 -34h16q68 0 166 35l29 -118q-97 -38 -195 -38h-16q-159 0 -232 62t-73 214v188q0 152 73 214t232 62h16q117 0 187 -43v-183z" />
<glyph unicode="D" horiz-adv-x="696" d="M377 0h-354v110h66v499h-66v110h354q92 0 148.5 -15.5t85 -52.5t37.5 -81.5t9 -119.5v-181q0 -79 -11 -127.5t-42.5 -82t-85.5 -46.5t-141 -13zM501 269v181q0 87 -28 123t-120 36h-113v-499h113q92 0 120 36t28 123z" />
<glyph unicode="E" horiz-adv-x="593" d="M570 536h-127v73h-203v-183h194v-111h-194v-205h203v73h127v-183h-547v110h66v499h-66v110h547v-183z" />
<glyph unicode="F" horiz-adv-x="577" d="M568 536h-127v73h-201v-197h198v-111h-198v-191h67v-110h-284v110h67v499h-67v110h545v-183z" />
<glyph unicode="G" horiz-adv-x="633" d="M589 496h-127v99q-56 14 -102 14h-16q-92 0 -120.5 -34t-28.5 -121v-188q0 -87 28.5 -121t120.5 -34h17q49 0 79 15v205h151v-280q-98 -61 -230 -61h-17q-159 0 -232 62t-73 214v188q0 152 73 214t232 62h16q69 0 118.5 -11.5t110.5 -38.5v-184z" />
<glyph unicode="H" horiz-adv-x="759" d="M736 110v-110h-283v110h66v202h-279v-202h66v-110h-283v110h66v499h-66v110h283v-110h-66v-186h279v186h-66v110h283v-110h-66v-499h66z" />
<glyph unicode="I" horiz-adv-x="329" d="M306 110v-110h-283v110h66v499h-66v110h283v-110h-66v-499h66z" />
<glyph unicode="J" horiz-adv-x="300" d="M291 719v-110h-66v-611q0 -119 -39 -172.5t-128 -53.5q-70 0 -145 33l42 104q64 -18 84 -18q21 0 28 23t7 86v609h-66v110h283z" />
<glyph unicode="K" horiz-adv-x="672" d="M306 110v-110h-283v110h66v499h-66v110h283v-110h-66v-213l227 323h183v-110h-86l-175 -234l192 -265h86v-110h-183l-244 353v-243h66z" />
<glyph unicode="L" horiz-adv-x="556" d="M307 719v-110h-66v-499h179v73h127v-183h-524v110h67v499h-67v110h284z" />
<glyph unicode="M" horiz-adv-x="1073" d="M344 719l192 -547l192 547h217v-110h-64l118 -499h69v-110h-276v110h56l-72 367l-168 -487h-144l-173 487l-69 -367h59v-110h-276v110h68l118 499h-64v110h217z" />
<glyph unicode="N" d="M664 0h-151l-273 481v-371h66v-110h-283v110h66v499h-66v110h217l273 -489v379h-66v110h283v-110h-66v-609z" />
<glyph unicode="O" horiz-adv-x="684" d="M348 -10h-12q-155 0 -226 62t-71 214v187q0 153 70.5 215t226.5 62h12q155 0 226 -62t71 -215v-187q0 -152 -71 -214t-226 -62zM489 266v187q0 88 -27.5 123.5t-113.5 35.5h-12q-86 0 -113.5 -35.5t-27.5 -123.5v-187q0 -87 27.5 -122.5t113.5 -35.5h12q86 0 113.5 35.5 t27.5 122.5z" />
<glyph unicode="P" horiz-adv-x="643" d="M306 110v-110h-283v110h66v499h-66v110h333q145 0 208 -47.5t63 -184.5t-62.5 -184.5t-208.5 -47.5h-116v-145h66zM240 365h116q70 0 92 24t22 98t-22 98t-92 24h-116v-244z" />
<glyph unicode="Q" horiz-adv-x="684" d="M520 -68l26 -120q-74 -20 -114 -20q-86 0 -125 36.5t-39 135.5v30q-118 12 -173.5 75t-55.5 197v187q0 153 70.5 215t226.5 62h12q155 0 226 -62t71 -215v-187q0 -135 -56 -198t-175 -75v-37q0 -38 32 -38q15 0 74 14zM489 266v187q0 88 -27.5 123.5t-113.5 35.5h-12 q-86 0 -113.5 -35.5t-27.5 -123.5v-187q0 -87 27.5 -122.5t113.5 -35.5h12q86 0 113.5 35.5t27.5 122.5z" />
<glyph unicode="R" horiz-adv-x="663" d="M654 110v-110h-184l-118 255h-112v-145h66v-110h-283v110h66v499h-66v110h333q145 0 208 -47.5t63 -184.5q0 -97 -31 -147.5t-96 -69.5l78 -160h76zM240 365h116q70 0 92 24t22 98t-22 98t-92 24h-116v-244z" />
<glyph unicode="S" horiz-adv-x="556" d="M507 501h-127v102q-38 14 -69 14q-130 0 -130 -83q0 -30 26 -53t65.5 -36.5t85 -33t85 -42t65.5 -65.5t26 -100q0 -58 -22.5 -101t-62 -67t-86 -35t-101.5 -11q-74 0 -119.5 8t-117.5 29h-1v183h127v-91q60 -16 96 -16q137 0 137 95q0 30 -26 52.5t-65.5 35.5t-85 32.5 t-85 42t-65.5 65.5t-26 101q0 203 264 203q110 0 212 -45v-184z" />
<glyph unicode="T" horiz-adv-x="607" d="M597 536h-127v73h-91v-499h66v-110h-283v110h66v499h-91v-73h-127v183h587v-183z" />
<glyph unicode="U" horiz-adv-x="706" d="M700 719v-110h-65v-339q0 -155 -65.5 -218t-212.5 -63h-8q-147 0 -212 63t-65 218v339h-66v110h283v-110h-66v-340q0 -84 24.5 -117.5t101.5 -33.5h8q78 0 102 33.5t24 117.5v340h-65v110h282z" />
<glyph unicode="V" horiz-adv-x="696" d="M288 719v-110h-61l121 -427l121 427h-61v110h283v-110h-67l-212 -619h-129l-212 619h-66v110h283z" />
<glyph unicode="W" horiz-adv-x="1048" d="M272 719v-110h-54l100 -405l142 518h124l145 -518l99 405h-52v110h267v-110h-62l-199 -611h-123l-136 481l-136 -481h-123l-199 611h-60v110h267z" />
<glyph unicode="X" horiz-adv-x="664" d="M280 110v-110h-275v110h75l159 251l-158 248h-74v110h275v-110h-41l90 -156l91 156h-41v110h275v-110h-75l-158 -248l160 -251h76v-110h-275v110h37l-90 155l-91 -155h40z" />
<glyph unicode="Y" horiz-adv-x="661" d="M655 719v-110h-68l-181 -338v-161h66v-110h-283v110h66v161l-182 338h-67v110h283v-110h-59l101 -222l101 222h-59v110h282z" />
<glyph unicode="Z" horiz-adv-x="583" d="M170 536h-126v183h506v-110l-350 -499h233v73h127v-183h-537v110l350 499h-203v-73z" />
<glyph unicode="[" horiz-adv-x="288" d="M257 -141h-216v875h216v-120h-74v-635h74v-120z" />
<glyph unicode="\" horiz-adv-x="477" d="M475 -17h-142l-329 764h142z" />
<glyph unicode="]" horiz-adv-x="288" d="M247 -141h-216v120h74v635h-74v120h216v-875z" />
<glyph unicode="^" horiz-adv-x="547" d="M276 679l258 -300h-172l-86 114l-87 -114h-171z" />
<glyph unicode="_" horiz-adv-x="615" d="M572 -63h-529v132h529v-132z" />
<glyph unicode="`" horiz-adv-x="335" d="M189 589l-191 182l175 23l143 -190z" />
<glyph unicode="a" horiz-adv-x="521" d="M513 110v-110h-199v46q-91 -53 -144 -55q-15 -1 -43 3q-34 7 -56.5 22.5t-32.5 39t-13 45.5t-3 54t3 54t13 45.5t32.5 39t56.5 22.5q68 12 187 -36v59q0 89 -72 89q-34 0 -61 -7v-62h-119v151q100 28 188 28q207 0 207 -200v-228h56zM220 238q-55 0 -55 -83q0 -82 55 -82 q22 0 94 34v106q-71 25 -94 25z" />
<glyph unicode="b" horiz-adv-x="541" d="M214 745v-285q109 78 163 78q33 0 56.5 -11t36 -27t19 -44.5t8 -52t1.5 -60.5v-158q0 -37 -1.5 -60.5t-8 -52t-19 -44.5t-36 -27t-56.5 -11q-53 0 -163 55v-45h-197v110h54v525h-54v110h197zM355 351q0 26 -1.5 40t-10 25t-24.5 11q-36 0 -105 -47v-262q66 -25 105 -25 q23 0 29.5 20t6.5 64v174z" />
<glyph unicode="c" horiz-adv-x="480" d="M433 354h-119v70q-22 2 -35 2q-46 0 -69.5 -24t-23.5 -65v-146q0 -41 23.5 -65t69.5 -24q66 0 147 15l17 -102q-100 -25 -164 -25q-236 0 -236 218v112q0 218 236 218q67 0 154 -33v-151z" />
<glyph unicode="d" horiz-adv-x="542" d="M524 110v-110h-197v45q-110 -55 -163 -55q-33 0 -56.5 11t-36 27t-19 44.5t-8 52t-1.5 60.5v158q0 37 1.5 60.5t8 52t19 44.5t36 27t56.5 11q54 0 163 -78v175h-54v110h197v-635h54zM186 177q0 -29 1.5 -44.5t10 -27.5t24.5 -12q36 0 105 25v262q-22 15 -55 31t-50 16 q-23 0 -29.5 -18t-6.5 -58v-174z" />
<glyph unicode="e" horiz-adv-x="501" d="M448 128l25 -101q-105 -37 -194 -37q-122 0 -179 54t-57 164v124q0 68 11.5 108.5t42 62.5t70.5 28.5t110 6.5q109 0 148.5 -39.5t39.5 -109.5v-71q0 -49 -60 -77t-219 -31v-19q0 -40 23.5 -64.5t69.5 -24.5q85 0 169 26zM330 331v47q0 57 -37 57q-50 0 -78.5 -13 t-28.5 -50v-93q144 12 144 52z" />
<glyph unicode="f" horiz-adv-x="335" d="M283 110v-110h-266v110h57v308h-57v110h57v33q0 118 56 161.5t172 22.5q29 -4 70 -20l-30 -93q-58 15 -76 15q-30 0 -39.5 -22.5t-9.5 -63.5v-33h90v-110h-90v-308h66z" />
<glyph unicode="g" horiz-adv-x="511" d="M43 343q0 37 1.5 60.5t8 52t19 44.5t36 27t56.5 11q54 0 163 -78v68h143v-607q0 -149 -159 -149q-63 0 -265 53l29 102q170 -43 204 -43q33 0 40.5 16t7.5 69v76q-110 -55 -163 -55q-33 0 -56.5 11t-36 27t-19 44.5t-8 52t-1.5 60.5v158zM186 177q0 -29 1.5 -44.5 t10 -27.5t24.5 -12q36 0 105 25v262q-22 15 -55 31t-50 16q-23 0 -29.5 -18t-6.5 -58v-174z" />
<glyph unicode="h" horiz-adv-x="567" d="M271 110v-110h-254v110h56v525h-54v110h197v-285q2 1 17.5 11.5l20 13.5l19.5 12.5t22.5 13t21 10.5t22.5 9.5t20 5t21 2.5q33 0 56.5 -11t36 -27t19 -44.5t8 -52t1.5 -60.5v-233h58v-110h-201v343q0 44 -6.5 64t-30.5 20q-31 0 -105 -48v-269h55z" />
<glyph unicode="i" horiz-adv-x="279" d="M271 110v-110h-254v110h57v308h-55v110h198v-418h54zM217 592h-143v153h143v-153z" />
<glyph unicode="j" horiz-adv-x="255" d="M72 -27v446h-54v109h197v-555q0 -115 -35 -158t-115 -43q-60 0 -145 32l35 108q59 -18 86 -18q17 0 24 18t7 61zM214 592h-144v153h144v-153z" />
<glyph unicode="k" horiz-adv-x="540" d="M271 110v-110h-254v110h61v525h-55v110h197v-451l160 234h142v-110h-58l-104 -135l113 -173h58v-110h-150l-161 269v-159h51z" />
<glyph unicode="l" horiz-adv-x="281" d="M273 110v-110h-254v110h53v525h-54v110h198v-635h57z" />
<glyph unicode="m" horiz-adv-x="809" d="M801 110v-110h-199v343q0 29 -1.5 44.5t-10 27.5t-24.5 12q-21 0 -86 -47q1 -12 1 -37v-233h56v-110h-199v343q0 29 -1.5 44.5t-10 27.5t-24.5 12q-23 0 -86 -48v-269h55v-110h-254v110h57v308h-57v110h199v-68q3 2 15.5 11.5l18 13.5l17.5 12.5t19 13t18.5 10.5t19.5 9 t18 5.5t18 2.5q89 0 111 -80q104 80 153 80q33 0 56.5 -11t36 -27t19 -44.5t8 -52t1.5 -60.5v-233h56z" />
<glyph unicode="n" horiz-adv-x="565" d="M557 110v-110h-199v343q0 44 -6.5 64t-30.5 20q-31 0 -105 -48v-269h55v-110h-254v110h56v308h-54v110h197v-68q2 1 17.5 11.5l20 13.5l19.5 12.5t22.5 13t21 10.5t22.5 9.5t20 5t21 2.5q33 0 56.5 -11t36 -27t19 -44.5t8 -52t1.5 -60.5v-233h56z" />
<glyph unicode="o" horiz-adv-x="524" d="M481 383v-238q0 -83 -52.5 -119t-166.5 -36t-166.5 36t-52.5 119v238q0 83 52.5 119t166.5 36t166.5 -36t52.5 -119zM339 146v236q0 27 -17 40t-60 13q-42 0 -59.5 -13t-17.5 -40v-236q0 -53 77 -53t77 53z" />
<glyph unicode="p" horiz-adv-x="539" d="M496 343v-158q0 -37 -1.5 -60.5t-8 -52t-19 -44.5t-36 -27t-56.5 -11q-53 0 -163 55v-152h85v-110h-284v110h56v525h-54v110h197v-68q109 78 163 78q33 0 56.5 -11t36 -27t19 -44.5t8 -52t1.5 -60.5zM353 177v174q0 40 -6.5 58t-30.5 18q-17 0 -50.5 -16.5t-53.5 -30.5 v-254q69 -33 104 -33q24 0 30.5 20t6.5 64z" />
<glyph unicode="q" horiz-adv-x="525" d="M43 343q0 37 1.5 60.5t8 52t19 44.5t36 27t56.5 11q54 0 163 -78v68h143v-635h54v-110h-285v110h88v152q-110 -55 -163 -55q-33 0 -56.5 11t-36 27t-19 44.5t-8 52t-1.5 60.5v158zM186 177q0 -29 1.5 -44.5t10 -27.5t24.5 -12q32 0 105 33v254q-22 15 -55 31t-50 16 q-23 0 -29.5 -18t-6.5 -58v-174z" />
<glyph unicode="r" horiz-adv-x="452" d="M216 527v-75q2 2 13 11.5t15.5 13t15 12.5t16 13l15.5 11t17 10.5l15.5 7.5t16 5.5t14.5 1.5q54 0 70.5 -30.5t16.5 -118.5v-36h-119v36q-2 38 -26 38q-20 0 -80 -56v-261h55v-110h-254v110h56v307h-54v110h197z" />
<glyph unicode="s" horiz-adv-x="469" d="M426 359h-119v66q-36 9 -62 9q-79 0 -79 -50q0 -26 29 -40t70 -22t82 -20.5t70 -47t29 -90.5q0 -45 -13 -77.5t-33 -50.5t-51.5 -29t-60.5 -14t-68 -3q-93 0 -199 33v151h119v-72q38 -8 72 -8q92 0 92 54q0 26 -29 39t-70 21t-82 20.5t-70 47.5t-29 92q0 45 15 78t36 50 t52.5 27t55.5 12.5t53 2.5q82 0 190 -28v-151z" />
<glyph unicode="t" horiz-adv-x="350" d="M318 128l32 -107q-96 -31 -141 -31q-65 0 -103 34.5t-38 108.5v282h-60v113h60v116h143v-116h110v-113h-110v-279q0 -28 28 -28q17 0 79 20z" />
<glyph unicode="u" horiz-adv-x="560" d="M62 418h-54v110h197v-351q0 -44 6.5 -64t30.5 -20q40 0 105 26v299h-54v110h197v-418h54v-110h-197v46q-112 -56 -164 -56q-33 0 -56.5 11t-36 27t-19 44.5t-8 52t-1.5 60.5v233z" />
<glyph unicode="v" horiz-adv-x="557" d="M249 528v-110h-32l61 -257l62 257h-30v110h230v-110h-57l-143 -420h-129l-137 420h-55v110h230z" />
<glyph unicode="w" horiz-adv-x="800" d="M247 528v-110h-47l50 -254l82 366h132l90 -367l43 255h-44v110h238v-110h-57l-125 -420h-131l-80 348l-82 -348h-132l-125 420h-50v110h238z" />
<glyph unicode="x" horiz-adv-x="520" d="M181 528l81 -193l71 193h157v-110h-48l-74 -155l82 -153h56v-110h-163l-81 193l-83 -193h-163v110h56l85 152l-78 156h-63v110h165z" />
<glyph unicode="y" horiz-adv-x="532" d="M62 418h-54v110h197v-351q0 -44 6.5 -64t30.5 -20q40 0 105 26v299h-54v110h197v-607q0 -149 -159 -149q-63 0 -265 53l29 102q170 -43 204 -43q33 0 40.5 16t7.5 69v77q-112 -56 -164 -56q-33 0 -56.5 11t-36 27t-19 44.5t-8 52t-1.5 60.5v233z" />
<glyph unicode="z" horiz-adv-x="452" d="M140 366h-118v162h395v-110l-246 -308h144v53h119v-163h-418v110l254 308h-130v-52z" />
<glyph unicode="{" horiz-adv-x="354" d="M321 734v-98q-71 0 -71 -66q0 -17 3 -60t3 -67q0 -94 -63 -151q63 -58 63 -151q0 -24 -3 -67t-3 -60q0 -66 71 -66v-98q-100 0 -148.5 24.5t-62.5 96.5q-4 25 -4 52.5t2 62t2 55.5q0 98 -79 98v106q79 0 79 98q0 21 -2 55.5t-2 62t4 52.5q14 72 62.5 96.5t148.5 24.5z " />
<glyph unicode="|" horiz-adv-x="217" d="M179 -175h-136v939h136v-939z" />
<glyph unicode="}" horiz-adv-x="354" d="M31 636v98q100 0 148.5 -24.5t62.5 -96.5q4 -25 4.5 -52t-1.5 -62.5t-2 -55.5q0 -98 78 -98v-106q-78 0 -78 -98q0 -20 2 -55.5t1.5 -62.5t-4.5 -52q-14 -72 -62.5 -96.5t-148.5 -24.5v98q71 0 71 66q0 17 -2.5 60t-2.5 67q0 94 62 151q-62 56 -62 151q0 24 2.5 67 t2.5 60q0 66 -71 66z" />
<glyph unicode="~" horiz-adv-x="562" d="M424 355l108 -50q-23 -70 -69 -106t-99 -36q-40 0 -95 27t-76 27q-22 0 -53 -54l-112 51q26 59 63 94t79 44q45 9 108 -20.5t93 -29.5q13 0 24.5 12t28.5 41z" />
<glyph unicode="&#xa1;" horiz-adv-x="218" d="M182 365h-142v169h142v-169zM182 -218h-142v522h142v-522z" />
<glyph unicode="&#xa2;" horiz-adv-x="411" d="M303 -102h-135v97q-78 13 -113.5 64t-35.5 142v126q0 84 38 137t111 69v104h135v-102q43 -6 89 -20l-25 -123q-70 20 -111 20q-94 0 -94 -110v-76q0 -111 93 -111q33 0 112 21l25 -123q-55 -16 -89 -20v-95z" />
<glyph unicode="&#xa3;" horiz-adv-x="542" d="M398 297h-102q2 -24 2 -37q0 -50 -15 -80.5t-63 -51.5h331v-128h-527v129q118 46 118 130q0 17 -3 38h-95v120h76q-3 32 -3 69v44q0 204 264 204q45 0 167 -24l-24 -121q-128 15 -156 15q-102 2 -102 -74v-44q0 -39 6 -69h126v-120z" />
<glyph unicode="&#xa4;" horiz-adv-x="655" d="M510 16l-58 53q-54 -29 -126 -29q-64 0 -124 30l-57 -53l-111 101l60 55q-30 54 -30 110q0 58 30 110q-52 47 -61 56l64 57l47 43l60 -54q58 30 123 30q68 0 125 -29q8 8 56 52l113 -102l-59 -53q27 -52 27 -109q0 -51 -30 -111l62 -55zM326 166q55 0 93 34.5t38 83.5 q0 47 -38 81t-92 34q-53 0 -91.5 -34t-38.5 -82q0 -47 38.5 -82t90.5 -35z" />
<glyph unicode="&#xa5;" horiz-adv-x="643" d="M397 0h-151v88h-159v113h159v52h-158v112h114l-197 356h167l149 -301l149 301h168l-198 -356h116v-112h-159v-52h159v-113h-159v-88z" />
<glyph unicode="&#xa6;" horiz-adv-x="217" d="M179 -175h-136v406h136v-406zM179 319h-136v400h136v-400z" />
<glyph unicode="&#xa7;" horiz-adv-x="418" d="M9 -18l26 109q84 -28 158 -28q69 0 69 45q0 21 -24.5 33.5t-60 22t-71 24.5t-60 51.5t-24.5 92.5q0 77 41 118q-41 39 -41 113q0 167 199 167q74 0 161 -23l-24 -109q-59 18 -128 18q-67 0 -67 -37q0 -22 25 -35t60.5 -23t70.5 -24.5t60 -50.5t25 -91q0 -75 -44 -119 q44 -41 44 -112q0 -90 -58 -131.5t-145 -41.5q-40 0 -73 4t-51.5 8.5t-67.5 18.5zM163 348q0 -19 16 -30t47 -21q36 9 36 42q0 28 -54 45q-45 -5 -45 -36z" />
<glyph unicode="&#xa8;" horiz-adv-x="427" d="M185 590h-141v168h141v-168zM382 590h-142v168h142v-168z" />
<glyph unicode="&#xa9;" horiz-adv-x="806" d="M781 350q0 -88 -32 -159t-86 -115t-121 -67.5t-139 -23.5t-139 23.5t-121 67.5t-86 115t-32 159q0 71 21 131t57.5 102.5t85 72t103 44t111.5 14.5t111.5 -14.5t103 -44t85 -72t57.5 -102.5t21 -131zM690 350q0 136 -85.5 212.5t-201.5 76.5q-75 0 -138.5 -31t-106 -98.5 t-42.5 -159.5q0 -70 24.5 -126.5t65.5 -91.5t91.5 -53.5t105.5 -18.5t105.5 18.5t91.5 53.5t65.5 91.5t24.5 126.5zM544 421h-90v53q-18 2 -27 2q-35 0 -52.5 -18.5t-17.5 -49.5v-110q0 -31 17.5 -49.5t52.5 -18.5q54 0 112 12l12 -78q-76 -19 -124 -19q-178 0 -178 166v85 q0 165 178 165q48 0 117 -25v-115z" />
<glyph unicode="&#xaa;" horiz-adv-x="389" d="M369 414v-81h-146v34q-63 -39 -105 -41q-17 0 -32 3q-47 9 -62 39t-15 79q0 23 2.5 39.5t9.5 33.5t23.5 28.5t41.5 16.5q51 8 137 -26v43q0 65 -52 65q-27 0 -45 -5v-45h-88v111q74 20 138 20q152 0 152 -147v-167h41zM154 508q-40 0 -40 -61q0 -60 40 -60q17 0 69 25v77 q-53 19 -69 19z" />
<glyph unicode="&#xab;" horiz-adv-x="598" d="M237 31l-215 239l215 239l95 -83l-133 -156l133 -156zM481 31l-215 239l215 239l95 -83l-133 -156l133 -156z" />
<glyph unicode="&#xac;" horiz-adv-x="578" d="M535 117h-133v170h-396v129h529v-299z" />
<glyph unicode="&#xad;" horiz-adv-x="370" d="M328 237h-286v118h286v-118z" />
<glyph unicode="&#xae;" horiz-adv-x="806" d="M781 350q0 -88 -32 -159t-86 -115t-121 -67.5t-139 -23.5t-139 23.5t-121 67.5t-86 115t-32 159q0 71 21 131t57.5 102.5t85 72t103 44t111.5 14.5t111.5 -14.5t103 -44t85 -72t57.5 -102.5t21 -131zM690 350q0 136 -85.5 212.5t-201.5 76.5q-75 0 -138.5 -31t-106 -98.5 t-42.5 -159.5q0 -70 24.5 -126.5t65.5 -91.5t91.5 -53.5t105.5 -18.5t105.5 18.5t91.5 53.5t65.5 91.5t24.5 126.5zM603 236v-83h-130l-55 124h-38v-124h-151v83h42v234h-42v83h197q87 0 123 -28.5t36 -110.5q0 -98 -60 -123l29 -55h49zM380 360h46q27 0 36.5 13t9.5 41 q0 30 -9.5 43t-36.5 13h-46v-110z" />
<glyph unicode="&#xaf;" horiz-adv-x="390" d="M348 591h-305v106h305v-106z" />
<glyph unicode="&#xb0;" horiz-adv-x="306" d="M280 699q0 -49 -36 -83t-94 -34t-94 34t-36 83q0 48 36 82.5t94 34.5t94 -34.5t36 -82.5zM191 699q0 15 -10.5 26.5t-30.5 11.5t-30.5 -11.5t-10.5 -26.5t10.5 -27t30.5 -12t30.5 12t10.5 27z" />
<glyph unicode="&#xb1;" horiz-adv-x="552" d="M342 115h-136v181h-198v130h198v180h136v-180h194v-130h-194v-181zM538 -55h-529v132h529v-132z" />
<glyph unicode="&#xb2;" horiz-adv-x="523" d="M170 763h-121v162q97 44 197 44q114 0 174 -41.5t60 -141.5q0 -30 -16 -60.5t-35 -53t-61.5 -55.5t-67 -49.5l-80.5 -53.5h147v47h120v-161h-448v114q151 109 221 172t70 103q0 42 -18.5 55.5t-65.5 13.5q-41 0 -76 -13v-82z" />
<glyph unicode="&#xb3;" horiz-adv-x="518" d="M168 769h-121v162q90 38 184 38q122 0 181.5 -36.5t59.5 -126.5v-21q0 -36 -13 -57.5t-57 -35.5q44 -9 62.5 -39t18.5 -68v-32q0 -161 -249 -161q-65 0 -195 18v162h120v-63q52 -4 75 -4q104 0 104 48v32q0 49 -76 49h-64v107h54q34 0 56 11t22 33v21q0 26 -20 38.5 t-85 12.5q-22 0 -57 -6v-82z" />
<glyph unicode="&#xb4;" horiz-adv-x="325" d="M221 590h-136l131 231h178z" />
<glyph unicode="&#xb5;" horiz-adv-x="560" d="M205 -230h-143v648h-54v110h197v-351q0 -44 6.5 -64t30.5 -20q40 0 105 26v299h-54v110h197v-418h54v-110h-197v46q-94 -47 -142 -54v-222z" />
<glyph unicode="&#xb6;" horiz-adv-x="626" d="M591 8v-110h-191v711h-60v-711h-191v110h61v293q-89 10 -142 66t-53 141q0 94 64 152.5t169 58.5h283v-711h60z" />
<glyph unicode="&#xb7;" horiz-adv-x="300" d="M214 186h-142v169h142v-169z" />
<glyph unicode="&#xb8;" horiz-adv-x="324" d="M89 -77l55 104h64l-39 -65q42 -2 77.5 -24t35.5 -59q0 -39 -27 -64t-68 -33t-85.5 -5.5t-83.5 14.5l28 53q15 -5 36 -7.5t43 -1.5t37.5 12t15.5 30t-13.5 29.5t-29.5 13t-38 3.5h-8z" />
<glyph unicode="&#xb9;" horiz-adv-x="280" d="M251 505v-105h-213v105h35v333h-34v123h179v-456h33z" />
<glyph unicode="&#xba;" horiz-adv-x="306" d="M280 699q0 -49 -36 -83t-94 -34t-94 34t-36 83q0 48 36 82.5t94 34.5t94 -34.5t36 -82.5zM191 699q0 15 -10.5 26.5t-30.5 11.5t-30.5 -11.5t-10.5 -26.5t10.5 -27t30.5 -12t30.5 12t10.5 27z" />
<glyph unicode="&#xbb;" horiz-adv-x="598" d="M332 270l-215 -239l-95 83l134 156l-134 156l95 83zM576 270l-215 -239l-95 83l134 156l-134 156l95 83z" />
<glyph unicode="&#xbc;" horiz-adv-x="1186" d="M1101 105v-105h-213v105h38v27h-263v106l260 323h173l-268 -323h98v107h138v-107h67v-106h-67v-27h37zM734 730l-322 -740h-153l321 740h154zM237 264v-105h-213v105h35v333h-34v123h179v-456h33z" />
<glyph unicode="&#xbd;" horiz-adv-x="1186" d="M849 363h-121v162q97 44 197 44q114 0 174 -41.5t60 -141.5q0 -30 -16 -60.5t-35 -53t-61.5 -55.5t-67 -49.5l-80.5 -53.5h147v47h120v-161h-448v114q151 109 221 172t70 103q0 42 -18.5 55.5t-65.5 13.5q-41 0 -76 -13v-82zM734 730l-319 -740h-153l318 740h154z M237 264v-105h-213v105h35v333h-34v123h179v-456h33z" />
<glyph unicode="&#xbe;" horiz-adv-x="1351" d="M149 528h-121v162q90 38 184 38q122 0 181.5 -36.5t59.5 -126.5v-21q0 -36 -13 -57.5t-57 -35.5q44 -9 62.5 -39t18.5 -68v-32q0 -161 -249 -161q-65 0 -195 18v162h120v-63q52 -4 75 -4q104 0 104 48v32q0 49 -76 49h-64v107h54q34 0 56 11t22 33v21q0 26 -20 38.5 t-85 12.5q-22 0 -57 -6v-82zM1282 105v-105h-213v105h38v27h-263v106l260 323h173l-268 -323h98v107h138v-107h67v-106h-67v-27h37zM924 730l-323 -740h-153l322 740h154z" />
<glyph unicode="&#xbf;" horiz-adv-x="466" d="M258 22h127v-183q-106 -44 -203 -44q-53 0 -93.5 8.5t-75 29.5t-53 60.5t-18.5 97.5q0 43 27.5 85.5t60 70.5t60 63t27.5 65v66h141v-66q0 -33 -17 -66.5t-42 -61l-49.5 -53.5t-41.5 -53t-17 -50q0 -81 83 -81q44 0 84 10v102zM116 528h142v-144h-142v144z" />
<glyph unicode="&#xc0;" d="M276 110v-110h-271v110h68l189 499h-63v110h235l232 -609h68v-110h-271v110h48l-29 89h-226l-28 -89h48zM304 769l-191 182l175 23l143 -190zM370 553l-78 -241h154z" />
<glyph unicode="&#xc1;" d="M276 110v-110h-271v110h68l189 499h-63v110h235l232 -609h68v-110h-271v110h48l-29 89h-226l-28 -89h48zM435 770h-136l131 231h178zM370 553l-78 -241h154z" />
<glyph unicode="&#xc2;" d="M276 110v-110h-271v110h68l189 499h-63v110h235l232 -609h68v-110h-271v110h48l-29 89h-226l-28 -89h48zM515 760l-145 63l-145 -63l-36 44l181 163l181 -163zM370 553l-78 -241h154z" />
<glyph unicode="&#xc3;" d="M276 110v-110h-271v110h68l189 499h-63v110h235l232 -609h68v-110h-271v110h48l-29 89h-226l-28 -89h48zM263 762l-79 37q26 80 97 99q39 10 81.5 -11.5t72.5 -19.5q21 0 44 37l79 -30q-14 -43 -41 -71t-57 -36q-38 -9 -80.5 12t-74.5 19q-20 0 -42 -36zM370 553 l-78 -241h154z" />
<glyph unicode="&#xc4;" d="M276 110v-110h-271v110h68l189 499h-63v110h235l232 -609h68v-110h-271v110h48l-29 89h-226l-28 -89h48zM538 770h-142v168h142v-168zM341 770h-141v168h141v-168zM370 553l-78 -241h154z" />
<glyph unicode="&#xc5;" d="M276 110v-110h-271v110h68l189 499h-63v110h235l232 -609h68v-110h-271v110h48l-29 89h-226l-28 -89h48zM500 879q0 -49 -36 -83t-94 -34t-94 34t-36 83q0 48 36 82.5t94 34.5t94 -34.5t36 -82.5zM370 553l-78 -241h154zM411 879q0 15 -10.5 26.5t-30.5 11.5t-30.5 -11.5 t-10.5 -26.5t10.5 -27t30.5 -12t30.5 12t10.5 27z" />
<glyph unicode="&#xc6;" horiz-adv-x="1095" d="M1072 0h-547v110h66v89h-308v1l-57 -90h50v-110h-271v110h63l336 499h-55v110h723v-183h-127v73h-203v-183h194v-111h-194v-205h203v73h127v-183zM591 609h-51l-187 -297h238v297z" />
<glyph unicode="&#xc7;" horiz-adv-x="594" d="M547 504h-127v99q-38 6 -60 6h-16q-92 0 -120.5 -34t-28.5 -121v-188q0 -87 28.5 -121t120.5 -34h16q68 0 166 35l29 -118q-87 -35 -182 -38l-18 -31q42 -2 77.5 -24t35.5 -59q0 -39 -27 -64t-68 -33t-85.5 -5.5t-83.5 14.5l28 53q15 -5 36 -7.5t43 -1.5t37.5 12t15.5 30 t-13.5 29.5t-29.5 13t-38 3.5h-8l37 71q-142 5 -207.5 68t-65.5 207v188q0 152 73 214t232 62h16q117 0 187 -43v-183z" />
<glyph unicode="&#xc8;" horiz-adv-x="593" d="M570 536h-127v73h-203v-183h194v-111h-194v-205h203v73h127v-183h-547v110h66v499h-66v110h547v-183zM271 769l-191 182l175 23l143 -190z" />
<glyph unicode="&#xc9;" horiz-adv-x="593" d="M570 536h-127v73h-203v-183h194v-111h-194v-205h203v73h127v-183h-547v110h66v499h-66v110h547v-183zM403 770h-136l131 231h178z" />
<glyph unicode="&#xca;" horiz-adv-x="593" d="M570 536h-127v73h-203v-183h194v-111h-194v-205h203v73h127v-183h-547v110h66v499h-66v110h547v-183zM482 760l-145 63l-145 -63l-36 44l181 163l181 -163z" />
<glyph unicode="&#xcb;" horiz-adv-x="593" d="M570 536h-127v73h-203v-183h194v-111h-194v-205h203v73h127v-183h-547v110h66v499h-66v110h547v-183zM506 770h-142v168h142v-168zM309 770h-141v168h141v-168z" />
<glyph unicode="&#xcc;" horiz-adv-x="329" d="M306 110v-110h-283v110h66v499h-66v110h283v-110h-66v-499h66zM97 769l-191 182l175 23l143 -190z" />
<glyph unicode="&#xcd;" horiz-adv-x="329" d="M306 110v-110h-283v110h66v499h-66v110h283v-110h-66v-499h66zM229 770h-136l131 231h178z" />
<glyph unicode="&#xce;" horiz-adv-x="329" d="M306 110v-110h-283v110h66v499h-66v110h283v-110h-66v-499h66zM309 760l-145 63l-145 -63l-36 44l181 163l181 -163z" />
<glyph unicode="&#xcf;" horiz-adv-x="329" d="M306 110v-110h-283v110h66v499h-66v110h283v-110h-66v-499h66zM135 770h-141v168h141v-168zM332 770h-142v168h142v-168z" />
<glyph unicode="&#xd0;" horiz-adv-x="685" d="M377 0h-354v110h66v182h-61v135h61v182h-66v110h354q92 0 148.5 -15.5t85 -52.5t37.5 -81.5t9 -119.5v-181q0 -79 -11 -127.5t-42.5 -82t-85.5 -46.5t-141 -13zM501 269v181q0 87 -28 123t-120 36h-113v-182h103v-135h-103v-182h113q92 0 120 36t28 123z" />
<glyph unicode="&#xd1;" d="M664 0h-151l-273 481v-371h66v-110h-283v110h66v499h-66v110h217l273 -489v379h-66v110h283v-110h-66v-609zM264 762l-79 37q26 80 97 99q39 10 81.5 -11.5t72.5 -19.5q21 0 44 37l79 -30q-14 -43 -41 -71t-57 -36q-38 -9 -80.5 12t-74.5 19q-20 0 -42 -36z" />
<glyph unicode="&#xd2;" horiz-adv-x="684" d="M348 -10h-12q-155 0 -226 62t-71 214v187q0 153 70.5 215t226.5 62h12q155 0 226 -62t71 -215v-187q0 -152 -71 -214t-226 -62zM489 266v187q0 88 -27.5 123.5t-113.5 35.5h-12q-86 0 -113.5 -35.5t-27.5 -123.5v-187q0 -87 27.5 -122.5t113.5 -35.5h12q86 0 113.5 35.5 t27.5 122.5zM276 769l-191 182l175 23l143 -190z" />
<glyph unicode="&#xd3;" horiz-adv-x="684" d="M348 -10h-12q-155 0 -226 62t-71 214v187q0 153 70.5 215t226.5 62h12q155 0 226 -62t71 -215v-187q0 -152 -71 -214t-226 -62zM489 266v187q0 88 -27.5 123.5t-113.5 35.5h-12q-86 0 -113.5 -35.5t-27.5 -123.5v-187q0 -87 27.5 -122.5t113.5 -35.5h12q86 0 113.5 35.5 t27.5 122.5zM408 770h-136l131 231h178z" />
<glyph unicode="&#xd4;" horiz-adv-x="684" d="M348 -10h-12q-155 0 -226 62t-71 214v187q0 153 70.5 215t226.5 62h12q155 0 226 -62t71 -215v-187q0 -152 -71 -214t-226 -62zM489 266v187q0 88 -27.5 123.5t-113.5 35.5h-12q-86 0 -113.5 -35.5t-27.5 -123.5v-187q0 -87 27.5 -122.5t113.5 -35.5h12q86 0 113.5 35.5 t27.5 122.5zM487 760l-145 63l-145 -63l-36 44l181 163l181 -163z" />
<glyph unicode="&#xd5;" horiz-adv-x="684" d="M348 -10h-12q-155 0 -226 62t-71 214v187q0 153 70.5 215t226.5 62h12q155 0 226 -62t71 -215v-187q0 -152 -71 -214t-226 -62zM489 266v187q0 88 -27.5 123.5t-113.5 35.5h-12q-86 0 -113.5 -35.5t-27.5 -123.5v-187q0 -87 27.5 -122.5t113.5 -35.5h12q86 0 113.5 35.5 t27.5 122.5zM236 762l-79 37q26 80 97 99q39 10 81.5 -11.5t72.5 -19.5q21 0 44 37l79 -30q-14 -43 -41 -71t-57 -36q-38 -9 -80.5 12t-74.5 19q-20 0 -42 -36z" />
<glyph unicode="&#xd6;" horiz-adv-x="684" d="M348 -10h-12q-155 0 -226 62t-71 214v187q0 153 70.5 215t226.5 62h12q155 0 226 -62t71 -215v-187q0 -152 -71 -214t-226 -62zM489 266v187q0 88 -27.5 123.5t-113.5 35.5h-12q-86 0 -113.5 -35.5t-27.5 -123.5v-187q0 -87 27.5 -122.5t113.5 -35.5h12q86 0 113.5 35.5 t27.5 122.5zM314 770h-141v168h141v-168zM511 770h-142v168h142v-168z" />
<glyph unicode="&#xd7;" horiz-adv-x="603" d="M474 21l-174 159l-176 -160l-93 87l175 158l-174 161l93 87l175 -161l178 160l94 -86l-175 -160l175 -160z" />
<glyph unicode="&#xd8;" horiz-adv-x="742" d="M238 -37h-146l31 72q-94 61 -94 231v187q0 153 70.5 215t226.5 62h12q40 0 80 -5l13 29h146l-31 -72q89 -63 89 -229v-187q0 -152 -71 -214t-226 -62h-12q-29 0 -75 4zM185 266q0 -48 5 -73l179 417q-18 2 -31 2h-12q-86 0 -113.5 -35.5t-27.5 -123.5v-187zM479 266v187 q0 39 -4 63l-175 -407q8 -1 26 -1h12q86 0 113.5 35.5t27.5 122.5z" />
<glyph unicode="&#xd9;" horiz-adv-x="706" d="M700 719v-110h-65v-339q0 -155 -65.5 -218t-212.5 -63h-8q-147 0 -212 63t-65 218v339h-66v110h283v-110h-66v-340q0 -84 24.5 -117.5t101.5 -33.5h8q78 0 102 33.5t24 117.5v340h-65v110h282zM286 769l-191 182l175 23l143 -190z" />
<glyph unicode="&#xda;" horiz-adv-x="706" d="M700 719v-110h-65v-339q0 -155 -65.5 -218t-212.5 -63h-8q-147 0 -212 63t-65 218v339h-66v110h283v-110h-66v-340q0 -84 24.5 -117.5t101.5 -33.5h8q78 0 102 33.5t24 117.5v340h-65v110h282zM417 770h-136l131 231h178z" />
<glyph unicode="&#xdb;" horiz-adv-x="706" d="M700 719v-110h-65v-339q0 -155 -65.5 -218t-212.5 -63h-8q-147 0 -212 63t-65 218v339h-66v110h283v-110h-66v-340q0 -84 24.5 -117.5t101.5 -33.5h8q78 0 102 33.5t24 117.5v340h-65v110h282zM497 760l-145 63l-145 -63l-36 44l181 163l181 -163z" />
<glyph unicode="&#xdc;" horiz-adv-x="706" d="M700 719v-110h-65v-339q0 -155 -65.5 -218t-212.5 -63h-8q-147 0 -212 63t-65 218v339h-66v110h283v-110h-66v-340q0 -84 24.5 -117.5t101.5 -33.5h8q78 0 102 33.5t24 117.5v340h-65v110h282zM520 770h-142v168h142v-168zM323 770h-141v168h141v-168z" />
<glyph unicode="&#xdd;" horiz-adv-x="661" d="M655 719v-110h-68l-181 -338v-161h66v-110h-283v110h66v161l-182 338h-67v110h283v-110h-59l101 -222l101 222h-59v110h282zM396 770h-136l131 231h178z" />
<glyph unicode="&#xde;" horiz-adv-x="627" d="M299 110v-110h-283v110h66v499h-66v110h283v-110h-66v-50h113q60 0 99 -4t74.5 -15.5t55 -33.5t31 -58t11.5 -88q0 -53 -11.5 -89t-31 -57.5t-55.5 -33.5t-74.5 -15.5t-98.5 -3.5h-113v-51h66zM346 447h-113v-175h113q70 0 92 17t22 71q0 53 -22 70t-92 17z" />
<glyph unicode="&#xdf;" horiz-adv-x="666" d="M236 21l1 4v147h118v-71q34 -7 65 -7q93 0 93 52q0 18 -19.5 30t-49 18t-63.5 18t-63.5 28t-49 49.5t-19.5 80.5q0 168 143 168q17 0 33 11.5t16 37.5q0 60 -113 60q-70 0 -92 -22.5t-22 -57.5v-567h-197v110h56v457q0 92 72 141.5t179 49.5t182.5 -46.5t75.5 -124.5 q0 -155 -149 -155q-43 0 -43 -46q0 -19 19.5 -31.5t49 -19t64 -18.5t64 -27t49 -48t19.5 -80q0 -54 -18.5 -90t-53 -53t-70.5 -23t-85 -6q-58 0 -93 6t-99 25z" />
<glyph unicode="&#xe0;" horiz-adv-x="521" d="M513 110v-110h-199v46q-91 -53 -144 -55q-15 -1 -43 3q-34 7 -56.5 22.5t-32.5 39t-13 45.5t-3 54t3 54t13 45.5t32.5 39t56.5 22.5q68 12 187 -36v59q0 89 -72 89q-34 0 -61 -7v-62h-119v151q100 28 188 28q207 0 207 -200v-228h56zM220 238q-55 0 -55 -83q0 -82 55 -82 q22 0 94 34v106q-71 25 -94 25zM189 589l-191 182l175 23l143 -190z" />
<glyph unicode="&#xe1;" horiz-adv-x="521" d="M513 110v-110h-199v46q-91 -53 -144 -55q-15 -1 -43 3q-34 7 -56.5 22.5t-32.5 39t-13 45.5t-3 54t3 54t13 45.5t32.5 39t56.5 22.5q68 12 187 -36v59q0 89 -72 89q-34 0 -61 -7v-62h-119v151q100 28 188 28q207 0 207 -200v-228h56zM220 238q-55 0 -55 -83q0 -82 55 -82 q22 0 94 34v106q-71 25 -94 25zM321 590h-136l131 231h178z" />
<glyph unicode="&#xe2;" horiz-adv-x="521" d="M513 110v-110h-199v46q-91 -53 -144 -55q-15 -1 -43 3q-34 7 -56.5 22.5t-32.5 39t-13 45.5t-3 54t3 54t13 45.5t32.5 39t56.5 22.5q68 12 187 -36v59q0 89 -72 89q-34 0 -61 -7v-62h-119v151q100 28 188 28q207 0 207 -200v-228h56zM220 238q-55 0 -55 -83q0 -82 55 -82 q22 0 94 34v106q-71 25 -94 25zM400 580l-145 63l-145 -63l-36 44l181 163l181 -163z" />
<glyph unicode="&#xe3;" horiz-adv-x="521" d="M513 110v-110h-199v46q-91 -53 -144 -55q-15 -1 -43 3q-34 7 -56.5 22.5t-32.5 39t-13 45.5t-3 54t3 54t13 45.5t32.5 39t56.5 22.5q68 12 187 -36v59q0 89 -72 89q-34 0 -61 -7v-62h-119v151q100 28 188 28q207 0 207 -200v-228h56zM220 238q-55 0 -55 -83q0 -82 55 -82 q22 0 94 34v106q-71 25 -94 25zM149 582l-79 37q26 80 97 99q39 10 81.5 -11.5t72.5 -19.5q21 0 44 37l79 -30q-14 -43 -41 -71t-57 -36q-38 -9 -80.5 12t-74.5 19q-20 0 -42 -36z" />
<glyph unicode="&#xe4;" horiz-adv-x="521" d="M513 110v-110h-199v46q-91 -53 -144 -55q-15 -1 -43 3q-34 7 -56.5 22.5t-32.5 39t-13 45.5t-3 54t3 54t13 45.5t32.5 39t56.5 22.5q68 12 187 -36v59q0 89 -72 89q-34 0 -61 -7v-62h-119v151q100 28 188 28q207 0 207 -200v-228h56zM220 238q-55 0 -55 -83q0 -82 55 -82 q22 0 94 34v106q-71 25 -94 25zM226 590h-141v168h141v-168zM423 590h-142v168h142v-168z" />
<glyph unicode="&#xe5;" horiz-adv-x="521" d="M513 110v-110h-199v46q-91 -53 -144 -55q-15 -1 -43 3q-34 7 -56.5 22.5t-32.5 39t-13 45.5t-3 54t3 54t13 45.5t32.5 39t56.5 22.5q68 12 187 -36v59q0 89 -72 89q-34 0 -61 -7v-62h-119v151q100 28 188 28q207 0 207 -200v-228h56zM220 238q-55 0 -55 -83q0 -82 55 -82 q22 0 94 34v106q-71 25 -94 25zM385 699q0 -49 -36 -83t-94 -34t-94 34t-36 83q0 48 36 82.5t94 34.5t94 -34.5t36 -82.5zM296 699q0 15 -10.5 26.5t-30.5 11.5t-30.5 -11.5t-10.5 -26.5t10.5 -27t30.5 -12t30.5 12t10.5 27z" />
<glyph unicode="&#xe6;" horiz-adv-x="764" d="M710 128l26 -102q-108 -37 -194 -37q-90 0 -147 31q-80 -29 -221 -29q-42 0 -71.5 10.5t-45.5 25t-24.5 39.5t-10.5 45.5t-2 51.5q0 37 3.5 60t16.5 48.5t42.5 37.5t76.5 12q61 0 145 -33v51q0 51 -22.5 69.5t-65.5 17.5q-47 -2 -131 -18l-25 102q96 28 179 28t136 -35 q52 35 164 35q114 0 155.5 -42t41.5 -115v-63q0 -31 -22.5 -53t-89 -37.5t-176.5 -17.5v-20q0 -40 23.5 -64.5t70.5 -24.5q81 0 168 27zM304 95v117q0 7 -32.5 13.5t-61.5 6.5q-27 0 -37 -16.5t-10 -55.5q0 -80 47 -80q94 0 94 15zM593 332v46q0 57 -38 57q-107 0 -107 -63 v-93q145 12 145 53z" />
<glyph unicode="&#xe7;" horiz-adv-x="480" d="M433 354h-119v70q-22 2 -35 2q-46 0 -69.5 -24t-23.5 -65v-146q0 -41 23.5 -65t69.5 -24q66 0 147 15l17 -102q-78 -21 -148 -24l-21 -36q42 -2 77.5 -24t35.5 -59q0 -39 -27 -64t-68 -33t-85.5 -5.5t-83.5 14.5l28 53q15 -5 36 -7.5t43 -1.5t37.5 12t15.5 30t-13.5 29.5 t-29.5 13t-38 3.5h-8l40 77q-191 17 -191 215v112q0 218 236 218q67 0 154 -33v-151z" />
<glyph unicode="&#xe8;" horiz-adv-x="504" d="M448 128l25 -101q-105 -37 -194 -37q-122 0 -179 54t-57 164v124q0 68 11.5 108.5t42 62.5t70.5 28.5t110 6.5q109 0 148.5 -39.5t39.5 -109.5v-71q0 -49 -60 -77t-219 -31v-19q0 -40 23.5 -64.5t69.5 -24.5q85 0 169 26zM330 331v47q0 57 -37 57q-50 0 -78.5 -13 t-28.5 -50v-93q144 12 144 52zM200 587l-191 182l175 23l143 -190z" />
<glyph unicode="&#xe9;" horiz-adv-x="504" d="M448 128l25 -101q-105 -37 -194 -37q-122 0 -179 54t-57 164v124q0 68 11.5 108.5t42 62.5t70.5 28.5t110 6.5q109 0 148.5 -39.5t39.5 -109.5v-71q0 -49 -60 -77t-219 -31v-19q0 -40 23.5 -64.5t69.5 -24.5q85 0 169 26zM330 331v47q0 57 -37 57q-50 0 -78.5 -13 t-28.5 -50v-93q144 12 144 52zM332 588h-136l131 231h178z" />
<glyph unicode="&#xea;" horiz-adv-x="504" d="M448 128l25 -101q-105 -37 -194 -37q-122 0 -179 54t-57 164v124q0 68 11.5 108.5t42 62.5t70.5 28.5t110 6.5q109 0 148.5 -39.5t39.5 -109.5v-71q0 -49 -60 -77t-219 -31v-19q0 -40 23.5 -64.5t69.5 -24.5q85 0 169 26zM330 331v47q0 57 -37 57q-50 0 -78.5 -13 t-28.5 -50v-93q144 12 144 52zM411 578l-145 63l-145 -63l-36 44l181 163l181 -163z" />
<glyph unicode="&#xeb;" horiz-adv-x="504" d="M448 128l25 -101q-105 -37 -194 -37q-122 0 -179 54t-57 164v124q0 68 11.5 108.5t42 62.5t70.5 28.5t110 6.5q109 0 148.5 -39.5t39.5 -109.5v-71q0 -49 -60 -77t-219 -31v-19q0 -40 23.5 -64.5t69.5 -24.5q85 0 169 26zM330 331v47q0 57 -37 57q-50 0 -78.5 -13 t-28.5 -50v-93q144 12 144 52zM237 588h-141v168h141v-168zM434 588h-142v168h142v-168z" />
<glyph unicode="&#xec;" horiz-adv-x="279" d="M271 110v-110h-254v110h57v308h-55v110h198v-418h54zM163 589l-191 182l175 23l143 -190z" />
<glyph unicode="&#xed;" horiz-adv-x="279" d="M271 110v-110h-254v110h57v308h-55v110h198v-418h54zM221 590h-136l131 231h178z" />
<glyph unicode="&#xee;" horiz-adv-x="279" d="M271 110v-110h-254v110h57v308h-55v110h198v-418h54zM285 580l-145 63l-145 -63l-36 44l181 163l181 -163z" />
<glyph unicode="&#xef;" horiz-adv-x="279" d="M271 110v-110h-254v110h57v308h-55v110h198v-418h54zM309 590h-142v168h142v-168zM112 590h-141v168h141v-168z" />
<glyph unicode="&#xf0;" horiz-adv-x="634" d="M132 622l34 109q42 -9 81 -21l27 64l87 -35l-26 -61q268 -119 274 -430l1 -2v-2v-19q0 -125 -68.5 -180t-213.5 -55h-8q-145 0 -213.5 55t-68.5 180v19q0 125 57 181t177 56h8q78 0 159 -37q-57 76 -151 124l-25 -59l-87 36l25 59q-29 10 -69 18zM320 107h8 q80 0 106 30.5t26 89.5v16q0 61 -25.5 90.5t-106.5 29.5h-8q-81 0 -106.5 -29.5t-25.5 -90.5v-16q0 -59 26 -89.5t106 -30.5z" />
<glyph unicode="&#xf1;" horiz-adv-x="565" d="M557 110v-110h-199v343q0 44 -6.5 64t-30.5 20q-31 0 -105 -48v-269h55v-110h-254v110h56v308h-54v110h197v-68q2 1 17.5 11.5l20 13.5l19.5 12.5t22.5 13t21 10.5t22.5 9.5t20 5t21 2.5q33 0 56.5 -11t36 -27t19 -44.5t8 -52t1.5 -60.5v-233h56zM201 580l-79 37 q26 80 97 99q39 10 81.5 -11.5t72.5 -19.5q21 0 44 37l79 -30q-14 -43 -41 -71t-57 -36q-38 -9 -80.5 12t-74.5 19q-20 0 -42 -36z" />
<glyph unicode="&#xf2;" horiz-adv-x="524" d="M481 383v-238q0 -83 -52.5 -119t-166.5 -36t-166.5 36t-52.5 119v238q0 83 52.5 119t166.5 36t166.5 -36t52.5 -119zM339 146v236q0 27 -17 40t-60 13q-42 0 -59.5 -13t-17.5 -40v-236q0 -53 77 -53t77 53zM196 587l-191 182l175 23l143 -190z" />
<glyph unicode="&#xf3;" horiz-adv-x="524" d="M481 383v-238q0 -83 -52.5 -119t-166.5 -36t-166.5 36t-52.5 119v238q0 83 52.5 119t166.5 36t166.5 -36t52.5 -119zM339 146v236q0 27 -17 40t-60 13q-42 0 -59.5 -13t-17.5 -40v-236q0 -53 77 -53t77 53zM328 588h-136l131 231h178z" />
<glyph unicode="&#xf4;" horiz-adv-x="524" d="M481 383v-238q0 -83 -52.5 -119t-166.5 -36t-166.5 36t-52.5 119v238q0 83 52.5 119t166.5 36t166.5 -36t52.5 -119zM339 146v236q0 27 -17 40t-60 13q-42 0 -59.5 -13t-17.5 -40v-236q0 -53 77 -53t77 53zM407 578l-145 63l-145 -63l-36 44l181 163l181 -163z" />
<glyph unicode="&#xf5;" horiz-adv-x="524" d="M481 383v-238q0 -83 -52.5 -119t-166.5 -36t-166.5 36t-52.5 119v238q0 83 52.5 119t166.5 36t166.5 -36t52.5 -119zM339 146v236q0 27 -17 40t-60 13q-42 0 -59.5 -13t-17.5 -40v-236q0 -53 77 -53t77 53zM156 580l-79 37q26 80 97 99q39 10 81.5 -11.5t72.5 -19.5 q21 0 44 37l79 -30q-14 -43 -41 -71t-57 -36q-38 -9 -80.5 12t-74.5 19q-20 0 -42 -36z" />
<glyph unicode="&#xf6;" horiz-adv-x="524" d="M481 383v-238q0 -83 -52.5 -119t-166.5 -36t-166.5 36t-52.5 119v238q0 83 52.5 119t166.5 36t166.5 -36t52.5 -119zM339 146v236q0 27 -17 40t-60 13q-42 0 -59.5 -13t-17.5 -40v-236q0 -53 77 -53t77 53zM234 588h-141v168h141v-168zM431 588h-142v168h142v-168z" />
<glyph unicode="&#xf7;" horiz-adv-x="475" d="M451 224h-427v135h427v-135zM304 0h-142v168h142v-168zM304 410h-142v168h142v-168z" />
<glyph unicode="&#xf8;" horiz-adv-x="507" d="M120 -57h-86l48 88q-48 39 -48 122v222q0 88 52.5 125.5t166.5 37.5q60 0 100 -10l34 62h86l-50 -92q50 -39 50 -123v-222q0 -88 -53 -125.5t-167 -37.5q-55 0 -102 10zM331 154v175l-125 -228q19 -8 47 -8q78 0 78 61zM176 374v-171l122 225q-19 7 -45 7 q-42 0 -59.5 -15t-17.5 -46z" />
<glyph unicode="&#xf9;" horiz-adv-x="560" d="M62 418h-54v110h197v-351q0 -44 6.5 -64t30.5 -20q40 0 105 26v299h-54v110h197v-418h54v-110h-197v46q-112 -56 -164 -56q-33 0 -56.5 11t-36 27t-19 44.5t-8 52t-1.5 60.5v233zM191 587l-191 182l175 23l143 -190z" />
<glyph unicode="&#xfa;" horiz-adv-x="560" d="M62 418h-54v110h197v-351q0 -44 6.5 -64t30.5 -20q40 0 105 26v299h-54v110h197v-418h54v-110h-197v46q-112 -56 -164 -56q-33 0 -56.5 11t-36 27t-19 44.5t-8 52t-1.5 60.5v233zM322 588h-136l131 231h178z" />
<glyph unicode="&#xfb;" horiz-adv-x="560" d="M62 418h-54v110h197v-351q0 -44 6.5 -64t30.5 -20q40 0 105 26v299h-54v110h197v-418h54v-110h-197v46q-112 -56 -164 -56q-33 0 -56.5 11t-36 27t-19 44.5t-8 52t-1.5 60.5v233zM402 578l-145 63l-145 -63l-36 44l181 163l181 -163z" />
<glyph unicode="&#xfc;" horiz-adv-x="560" d="M62 418h-54v110h197v-351q0 -44 6.5 -64t30.5 -20q40 0 105 26v299h-54v110h197v-418h54v-110h-197v46q-112 -56 -164 -56q-33 0 -56.5 11t-36 27t-19 44.5t-8 52t-1.5 60.5v233zM425 588h-142v168h142v-168zM228 588h-141v168h141v-168z" />
<glyph unicode="&#xfd;" horiz-adv-x="532" d="M62 418h-54v110h197v-351q0 -44 6.5 -64t30.5 -20q40 0 105 26v299h-54v110h197v-607q0 -149 -159 -149q-63 0 -265 53l29 102q170 -43 204 -43q33 0 40.5 16t7.5 69v77q-112 -56 -164 -56q-33 0 -56.5 11t-36 27t-19 44.5t-8 52t-1.5 60.5v233zM321 588h-136l131 231 h178z" />
<glyph unicode="&#xfe;" horiz-adv-x="547" d="M297 -107v-110h-284v110h61v716h-61v110h284v-110h-80v-152q69 55 150 55q38 0 64 -10.5t40.5 -26t22 -42.5t9 -49.5t1.5 -58.5v-148q0 -36 -1.5 -58.5t-9 -49.5t-22 -42.5t-40.5 -26t-64 -10.5q-81 0 -150 55v-152h80zM361 177v148q0 29 -1.5 44t-10 27.5t-25.5 12.5 q-66 0 -107 -26v-264q41 -26 107 -26q17 0 25.5 12.5t10 27.5t1.5 44z" />
<glyph unicode="&#xff;" horiz-adv-x="532" d="M62 418h-54v110h197v-351q0 -44 6.5 -64t30.5 -20q40 0 105 26v299h-54v110h197v-607q0 -149 -159 -149q-63 0 -265 53l29 102q170 -43 204 -43q33 0 40.5 16t7.5 69v77q-112 -56 -164 -56q-33 0 -56.5 11t-36 27t-19 44.5t-8 52t-1.5 60.5v233zM424 588h-142v168h142 v-168zM227 588h-141v168h141v-168z" />
<glyph unicode="&#x152;" horiz-adv-x="998" d="M975 536h-127v73h-203v-183h194v-111h-194v-205h203v73h127v-183h-481v8q-62 -18 -146 -18h-12q-155 0 -226 62t-71 214v187q0 153 70.5 215t226.5 62h12q86 0 146 -19v8h481v-183zM489 266v187q0 88 -27.5 123.5t-113.5 35.5h-12q-86 0 -113.5 -35.5t-27.5 -123.5v-187 q0 -87 27.5 -122.5t113.5 -35.5h12q86 0 113.5 35.5t27.5 122.5z" />
<glyph unicode="&#x153;" horiz-adv-x="790" d="M727 128l25 -101q-105 -37 -194 -37q-93 0 -148 31q-51 -31 -159 -31q-114 0 -166.5 36t-52.5 119v238q0 83 52.5 119t166.5 36q93 0 143 -23q47 23 162 23q109 0 148.5 -39.5t39.5 -109.5v-71q0 -49 -59.5 -77t-214.5 -31v-53q18 -55 88 -55q85 0 169 26zM251 93 q74 0 77 48q-6 30 -6 67v124q0 42 4 67q-9 36 -75 36q-42 0 -59.5 -13t-17.5 -40v-236q0 -53 77 -53zM609 331v47q0 57 -37 57q-86 0 -103 -38q1 -4 1 -14v-104q139 12 139 52z" />
<glyph unicode="&#x178;" horiz-adv-x="661" d="M655 719v-110h-68l-181 -338v-161h66v-110h-283v110h66v161l-182 338h-67v110h283v-110h-59l101 -222l101 222h-59v110h282zM498 770h-142v168h142v-168zM301 770h-141v168h141v-168z" />
<glyph unicode="&#x2c6;" horiz-adv-x="444" d="M367 580l-145 63l-145 -63l-36 44l181 163l181 -163z" />
<glyph unicode="&#x2dc;" horiz-adv-x="420" d="M101 582l-79 37q26 80 97 99q39 10 81.5 -11.5t72.5 -19.5q21 0 44 37l79 -30q-14 -43 -41 -71t-57 -36q-38 -9 -80.5 12t-74.5 19q-20 0 -42 -36z" />
<glyph unicode="&#x2000;" horiz-adv-x="500" />
<glyph unicode="&#x2001;" horiz-adv-x="1001" />
<glyph unicode="&#x2002;" horiz-adv-x="500" />
<glyph unicode="&#x2003;" horiz-adv-x="1001" />
<glyph unicode="&#x2004;" horiz-adv-x="333" />
<glyph unicode="&#x2005;" horiz-adv-x="250" />
<glyph unicode="&#x2006;" horiz-adv-x="166" />
<glyph unicode="&#x2007;" horiz-adv-x="166" />
<glyph unicode="&#x2008;" horiz-adv-x="125" />
<glyph unicode="&#x2009;" horiz-adv-x="200" />
<glyph unicode="&#x200a;" horiz-adv-x="55" />
<glyph unicode="&#x2010;" horiz-adv-x="370" d="M328 237h-286v118h286v-118z" />
<glyph unicode="&#x2011;" horiz-adv-x="370" d="M328 237h-286v118h286v-118z" />
<glyph unicode="&#x2013;" horiz-adv-x="576" d="M533 237h-490v118h490v-118z" />
<glyph unicode="&#x2014;" horiz-adv-x="834" d="M793 237h-751v118h751v-118z" />
<glyph unicode="&#x2018;" horiz-adv-x="258" d="M175 448h-164l109 271h122z" />
<glyph unicode="&#x2019;" horiz-adv-x="259" d="M140 450h-122l66 269h166z" />
<glyph unicode="&#x201a;" horiz-adv-x="274" d="M140 -125h-123l69 277h165z" />
<glyph unicode="&#x201c;" horiz-adv-x="491" d="M197 448h-164l108 271h123zM394 448h-164l109 271h121z" />
<glyph unicode="&#x201d;" horiz-adv-x="475" d="M295 719h165l-108 -271h-124zM98 719h164l-109 -271h-122z" />
<glyph unicode="&#x201e;" horiz-adv-x="491" d="M140 -125h-123l69 277h165zM356 -125h-123l69 277h165z" />
<glyph unicode="&#x2022;" horiz-adv-x="332" d="M290 117h-247v310h247v-310z" />
<glyph unicode="&#x2026;" horiz-adv-x="640" d="M178 0h-143v152h143v-152zM391 0h-143v152h143v-152zM605 0h-144v152h144v-152z" />
<glyph unicode="&#x202f;" horiz-adv-x="200" />
<glyph unicode="&#x2039;" horiz-adv-x="357" d="M237 31l-215 239l215 239l95 -83l-133 -156l133 -156z" />
<glyph unicode="&#x203a;" horiz-adv-x="356" d="M334 270l-215 -239l-95 83l134 156l-134 156l95 83z" />
<glyph unicode="&#x205f;" horiz-adv-x="250" />
<glyph unicode="&#x20ac;" horiz-adv-x="664" d="M617 504h-127v99q-38 6 -60 6h-16q-92 0 -120.5 -34t-28.5 -121v-41h160l-26 -81h-134v-40h160l-26 -81h-132q7 -54 39 -77t108 -23h16q68 0 166 35l29 -118q-97 -38 -195 -38h-16q-145 0 -218 50t-85 171h-96l20 81h74v40h-94l20 81h74v41q0 152 73 214t232 62h16 q117 0 187 -43v-183z" />
<glyph unicode="&#x2122;" horiz-adv-x="933" d="M902 426v-82h-144l-36 187l-69 -191h-106l-73 191l-33 -187h-143v82h50l52 212h-40v81h153l86 -246l87 246h152v-81h-38l52 -212h50zM334 610h-87v28h-24v-212h39v-82h-182v82h38v212h-25v-28h-87v109h328v-109z" />
</font>
</defs>
</svg>
