<?xml version="1.0" standalone="no"?>
<!DOCTYPE svg PUBLIC "-//W3C//DTD SVG 1.1//EN" "http://www.w3.org/Graphics/SVG/1.1/DTD/svg11.dtd" >
<svg xmlns="http://www.w3.org/2000/svg">
<metadata>
This is a custom SVG webfont generated by Fontspring.
Designer    : http://www.insignedesign.com
Foundry     : Jeremy Dooley
Foundry URL : http://www.insignedesign.com
</metadata>
<defs>
<font id="webfont" horiz-adv-x="517" >
<font-face units-per-em="1000" ascent="750" descent="-250" />
<missing-glyph horiz-adv-x="225" />
<glyph unicode=" "  horiz-adv-x="225" />
<glyph unicode="&#x09;" horiz-adv-x="225" />
<glyph unicode="&#xa0;" horiz-adv-x="225" />
<glyph unicode="!" horiz-adv-x="198" d="M159 214h-113v523h113v-523zM159 2h-113v143h113v-143z" />
<glyph unicode="&#x22;" horiz-adv-x="380" d="M151 452h-82l-15 267h112zM311 452h-82l-15 267h112z" />
<glyph unicode="#" horiz-adv-x="701" d="M190 0h-109l52 149h-98v106h135l46 130h-99v107h136l55 154h109l-55 -154h89l54 154h110l-55 -154h84v-107h-121l-46 -130h97v-106h-134l-52 -149h-109l52 149h-89zM325 385l-46 -130h89l45 130h-88z" />
<glyph unicode="$" horiz-adv-x="543" d="M328 -99h-110v90q-80 2 -184 33v162h101v-88q61 -17 109 -17q148 0 148 110q0 28 -19.5 50.5t-50 39t-68 32.5t-75 35.5t-68 43.5t-50 62t-19.5 85q0 164 192 188v92h110v-92q66 -7 142 -38v-161h-101v93q-43 18 -84 18q-139 0 -139 -95q0 -33 26 -59t65 -42.5t84 -39 t84 -46t65 -66t26 -96.5q0 -88 -50.5 -136.5t-133.5 -62.5v-95z" />
<glyph unicode="%" horiz-adv-x="947" d="M350 460q0 -78 -38 -116t-122 -38q-85 0 -123 38t-38 116v117q0 77 38 115t123 38q84 0 122 -38t38 -115v-117zM134 461q0 -39 11 -55t45 -16q37 0 46 21.5t9 72.5v92q0 39 -10.5 54.5t-44.5 15.5q-20 0 -32 -6t-17 -20.5t-6 -28t-1 -39.5v-91zM292 -11h-129l482 737h129 zM905 143q0 -77 -38 -115t-123 -38t-123 38t-38 115v118q0 77 38 115t123 38t123 -38t38 -115v-118zM688 144q0 -39 11 -54.5t45 -15.5q20 0 32 6t17 20.5t6 28t1 39.5v91q0 39 -11 55t-45 16q-20 0 -32 -6t-17 -20.5t-6 -28t-1 -39.5v-92z" />
<glyph unicode="&#x26;" horiz-adv-x="831" d="M808 271h-96v66h-63v-249h60v-88h-237v88h59v249h-225q-65 0 -103 -23.5t-38 -84.5v-42q0 -107 160 -107q58 0 108 9l13 -86q-71 -13 -120 -13q-47 0 -83.5 4t-75 16.5t-64 33.5t-41.5 57t-16 86v42q0 63 35 101t92 46q-57 14 -85.5 46t-28.5 93v23q0 106 66 149t197 43 q94 0 227 -27v-161h-102v81q-71 11 -121 11q-84 0 -116.5 -22t-32.5 -74v-23q0 -88 137 -88h494v-156z" />
<glyph unicode="'" horiz-adv-x="180" d="M131 452h-82l-15 267h112z" />
<glyph unicode="(" horiz-adv-x="330" d="M170 310q0 -113 33.5 -241t86.5 -198l-38 -33q-92 81 -146 204t-54 268t54 268t146 204l38 -33q-53 -70 -86.5 -198t-33.5 -241z" />
<glyph unicode=")" horiz-adv-x="330" d="M160 310q0 114 -33 241.5t-87 197.5l39 33q91 -81 145 -204.5t54 -267.5q0 -145 -53.5 -268t-145.5 -204l-39 33q54 70 87 197.5t33 241.5z" />
<glyph unicode="*" horiz-adv-x="428" d="M282 383l-68 117l-67 -117l-88 62l96 92l-139 26l43 97l120 -60l-21 126h113l-21 -126l120 60l41 -97l-139 -26l97 -92z" />
<glyph unicode="+" horiz-adv-x="524" d="M317 22h-106v194h-204v102h204v193h106v-193h200v-102h-200v-194z" />
<glyph unicode="," horiz-adv-x="233" d="M117 -125h-97l62 256h129z" />
<glyph unicode="-" horiz-adv-x="366" d="M315 249h-263v94h263v-94z" />
<glyph unicode="." horiz-adv-x="203" d="M158 0h-113v131h113v-131z" />
<glyph unicode="/" horiz-adv-x="467" d="M120 -48h-115l335 809h116z" />
<glyph unicode="0" horiz-adv-x="644" d="M318 -10q-136 0 -205 70t-69 199v201q0 132 68.5 201t205.5 69h8q137 0 205.5 -69t68.5 -201v-201q0 -129 -69 -199t-205 -70h-8zM318 84h8q83 0 117 46.5t34 129.5v199q0 88 -33 133t-118 45h-8q-85 0 -117.5 -45t-32.5 -133v-199q0 -83 33.5 -129.5t116.5 -46.5z" />
<glyph unicode="1" horiz-adv-x="323" d="M301 88v-88h-237v88h58v529h-58v102h178v-631h59z" />
<glyph unicode="2" horiz-adv-x="627" d="M165 523h-101v161q110 45 240 45q133 0 199.5 -51t66.5 -164q0 -26 -8.5 -52.5t-20 -48t-36.5 -50t-44 -47.5t-57.5 -51.5l-62 -51.5l-73 -57.5l-76.5 -59.5h286v89h102v-185h-538v96q225 182 284 237q118 113 120 183q0 65 -32 93t-109 28q-79 0 -140 -23v-91z" />
<glyph unicode="3" horiz-adv-x="604" d="M159 530h-102v161q110 39 223 39q135 0 204 -42.5t69 -149.5v-23q0 -61 -28.5 -93t-85.5 -46q57 -8 92 -46t35 -101v-42q0 -197 -291 -197q-93 0 -229 23v161h102v-81q74 -9 127 -9q172 0 172 103v42q0 58 -39.5 79t-107.5 21h-59l-2 89h53q143 0 143 97v23 q0 52 -35.5 75t-123.5 23q-43 0 -117 -12v-94z" />
<glyph unicode="4" horiz-adv-x="603" d="M558 88v-88h-238v88h62v73h-369v91l371 467h143l-376 -467h231v153h115v-153h92v-91h-92v-73h61z" />
<glyph unicode="5" horiz-adv-x="594" d="M527 558h-101v74h-217l-31 -160q212 -4 297 -59.5t85 -182.5v-4q0 -65 -24 -112.5t-67 -73.5t-95.5 -38t-117.5 -12q-91 0 -217 29v161h102v-87q63 -12 107 -12q85 0 139 33.5t54 111.5v4q0 35 -5.5 55.5t-26.5 42t-62 33t-113 18.5t-178 8l56 332h415v-161z" />
<glyph unicode="6" horiz-adv-x="612" d="M467 731l28 -86q-226 -56 -328 -213q81 44 172 44h7q121 0 179.5 -55t58.5 -175v-27q0 -119 -67 -174t-207 -55h-7q-140 0 -207 55t-67 174v38q6 184 112 301.5t326 172.5zM303 84h7q89 0 122 34.5t33 101.5v25q0 69 -33 103t-122 34h-7q-89 0 -122 -34t-33 -103v-25 q0 -67 33 -101.5t122 -34.5z" />
<glyph unicode="7" horiz-adv-x="565" d="M128 558h-101v161h529v-88l-359 -631h-131l373 631h-311v-73z" />
<glyph unicode="8" horiz-adv-x="661" d="M366 -10h-71q-138 0 -196 44.5t-58 172.5q0 75 30 120.5t82 57.5q-88 26 -88 152v4q0 109 52.5 149t177.5 40h71q125 0 177 -40t52 -149v-4q0 -124 -88 -152q52 -12 82 -57.5t30 -120.5q0 -67 -14.5 -109.5t-47.5 -66t-77.5 -32.5t-113.5 -9zM293 84h75q76 0 104 25.5 t28 99.5q0 72 -26 99t-108 27h-71q-82 0 -108.5 -27t-26.5 -99q0 -75 27.5 -100t105.5 -25zM366 639h-71q-66 0 -90 -20.5t-24 -78.5q0 -59 25 -80.5t89 -21.5h71q64 0 89 21.5t25 80.5q0 58 -24 78.5t-90 20.5z" />
<glyph unicode="9" horiz-adv-x="610" d="M143 -12l-28 86q226 56 328 213q-81 -44 -172 -44h-7q-121 0 -179.5 55t-58.5 175v27q0 119 67 174t207 55h7q140 0 207 -55t67 -174v-27q-2 -189 -108.5 -309t-329.5 -176zM307 635h-7q-88 0 -121.5 -35t-33.5 -101v-25q0 -69 33 -103t122 -34h7q89 0 122 34t33 103v25 q0 66 -33.5 101t-121.5 35z" />
<glyph unicode=":" horiz-adv-x="175" d="M146 0h-113v131h113v-131zM146 407h-113v132h113v-132z" />
<glyph unicode=";" horiz-adv-x="229" d="M179 395h-113v144h113v-144zM102 -125h-97l62 256h129z" />
<glyph unicode="&#x3c;" horiz-adv-x="576" d="M517 119v-94l-469 200v83l469 200v-94l-354 -148z" />
<glyph unicode="=" horiz-adv-x="525" d="M498 312h-477v102h477v-102zM498 113h-478v103h478v-103z" />
<glyph unicode="&#x3e;" horiz-adv-x="499" d="M48 25v94l355 147l-355 148v94l469 -200v-83z" />
<glyph unicode="?" horiz-adv-x="446" d="M125 527h-102v161q101 41 190 41q50 0 87.5 -8t69.5 -28t48.5 -58.5t16.5 -94.5q0 -36 -18 -70.5t-43.5 -62l-51 -54t-43.5 -56.5t-18 -59v-57h-112v57q0 44 26 89t57.5 76t57.5 68.5t26 68.5q0 54 -25 75.5t-72 21.5q-51 0 -94 -13v-97zM261 -4h-112v125h112v-125z" />
<glyph unicode="@" horiz-adv-x="813" d="M579 107l20 -97q-73 -47 -172 -47q-116 0 -202 39.5t-137.5 127.5t-51.5 217q0 164 119.5 273.5t283.5 109.5q166 0 271.5 -93t105.5 -226q0 -273 -215 -273q-29 0 -59.5 17t-45.5 50q-55 -51 -116 -51q-64 0 -106 40t-42 107q0 87 56.5 155t157.5 68q76 0 113 -36 t37 -90q0 -15 -4 -33t-10 -36t-7 -24q-12 -82 32 -82q39 0 66.5 53t27.5 130q0 97 -75 158.5t-187 61.5q-125 0 -206.5 -82t-81.5 -197q0 -144 74 -212t204 -68q87 0 150 40zM395 245q42 1 71.5 39.5t31.5 83.5q-1 31 -16 50.5t-47 17.5q-49 -2 -77 -38t-30 -84 q-2 -32 16 -51.5t51 -17.5z" />
<glyph unicode="A" horiz-adv-x="720" d="M257 88v-88h-252v88h71l199 543h-70v88h206l232 -631h72v-88h-252v88h56l-39 120h-241l-38 -120h56zM360 583l-92 -285h183z" />
<glyph unicode="B" horiz-adv-x="670" d="M404 0h-378v88h72v543h-72v88h369q73 0 118 -11.5t67.5 -38.5t30 -59.5t7.5 -86.5q0 -70 -33.5 -108t-81.5 -44q63 -4 99 -47.5t36 -112.5v-15q0 -51 -9.5 -85t-34.5 -60.5t-71.5 -38.5t-118.5 -12zM514 196v15q0 65 -23.5 90.5t-83.5 25.5h-189v-239h186q59 0 84.5 24.5 t25.5 83.5zM218 410h177q56 0 78 25.5t22 87.5q-1 58 -23 83t-77 25h-177v-221z" />
<glyph unicode="C" horiz-adv-x="582" d="M528 532h-102v93q-35 8 -71 8h-14q-99 0 -134 -38.5t-35 -136.5v-197q0 -97 35 -136t134 -39h14q69 0 156 31l23 -95q-90 -32 -179 -32h-14q-153 0 -223 61t-70 210v197q0 150 70 211t223 61h14q109 0 173 -36v-162z" />
<glyph unicode="D" horiz-adv-x="692" d="M371 0h-345v88h72v543h-72v88h345q86 0 140 -15t83 -50.5t39.5 -81.5t10.5 -120v-185q0 -152 -56.5 -209.5t-216.5 -57.5zM520 267v185q0 96 -33.5 137.5t-133.5 41.5h-135v-543h135q100 0 133.5 41.5t33.5 137.5z" />
<glyph unicode="E" horiz-adv-x="582" d="M552 558h-101v73h-233v-217h215v-88h-215v-238h233v73h101v-161h-526v88h72v543h-72v88h526v-161z" />
<glyph unicode="F" horiz-adv-x="562" d="M551 558h-102v73h-231v-227h224v-88h-224v-228h73v-88h-265v88h73v543h-73v88h525v-161z" />
<glyph unicode="G" horiz-adv-x="624" d="M572 522h-102v95q-60 16 -115 16h-14q-99 0 -134 -38.5t-35 -136.5v-197q0 -97 35 -136t134 -39h15q56 0 99 18v213h120v-271q-89 -56 -219 -56h-15q-153 0 -223 61t-70 210v197q0 150 70 211t223 61h14q112 0 217 -47v-161z" />
<glyph unicode="H" horiz-adv-x="752" d="M726 88v-88h-264v88h72v238h-316v-238h71v-88h-263v88h72v543h-72v88h263v-88h-71v-217h316v217h-72v88h264v-88h-72v-543h72z" />
<glyph unicode="I" horiz-adv-x="315" d="M289 88v-88h-263v88h72v543h-72v88h263v-88h-71v-543h71z" />
<glyph unicode="J" horiz-adv-x="288" d="M275 719v-88h-72v-644q0 -114 -35 -164.5t-117 -50.5q-61 0 -126 27l33 84q58 -17 78 -17q28 0 37.5 26t9.5 97v642h-71v88h263z" />
<glyph unicode="K" horiz-adv-x="656" d="M289 88v-88h-263v88h72v543h-72v88h263v-88h-71v-231l252 319h164v-88h-92l-210 -252l230 -291h89v-88h-164l-269 356v-268h71z" />
<glyph unicode="L" horiz-adv-x="549" d="M291 719v-88h-72v-543h220v73h102v-161h-515v88h73v543h-73v88h265z" />
<glyph unicode="M" horiz-adv-x="1065" d="M326 719l206 -583l205 583h192v-88h-71l126 -543h76v-88h-259v88h63l-88 440l-187 -538h-114l-190 538l-86 -440h65v-88h-259v88h74l125 543h-69v88h191z" />
<glyph unicode="N" horiz-adv-x="729" d="M644 0h-120l-306 528v-440h72v-88h-264v88h72v543h-72v88h192l306 -536v448h-72v88h265v-88h-73v-631z" />
<glyph unicode="O" horiz-adv-x="683" d="M348 -10h-13q-150 0 -218.5 61t-68.5 210v197q0 150 68 211t219 61h13q150 0 218.5 -61t68.5 -211v-197q0 -149 -68.5 -210t-218.5 -61zM511 261v197q0 98 -33.5 137.5t-129.5 39.5h-13q-96 0 -129.5 -39.5t-33.5 -137.5v-197q0 -97 34.5 -137t128.5 -40h13 q94 0 128.5 40t34.5 137z" />
<glyph unicode="P" horiz-adv-x="631" d="M289 88v-88h-263v88h72v543h-72v88h326q138 0 197.5 -46t59.5 -177q0 -132 -59.5 -178t-197.5 -46h-134v-184h71zM218 360h134q79 0 105.5 27t26.5 109q0 81 -26.5 108t-105.5 27h-134v-271z" />
<glyph unicode="Q" horiz-adv-x="683" d="M516 -86l20 -95q-63 -18 -103 -18q-81 0 -115.5 36.5t-34.5 131.5v23q-122 9 -178.5 71t-56.5 198v197q0 150 68 211t219 61h13q150 0 218.5 -61t68.5 -211v-197q0 -137 -57 -199t-180 -70v-29q0 -35 10.5 -48.5t35.5 -13.5q15 0 72 13zM511 261v197q0 98 -33.5 137.5 t-129.5 39.5h-13q-96 0 -129.5 -39.5t-33.5 -137.5v-197q0 -97 34.5 -137t128.5 -40h13q94 0 128.5 40t34.5 137z" />
<glyph unicode="R" horiz-adv-x="657" d="M649 88v-88h-166l-131 272h-134v-184h71v-88h-263v88h72v543h-72v88h326q138 0 197.5 -46t59.5 -177q0 -99 -33 -148t-104 -66l96 -194h81zM218 360h134q79 0 105.5 27t26.5 109q0 81 -26.5 108t-105.5 27h-134v-271z" />
<glyph unicode="S" horiz-adv-x="543" d="M486 528h-101v93q-43 18 -84 18q-139 0 -139 -95q0 -33 26 -59t65 -42.5t84 -39t84 -46t65 -66t26 -96.5q0 -56 -21.5 -97t-58.5 -64t-81 -33.5t-96 -10.5q-70 0 -113.5 7.5t-107.5 26.5v162h101v-88q61 -17 109 -17q148 0 148 110q0 28 -19.5 50.5t-50 39t-68 32.5 t-75 35.5t-68 43.5t-50 62t-19.5 85q0 56 22.5 95.5t61 59t78.5 28t86 8.5q98 0 196 -41v-161z" />
<glyph unicode="T" horiz-adv-x="583" d="M573 558h-102v73h-120v-543h72v-88h-263v88h71v543h-119v-73h-102v161h563v-161z" />
<glyph unicode="U" horiz-adv-x="699" d="M692 719v-88h-71v-362q0 -154 -63.5 -217t-203.5 -63h-8q-140 0 -203.5 63t-63.5 217v362h-72v88h263v-88h-71v-362q0 -98 31 -137.5t116 -39.5h8q85 0 116 40t31 137v362h-71v88h262z" />
<glyph unicode="V" horiz-adv-x="691" d="M268 719v-88h-66l144 -483l143 483h-66v88h263v-88h-72l-219 -641h-100l-217 641h-73v88h263z" />
<glyph unicode="W" horiz-adv-x="1056" d="M256 719v-88h-60l122 -467l160 560h97l162 -560l121 467h-59v88h252v-88h-69l-204 -635h-96l-155 531l-155 -531h-96l-204 635h-67v88h251z" />
<glyph unicode="X" horiz-adv-x="656" d="M262 88v-88h-257v88h80l170 273l-167 270h-79v88h257v-88h-52l114 -195l113 195h-52v88h258v-88h-79l-167 -270l169 -273h81v-88h-257v88h48l-114 196l-114 -196h48z" />
<glyph unicode="Y" horiz-adv-x="658" d="M651 719v-88h-75l-187 -355v-188h72v-88h-264v88h72v188l-190 355h-72v88h263v-88h-65l124 -262l123 262h-64v88h263z" />
<glyph unicode="Z" horiz-adv-x="575" d="M152 558h-102v161h487v-88l-371 -543h281v73h102v-161h-523v88l371 543h-245v-73z" />
<glyph unicode="[" horiz-adv-x="282" d="M240 -153h-188v901h188v-96h-75v-709h75v-96z" />
<glyph unicode="\" horiz-adv-x="441" d="M443 -18h-113l-326 780h112z" />
<glyph unicode="]" horiz-adv-x="282" d="M230 -153h-188v96h74v709h-74v96h188v-901z" />
<glyph unicode="^" horiz-adv-x="528" d="M269 681l246 -295h-135l-111 147l-111 -147h-134z" />
<glyph unicode="_" horiz-adv-x="621" d="M567 -67h-512v104h512v-104z" />
<glyph unicode="`" horiz-adv-x="279" d="M155 589l-166 164l137 18l126 -171z" />
<glyph unicode="a" d="M506 88v-88h-175v46q-96 -50 -147 -54q-18 -3 -45 1q-64 10 -85.5 50.5t-21.5 110.5t21.5 110t85.5 50q31 4 69.5 -2.5t61 -14.5l61.5 -23v74q0 54 -20.5 78t-64.5 24q-37 0 -79 -10v-67h-95v137q93 29 179 29q101 0 147 -49t46 -143v-259h62zM209 250q-63 0 -63 -96 q0 -46 13.5 -70.5t49.5 -24.5q38 0 122 39v119q-85 33 -122 33z" />
<glyph unicode="b" horiz-adv-x="532" d="M191 745v-287q115 81 173 81q32 0 54.5 -11t34.5 -26.5t18.5 -43t8 -50.5t1.5 -59v-169q0 -36 -1.5 -59t-8 -50.5t-18.5 -43t-34.5 -26.5t-54.5 -11q-57 0 -173 58v-48h-172v88h58v569h-58v88h172zM367 355q0 50 -8.5 72.5t-38.5 22.5q-22 0 -62 -20t-67 -39v-283 q89 -35 129 -35q30 0 38.5 24.5t8.5 76.5v181z" />
<glyph unicode="c" horiz-adv-x="473" d="M420 372h-95v73q-32 4 -51 4q-61 0 -85 -31.5t-24 -86.5v-133q0 -55 24 -86.5t85 -31.5q63 0 142 15l13 -82q-89 -23 -155 -23q-119 0 -171 55t-52 166v107q0 111 52 166t171 55q65 0 146 -29v-138z" />
<glyph unicode="d" horiz-adv-x="533" d="M455 745v-657h58v-88h-172v48q-119 -58 -173 -58q-32 0 -54.5 11t-34.5 26.5t-18.5 43t-8 50.5t-1.5 59v169q0 36 1.5 59t8 50.5t18.5 43t34.5 26.5t54.5 11q55 0 173 -81v199h-58v88h172zM165 174q0 -52 8.5 -76.5t38.5 -24.5q37 0 129 35v283q-86 59 -129 59 q-30 0 -38.5 -22.5t-8.5 -72.5v-181z" />
<glyph unicode="e" horiz-adv-x="496" d="M439 108l21 -82q-93 -36 -186 -36q-120 0 -171.5 54.5t-51.5 166.5v116q0 57 9 95t24.5 61.5t46.5 35.5t65 16t90 4q98 0 133 -39.5t35 -109.5v-70q0 -29 -21 -49t-88 -35.5t-180 -16.5v-21q0 -118 109 -118q85 0 165 28zM347 331v50q0 36 -9.5 55.5t-39.5 19.5 q-70 0 -101.5 -18.5t-31.5 -80.5v-80q182 9 182 54z" />
<glyph unicode="f" horiz-adv-x="324" d="M266 88v-88h-247v88h63v353h-63v88h63v31q0 115 48 158t154 28q28 -3 69 -18l-24 -75q-50 13 -72 13q-38 0 -49.5 -25.5t-11.5 -80.5v-31h98v-88h-98v-353h70z" />
<glyph unicode="g" horiz-adv-x="507" d="M51 349q0 36 1.5 59t8 50.5t18.5 43t34.5 26.5t54.5 11q55 0 173 -81v71h114v-593q0 -49 -13 -83.5t-36 -51t-45.5 -23t-49.5 -6.5q-64 0 -257 50l23 82q172 -42 210 -42q36 0 45 23.5t9 86.5v76q-119 -58 -173 -58q-32 0 -54.5 11t-34.5 26.5t-18.5 43t-8 50.5t-1.5 59 v169zM165 174q0 -52 8.5 -76.5t38.5 -24.5q37 0 129 35v283q-86 59 -129 59q-30 0 -38.5 -22.5t-8.5 -72.5v-181z" />
<glyph unicode="h" horiz-adv-x="564" d="M256 88v-88h-237v88h62v569h-58v88h172v-288q123 82 175 82q32 0 54.5 -11t34.5 -26.5t18.5 -43t8 -50.5t1.5 -59v-261h66v-88h-180v349q0 52 -9 76.5t-38 24.5q-30 0 -131 -60v-302h61z" />
<glyph unicode="i" horiz-adv-x="267" d="M256 88v-88h-237v88h63v353h-60v88h173v-441h61zM195 613h-113v132h113v-132z" />
<glyph unicode="j" horiz-adv-x="242" d="M76 -44v485h-58v88h172v-573q0 -104 -32.5 -144t-106.5 -40q-58 0 -128 27l27 86q55 -16 83 -16q23 0 33 20t10 67zM190 613h-115v132h115v-132z" />
<glyph unicode="k" horiz-adv-x="522" d="M256 88v-88h-237v88h65v569h-58v88h172v-454l179 238h129v-88h-65l-131 -160l140 -193h65v-88h-134l-183 269v-181h58z" />
<glyph unicode="l" horiz-adv-x="269" d="M258 88v-88h-238v88h60v569h-58v88h173v-657h63z" />
<glyph unicode="m" horiz-adv-x="811" d="M800 88v-88h-175v349q0 52 -9 76.5t-38 24.5q-9 0 -20 -4t-25.5 -12t-23.5 -13.5t-25.5 -16.5t-17.5 -12q1 -14 1 -43v-261h62v-88h-176v349q0 52 -8.5 76.5t-38.5 24.5q-7 0 -17 -3.5t-19 -8t-21.5 -12.5l-20 -13l-19 -13t-13.5 -10v-302h60v-88h-237v88h63v353h-63v88 h177v-72q108 82 154 82q88 0 108 -83q115 83 163 83q32 0 54.5 -11t34.5 -26.5t18.5 -43t8 -50.5t1.5 -59v-261h62z" />
<glyph unicode="n" horiz-adv-x="560" d="M549 88v-88h-176v349q0 52 -9 76.5t-38 24.5q-30 0 -131 -60v-302h61v-88h-237v88h62v353h-58v88h172v-72q123 82 175 82q32 0 54.5 -11t34.5 -26.5t18.5 -43t8 -50.5t1.5 -59v-261h62z" />
<glyph unicode="o" horiz-adv-x="519" d="M468 386v-243q0 -81 -50.5 -117t-158.5 -36t-158 36t-50 117v243q0 81 50 117t158 36t158.5 -36t50.5 -117zM355 144v241q0 36 -22 53.5t-74 17.5q-51 0 -73 -17.5t-22 -53.5v-241q0 -71 95 -71q96 0 96 71z" />
<glyph unicode="p" horiz-adv-x="533" d="M482 349v-169q0 -36 -1.5 -59t-8 -50.5t-18.5 -43t-34.5 -26.5t-54.5 -11q-57 0 -173 58v-176h91v-88h-267v88h62v569h-58v88h172v-71q115 81 173 81q32 0 54.5 -11t34.5 -26.5t18.5 -43t8 -50.5t1.5 -59zM368 174v181q0 49 -9 72t-38 23q-23 0 -62.5 -19.5t-66.5 -39.5 v-277q88 -41 129 -41q29 0 38 24.5t9 76.5z" />
<glyph unicode="q" d="M51 349q0 36 1.5 59t8 50.5t18.5 43t34.5 26.5t54.5 11q55 0 173 -81v71h114v-657h60v-88h-267v88h93v176q-119 -58 -173 -58q-32 0 -54.5 11t-34.5 26.5t-18.5 43t-8 50.5t-1.5 59v169zM165 174q0 -52 8.5 -76.5t38.5 -24.5q38 0 129 41v277q-86 59 -129 59 q-30 0 -38.5 -22.5t-8.5 -72.5v-181z" />
<glyph unicode="r" horiz-adv-x="435" d="M256 88v-88h-237v88h62v351h-58v88h172v-76q78 67 113 81q17 7 30 7q51 0 65.5 -27.5t14.5 -104.5v-37h-95v37q-2 22 -7.5 32.5t-21.5 10.5q-7 0 -17.5 -5t-23 -14t-22 -16.5l-21.5 -17.5t-15 -13v-296h61z" />
<glyph unicode="s" horiz-adv-x="459" d="M412 373h-96v70q-39 12 -77 12q-94 0 -94 -63q0 -25 21 -42t52.5 -24.5t68 -19.5t68 -26t52.5 -45.5t21 -77.5q0 -52 -17 -86.5t-48.5 -51.5t-65 -23t-78.5 -6q-90 0 -192 32v138h96v-75q44 -11 90 -11q103 0 103 71q0 29 -29 46t-71 27.5t-83.5 24.5t-70.5 48.5 t-29 88.5q0 159 200 159q76 0 179 -28v-138z" />
<glyph unicode="t" horiz-adv-x="337" d="M311 106l26 -86q-88 -30 -133 -30q-126 0 -126 133v316h-67v90h67v115h114v-115h117v-90h-117v-314q0 -41 34 -41q28 0 85 22z" />
<glyph unicode="u" horiz-adv-x="550" d="M69 441h-58v88h172v-355q0 -52 9 -76.5t38 -24.5q34 0 131 36v332h-58v88h172v-441h58v-88h-172v49q-118 -59 -175 -59q-32 0 -54.5 11t-34.5 26.5t-18.5 43t-8 50.5t-1.5 59v261z" />
<glyph unicode="v" horiz-adv-x="546" d="M235 529v-88h-42l80 -310l80 310h-40v88h219v-88h-63l-148 -445h-101l-143 445h-62v88h220z" />
<glyph unicode="w" horiz-adv-x="779" d="M233 529v-88h-54l65 -305l92 397h103l98 -397l59 305h-51v88h226v-88h-63l-127 -445h-102l-92 383l-92 -383h-102l-127 445h-58v88h225z" />
<glyph unicode="x" horiz-adv-x="507" d="M164 529l91 -207l84 207h140v-88h-54l-85 -177l94 -176h60v-88h-144l-95 208l-96 -208h-144v88h60l97 176l-89 177h-66v88h147z" />
<glyph unicode="y" horiz-adv-x="529" d="M69 441h-58v88h172v-355q0 -52 9 -76.5t38 -24.5q34 0 131 36v332h-58v88h172v-593q0 -164 -143 -164q-66 0 -257 50l23 82q170 -42 210 -42q35 0 44 23.5t9 86.5v77q-118 -59 -175 -59q-32 0 -54.5 11t-34.5 26.5t-18.5 43t-8 50.5t-1.5 59v261z" />
<glyph unicode="z" horiz-adv-x="441" d="M124 383h-96v146h378v-88l-266 -353h185v58h95v-146h-403v88l272 353h-165v-58z" />
<glyph unicode="{" horiz-adv-x="353" d="M307 744v-76q-33 0 -53 -21t-20 -64q0 -19 3 -60.5t3 -67.5q0 -108 -64 -162q64 -54 64 -161q0 -26 -3 -67.5t-3 -60.5q0 -43 20 -64t53 -21v-76q-87 0 -130.5 30t-53.5 99q-6 6 -2.5 78.5t3.5 81.5q0 120 -82 120v83h5q77 3 77 120q0 10 -3.5 82t2.5 78q10 69 53.5 99 t130.5 30z" />
<glyph unicode="|" horiz-adv-x="209" d="M161 -187h-106v945h106v-945z" />
<glyph unicode="}" horiz-adv-x="353" d="M42 668v76q87 0 131 -30t54 -99q5 -10 1.5 -78t-3.5 -82q0 -117 76 -120h6v-83h-6q-76 -4 -76 -120q0 -14 3.5 -82t-1.5 -78q-10 -69 -54 -99t-131 -30v76q33 0 53 21t20 64q0 19 -3 60.5t-3 67.5q0 108 64 161q-64 53 -64 162q0 26 3 67.5t3 60.5q0 43 -20 64t-53 21z " />
<glyph unicode="~" horiz-adv-x="544" d="M421 347l83 -40q-21 -61 -62 -92t-88 -31q-39 0 -93 29t-79 29q-29 0 -58 -53l-87 40q23 52 57.5 83t72.5 37q43 7 103 -24t91 -31q16 0 29 12t31 41z" />
<glyph unicode="&#xa1;" horiz-adv-x="204" d="M162 392h-113v143h113v-143zM162 -208h-113v531h113v-531z" />
<glyph unicode="&#xa2;" horiz-adv-x="390" d="M281 -109h-106v101q-81 12 -117 62.5t-36 142.5v134q0 177 153 205v108h106v-107q46 -5 89 -17l-20 -97q-63 16 -105 16q-56 0 -83 -31.5t-27 -102.5v-82q0 -136 107 -136q31 0 108 18l20 -97q-52 -13 -89 -17v-100z" />
<glyph unicode="&#xa3;" horiz-adv-x="523" d="M388 308h-117q4 -34 4 -50q0 -56 -18 -93t-72 -63h344v-102h-501v102q123 54 123 156q0 18 -5 50h-98v96h83q-7 54 -7 96v37q0 200 246 200q52 0 153 -21l-19 -95q-10 1 -39 5t-40 5t-40 3t-40 -1q-103 -6 -103 -96v-37q0 -46 10 -96h136v-96z" />
<glyph unicode="&#xa4;" horiz-adv-x="647" d="M511 29l-57 54q-60 -35 -132 -35q-67 0 -130 36l-57 -54l-90 83l59 56q-35 60 -35 120q0 62 35 121q-21 19 -59 57l53 48l37 34l58 -55q63 36 130 36q69 0 131 -35q20 20 56 53l92 -84l-59 -54q34 -57 34 -120q0 -57 -36 -121l60 -56zM322 146q63 0 107.5 42t44.5 102 q0 59 -44.5 100.5t-106.5 41.5q-61 0 -106.5 -42t-45.5 -101q0 -57 45 -100t106 -43z" />
<glyph unicode="&#xa5;" horiz-adv-x="606" d="M363 0h-120v109h-166v91h166v59h-165v90h132l-200 371h132l161 -326l161 326h133l-201 -371h135v-90h-168v-59h168v-91h-168v-109z" />
<glyph unicode="&#xa6;" horiz-adv-x="209" d="M161 -187h-106v398h106v-398zM161 341h-106v391h106v-391z" />
<glyph unicode="&#xa7;" horiz-adv-x="405" d="M14 -29l21 87q82 -26 149 -26q90 0 90 62q0 25 -25.5 41.5t-62 29.5t-73 30.5t-62 53.5t-25.5 88q0 82 53 120q-53 44 -53 118q0 155 187 155q65 0 152 -23l-20 -87q-61 18 -125 18q-82 0 -82 -51q0 -21 18.5 -37.5t46 -25.5t59.5 -23.5t59.5 -31.5t46 -49t18.5 -76 q0 -81 -53 -122q53 -44 53 -116q0 -85 -56 -124t-140 -39q-55 0 -88 6t-88 22zM138 349q0 -18 14 -32.5t30 -22t47 -19.5q45 13 45 57q0 23 -19.5 37.5t-57.5 29.5q-59 -6 -59 -50z" />
<glyph unicode="&#xa8;" horiz-adv-x="418" d="M168 590h-113v143h113v-143zM362 590h-113v143h113v-143z" />
<glyph unicode="&#xa9;" horiz-adv-x="821" d="M792 350q0 -88 -32.5 -159t-87 -115t-122 -67.5t-140.5 -23.5t-140.5 23.5t-121.5 67.5t-86.5 115t-32.5 159t32.5 159t86.5 115t121.5 67t140.5 23t140.5 -23t122 -67t87 -115t32.5 -159zM718 350q0 142 -91.5 222.5t-216.5 80.5t-216 -80t-91 -223t91 -223t216 -80 t216.5 80t91.5 223zM551 442h-76v59q-19 3 -41 3q-88 0 -88 -95v-107q0 -96 88 -96q49 0 114 13l10 -67q-72 -18 -124 -18q-96 0 -138 44.5t-42 133.5v86q0 89 42 134t138 45q51 0 117 -24v-111z" />
<glyph unicode="&#xaa;" horiz-adv-x="384" d="M364 398v-64h-127v34q-72 -37 -108 -40q-18 -2 -33 1q-47 7 -62.5 36.5t-15.5 80.5t15.5 80.5t62.5 36.5q49 7 141 -29v54q0 75 -62 75q-29 0 -58 -8v-49h-69v100q70 22 130 22q141 0 141 -141v-189h45zM148 517q-46 0 -46 -71q0 -34 9.5 -51.5t36.5 -17.5t89 29v86 q-63 25 -89 25z" />
<glyph unicode="&#xab;" horiz-adv-x="540" d="M227 46l-203 229l203 230l76 -65l-138 -165l137 -163zM440 46l-203 229l203 230l76 -65l-138 -165l137 -163z" />
<glyph unicode="&#xac;" horiz-adv-x="572" d="M517 125h-105v182h-407v102h512v-284z" />
<glyph unicode="&#xad;" horiz-adv-x="366" d="M315 249h-263v94h263v-94z" />
<glyph unicode="&#xae;" horiz-adv-x="821" d="M792 350q0 -88 -32.5 -159t-87 -115t-122 -67.5t-140.5 -23.5t-140.5 23.5t-121.5 67.5t-86.5 115t-32.5 159t32.5 159t86.5 115t121.5 67t140.5 23t140.5 -23t122 -67t87 -115t32.5 -159zM718 350q0 142 -91.5 222.5t-216.5 80.5t-216 -80t-91 -223t91 -223t216 -80 t216.5 80t91.5 223zM624 213v-71h-124l-69 145h-61v-145h-142v71h50v285h-50v71h208q87 0 123.5 -29.5t36.5 -111.5q0 -58 -17.5 -88.5t-55.5 -42.5l45 -84h56zM370 359h66q37 0 50.5 15.5t13.5 53.5t-14 54t-50 16h-66v-139z" />
<glyph unicode="&#xaf;" horiz-adv-x="389" d="M335 591h-280v85h280v-85z" />
<glyph unicode="&#xb0;" horiz-adv-x="296" d="M266 693q0 -47 -34 -78t-86 -31t-86 31t-34 78q0 46 34 77t86 31t86 -31t34 -77zM194 693q0 19 -13.5 31.5t-34.5 12.5t-34.5 -12.5t-13.5 -31.5t13.5 -32.5t34.5 -13.5t34.5 13.5t13.5 32.5z" />
<glyph unicode="&#xb1;" horiz-adv-x="531" d="M317 95h-106v194h-204v102h204v193h106v-193h200v-102h-200v-194zM520 -51h-512v104h512v-104z" />
<glyph unicode="&#xb2;" horiz-adv-x="493" d="M147 776h-97v140q90 38 187 38q106 0 160 -39t54 -131q0 -76 -103 -165q-33 -28 -167 -127h181v48h97v-140h-422v92l85 65.5l69 55.5t61.5 53t41.5 43t30 42.5t8 34.5q0 46 -21.5 63t-73.5 17q-49 0 -90 -15v-75z" />
<glyph unicode="&#xb3;" horiz-adv-x="486" d="M143 782h-97v140q89 33 175 33q110 0 165 -34t55 -119v-18q0 -41 -17 -64t-60 -35q42 -7 65 -36.5t23 -71.5v-31q0 -154 -232 -154q-65 0 -182 18v140h97v-62q43 -6 85 -6q116 0 116 64v31q0 62 -93 62h-53l-1 86h46q93 0 93 59v18q0 33 -23.5 48t-88.5 15q-28 0 -73 -8 v-75z" />
<glyph unicode="&#xb4;" horiz-adv-x="275" d="M182 590h-107l123 210h142z" />
<glyph unicode="&#xb5;" horiz-adv-x="550" d="M183 -229h-114v670h-58v88h172v-355q0 -52 9 -76.5t38 -24.5q34 0 131 36v332h-58v88h172v-441h58v-88h-172v49q-118 -59 -175 -59h-3v-219z" />
<glyph unicode="&#xb6;" horiz-adv-x="600" d="M566 -21v-88h-170v740h-73v-740h-169v88h65v329q-92 8 -147 63t-55 141q0 92 62 149.5t162 57.5h260v-740h65z" />
<glyph unicode="&#xb7;" horiz-adv-x="267" d="M183 214h-113v144h113v-144z" />
<glyph unicode="&#xb8;" horiz-adv-x="295" d="M88 -74l49 92h51l-35 -61q39 -1 71.5 -21.5t32.5 -55.5q0 -37 -25 -60t-61.5 -29.5t-76 -3.5t-71.5 15l23 42q19 -9 48 -12t54.5 8t25.5 38q0 20 -14.5 31t-29.5 13.5t-42 3.5z" />
<glyph unicode="&#xb9;" horiz-adv-x="248" d="M225 484v-84h-193v84h39v364h-39v98h154v-462h39z" />
<glyph unicode="&#xba;" horiz-adv-x="296" d="M266 693q0 -47 -34 -78t-86 -31t-86 31t-34 78q0 46 34 77t86 31t86 -31t34 -77zM194 693q0 19 -13.5 31.5t-34.5 12.5t-34.5 -12.5t-13.5 -31.5t13.5 -32.5t34.5 -13.5t34.5 13.5t13.5 32.5z" />
<glyph unicode="&#xbb;" horiz-adv-x="540" d="M303 275l-203 -229l-75 66l138 163l-139 165l76 65zM516 275l-203 -229l-75 66l138 163l-139 165l76 65z" />
<glyph unicode="&#xbc;" horiz-adv-x="1129" d="M1053 84v-84h-193v84h42v42h-269v85l268 335h138l-274 -335h137v111h110v-111h68v-85h-68v-42h41zM695 730l-312 -740h-122l312 740h122zM222 258v-84h-193v84h39v364h-39v98h154v-462h39z" />
<glyph unicode="&#xbd;" horiz-adv-x="1129" d="M797 376h-97v140q90 38 187 38q106 0 160 -39t54 -131q0 -76 -103 -165q-33 -28 -167 -127h181v48h97v-140h-422v92l85 65.5l69 55.5t61.5 53t41.5 43t30 42.5t8 34.5q0 46 -21.5 63t-73.5 17q-49 0 -90 -15v-75zM695 730l-310 -740h-121l309 740h122zM222 258v-84h-193 v84h39v364h-39v98h154v-462h39z" />
<glyph unicode="&#xbe;" horiz-adv-x="1269" d="M126 556h-97v140q89 33 175 33q110 0 165 -34t55 -119v-18q0 -41 -17 -64t-60 -35q42 -7 65 -36.5t23 -71.5v-31q0 -154 -232 -154q-65 0 -182 18v140h97v-62q44 -6 85 -6q116 0 116 64v31q0 62 -93 62h-53l-1 86h46q93 0 93 59v18q0 33 -23.5 48t-88.5 15q-28 0 -73 -8 v-75zM1215 84v-84h-193v84h42v42h-269v85l268 335h138l-274 -335h137v111h110v-111h68v-85h-68v-42h41zM862 730l-312 -740h-121l311 740h122z" />
<glyph unicode="&#xbf;" horiz-adv-x="429" d="M251 -2h102v-161q-101 -41 -190 -41q-50 0 -87.5 8t-69.5 28t-48.5 58.5t-16.5 94.5q0 36 18 70.5t43.5 62l51 54t43.5 56.5t18 59v57h112v-57q0 -44 -26 -89t-57.5 -76t-57.5 -68.5t-26 -68.5q0 -54 25 -75.5t72 -21.5q50 0 94 13v97zM115 529h112v-125h-112v125z" />
<glyph unicode="&#xc0;" horiz-adv-x="720" d="M257 88v-88h-252v88h71l199 543h-70v88h206l232 -631h72v-88h-252v88h56l-39 120h-241l-38 -120h56zM360 583l-92 -285h183zM309 769l-166 164l137 18l126 -171z" />
<glyph unicode="&#xc1;" horiz-adv-x="720" d="M257 88v-88h-252v88h71l199 543h-70v88h206l232 -631h72v-88h-252v88h56l-39 120h-241l-38 -120h56zM411 770h-107l123 210h142zM360 583l-92 -285h183z" />
<glyph unicode="&#xc2;" horiz-adv-x="720" d="M257 88v-88h-252v88h71l199 543h-70v88h206l232 -631h72v-88h-252v88h56l-39 120h-241l-38 -120h56zM360 583l-92 -285h183zM494 760l-133 68l-134 -68l-29 35l163 150l162 -150z" />
<glyph unicode="&#xc3;" horiz-adv-x="720" d="M257 88v-88h-252v88h71l199 543h-70v88h206l232 -631h72v-88h-252v88h56l-39 120h-241l-38 -120h56zM360 583l-92 -285h183zM257 764l-62 30q27 69 88 83q35 6 72.5 -12.5t65.5 -17.5q24 -1 46 33l62 -24q-15 -38 -39.5 -60.5t-50.5 -28.5q-35 -6 -72.5 12.5t-65.5 17.5 q-23 0 -44 -33z" />
<glyph unicode="&#xc4;" horiz-adv-x="720" d="M257 88v-88h-252v88h71l199 543h-70v88h206l232 -631h72v-88h-252v88h56l-39 120h-241l-38 -120h56zM360 583l-92 -285h183zM319 770h-113v143h113v-143zM513 770h-113v143h113v-143z" />
<glyph unicode="&#xc5;" horiz-adv-x="720" d="M257 88v-88h-252v88h71l199 543h-70v88h206l232 -631h72v-88h-252v88h56l-39 120h-241l-38 -120h56zM480 873q0 -47 -34 -78t-86 -31t-86 31t-34 78q0 46 34 77t86 31t86 -31t34 -77zM360 583l-92 -285h183zM408 873q0 19 -13.5 31.5t-34.5 12.5t-34.5 -12.5t-13.5 -31.5 t13.5 -32.5t34.5 -13.5t34.5 13.5t13.5 32.5z" />
<glyph unicode="&#xc6;" horiz-adv-x="1066" d="M1036 0h-526v88h72v120h-308l-75 -120h58v-88h-252v88h70l357 543h-67v88h671v-161h-101v73h-233v-217h215v-88h-215v-238h233v73h101v-161zM539 631l-208 -333h251v333h-43z" />
<glyph unicode="&#xc7;" horiz-adv-x="582" d="M528 532h-102v93q-35 8 -71 8h-14q-99 0 -134 -38.5t-35 -136.5v-197q0 -97 35 -136t134 -39h14q69 0 156 31l23 -95q-85 -31 -170 -32l-18 -32q39 -1 71.5 -21.5t32.5 -55.5q0 -37 -25 -60t-61.5 -29.5t-76 -3.5t-71.5 15l23 42q19 -9 48 -12t54.5 8t25.5 38 q0 20 -14.5 31t-29.5 13.5t-42 3.5l34 64q-139 5 -203 66t-64 204v197q0 150 70 211t223 61h14q109 0 173 -36v-162z" />
<glyph unicode="&#xc8;" horiz-adv-x="582" d="M552 558h-101v73h-233v-217h215v-88h-215v-238h233v73h101v-161h-526v88h72v543h-72v88h526v-161zM282 769l-166 164l137 18l126 -171z" />
<glyph unicode="&#xc9;" horiz-adv-x="582" d="M552 558h-101v73h-233v-217h215v-88h-215v-238h233v73h101v-161h-526v88h72v543h-72v88h526v-161zM385 770h-107l123 210h142z" />
<glyph unicode="&#xca;" horiz-adv-x="582" d="M552 558h-101v73h-233v-217h215v-88h-215v-238h233v73h101v-161h-526v88h72v543h-72v88h526v-161zM467 760l-133 68l-134 -68l-29 35l163 150l162 -150z" />
<glyph unicode="&#xcb;" horiz-adv-x="582" d="M552 558h-101v73h-233v-217h215v-88h-215v-238h233v73h101v-161h-526v88h72v543h-72v88h526v-161zM486 770h-113v143h113v-143zM292 770h-113v143h113v-143z" />
<glyph unicode="&#xcc;" horiz-adv-x="315" d="M289 88v-88h-263v88h72v543h-72v88h263v-88h-71v-543h71zM106 769l-166 164l137 18l126 -171z" />
<glyph unicode="&#xcd;" horiz-adv-x="315" d="M289 88v-88h-263v88h72v543h-72v88h263v-88h-71v-543h71zM208 770h-107l123 210h142z" />
<glyph unicode="&#xce;" horiz-adv-x="315" d="M289 88v-88h-263v88h72v543h-72v88h263v-88h-71v-543h71zM290 760l-133 68l-134 -68l-29 35l163 150l162 -150z" />
<glyph unicode="&#xcf;" horiz-adv-x="315" d="M289 88v-88h-263v88h72v543h-72v88h263v-88h-71v-543h71zM116 770h-113v143h113v-143zM310 770h-113v143h113v-143z" />
<glyph unicode="&#xd0;" horiz-adv-x="675" d="M371 0h-345v88h72v216h-65v107h65v220h-72v88h345q86 0 140 -15t83 -50.5t39.5 -81.5t10.5 -120v-185q0 -152 -56.5 -209.5t-216.5 -57.5zM520 267v185q0 96 -33.5 137.5t-133.5 41.5h-135v-220h104v-107h-104v-216h135q100 0 133.5 41.5t33.5 137.5z" />
<glyph unicode="&#xd1;" horiz-adv-x="729" d="M644 0h-120l-306 528v-440h72v-88h-264v88h72v543h-72v88h192l306 -536v448h-72v88h265v-88h-73v-631zM264 764l-62 30q27 69 88 83q35 6 72.5 -12.5t65.5 -17.5q24 -1 46 33l62 -24q-15 -38 -39.5 -60.5t-50.5 -28.5q-35 -6 -72.5 12.5t-65.5 17.5q-23 0 -44 -33z" />
<glyph unicode="&#xd2;" horiz-adv-x="683" d="M348 -10h-13q-150 0 -218.5 61t-68.5 210v197q0 150 68 211t219 61h13q150 0 218.5 -61t68.5 -211v-197q0 -149 -68.5 -210t-218.5 -61zM511 261v197q0 98 -33.5 137.5t-129.5 39.5h-13q-96 0 -129.5 -39.5t-33.5 -137.5v-197q0 -97 34.5 -137t128.5 -40h13 q94 0 128.5 40t34.5 137zM290 769l-166 164l137 18l126 -171z" />
<glyph unicode="&#xd3;" horiz-adv-x="683" d="M348 -10h-13q-150 0 -218.5 61t-68.5 210v197q0 150 68 211t219 61h13q150 0 218.5 -61t68.5 -211v-197q0 -149 -68.5 -210t-218.5 -61zM511 261v197q0 98 -33.5 137.5t-129.5 39.5h-13q-96 0 -129.5 -39.5t-33.5 -137.5v-197q0 -97 34.5 -137t128.5 -40h13 q94 0 128.5 40t34.5 137zM393 770h-107l123 210h142z" />
<glyph unicode="&#xd4;" horiz-adv-x="683" d="M348 -10h-13q-150 0 -218.5 61t-68.5 210v197q0 150 68 211t219 61h13q150 0 218.5 -61t68.5 -211v-197q0 -149 -68.5 -210t-218.5 -61zM511 261v197q0 98 -33.5 137.5t-129.5 39.5h-13q-96 0 -129.5 -39.5t-33.5 -137.5v-197q0 -97 34.5 -137t128.5 -40h13 q94 0 128.5 40t34.5 137zM475 760l-133 68l-134 -68l-29 35l163 150l162 -150z" />
<glyph unicode="&#xd5;" horiz-adv-x="683" d="M348 -10h-13q-150 0 -218.5 61t-68.5 210v197q0 150 68 211t219 61h13q150 0 218.5 -61t68.5 -211v-197q0 -149 -68.5 -210t-218.5 -61zM511 261v197q0 98 -33.5 137.5t-129.5 39.5h-13q-96 0 -129.5 -39.5t-33.5 -137.5v-197q0 -97 34.5 -137t128.5 -40h13 q94 0 128.5 40t34.5 137zM239 764l-62 30q27 69 88 83q35 6 72.5 -12.5t65.5 -17.5q24 -1 46 33l62 -24q-15 -38 -39.5 -60.5t-50.5 -28.5q-35 -6 -72.5 12.5t-65.5 17.5q-23 0 -44 -33z" />
<glyph unicode="&#xd6;" horiz-adv-x="683" d="M348 -10h-13q-150 0 -218.5 61t-68.5 210v197q0 150 68 211t219 61h13q150 0 218.5 -61t68.5 -211v-197q0 -149 -68.5 -210t-218.5 -61zM511 261v197q0 98 -33.5 137.5t-129.5 39.5h-13q-96 0 -129.5 -39.5t-33.5 -137.5v-197q0 -97 34.5 -137t128.5 -40h13 q94 0 128.5 40t34.5 137zM300 770h-113v143h113v-143zM494 770h-113v143h113v-143z" />
<glyph unicode="&#xd7;" horiz-adv-x="591" d="M475 29l-180 170l-182 -171l-73 68l181 169l-179 172l71 68l182 -172l183 171l72 -67l-181 -171l181 -171z" />
<glyph unicode="&#xd8;" horiz-adv-x="718" d="M225 -47h-115l31 75q-100 58 -100 233v197q0 150 68 211t219 61h13q47 0 88 -6l16 38h116l-30 -72q97 -58 97 -232v-197q0 -149 -68.5 -210t-218.5 -61h-13q-47 0 -86 6zM165 261q0 -81 22 -121l204 492q-23 3 -50 3h-13q-96 0 -129.5 -39.5t-33.5 -137.5v-197zM504 261 v197q0 79 -21 118l-203 -489q21 -3 48 -3h13q94 0 128.5 40t34.5 137z" />
<glyph unicode="&#xd9;" horiz-adv-x="699" d="M692 719v-88h-71v-362q0 -154 -63.5 -217t-203.5 -63h-8q-140 0 -203.5 63t-63.5 217v362h-72v88h263v-88h-71v-362q0 -98 31 -137.5t116 -39.5h8q85 0 116 40t31 137v362h-71v88h262zM297 769l-166 164l137 18l126 -171z" />
<glyph unicode="&#xda;" horiz-adv-x="699" d="M692 719v-88h-71v-362q0 -154 -63.5 -217t-203.5 -63h-8q-140 0 -203.5 63t-63.5 217v362h-72v88h263v-88h-71v-362q0 -98 31 -137.5t116 -39.5h8q85 0 116 40t31 137v362h-71v88h262zM399 770h-107l123 210h142z" />
<glyph unicode="&#xdb;" horiz-adv-x="699" d="M692 719v-88h-71v-362q0 -154 -63.5 -217t-203.5 -63h-8q-140 0 -203.5 63t-63.5 217v362h-72v88h263v-88h-71v-362q0 -98 31 -137.5t116 -39.5h8q85 0 116 40t31 137v362h-71v88h262zM482 760l-133 68l-134 -68l-29 35l163 150l162 -150z" />
<glyph unicode="&#xdc;" horiz-adv-x="699" d="M692 719v-88h-71v-362q0 -154 -63.5 -217t-203.5 -63h-8q-140 0 -203.5 63t-63.5 217v362h-72v88h263v-88h-71v-362q0 -98 31 -137.5t116 -39.5h8q85 0 116 40t31 137v362h-71v88h262zM501 770h-113v143h113v-143zM307 770h-113v143h113v-143z" />
<glyph unicode="&#xdd;" horiz-adv-x="658" d="M651 719v-88h-75l-187 -355v-188h72v-88h-264v88h72v188l-190 355h-72v88h263v-88h-65l124 -262l123 262h-64v88h263zM380 770h-107l123 210h142z" />
<glyph unicode="&#xde;" horiz-adv-x="603" d="M278 88v-88h-263v88h72v543h-72v88h263v-88h-71v-73h129q71 0 114.5 -7t78 -27t49.5 -59t15 -102q0 -64 -15 -104t-50 -60.5t-78 -27.5t-114 -7h-129v-76h71zM336 469h-129v-216h129q79 0 105.5 21.5t26.5 88.5q0 65 -26.5 85.5t-105.5 20.5z" />
<glyph unicode="&#xdf;" horiz-adv-x="621" d="M219 18v138h96v-73q39 -9 74 -9q108 0 108 67q0 25 -27.5 41.5t-66.5 29.5t-78 30.5t-66.5 53.5t-27.5 88q0 155 135 155q58 0 58 63q0 10 -4 19.5t-14.5 20.5t-35 18t-60.5 7q-72 0 -95.5 -26t-23.5 -69v-572h-172v88h60v484q0 88 63 136t165 48q98 0 163.5 -43 t65.5 -111q0 -148 -139 -148q-54 0 -54 -58q0 -25 27.5 -42.5t66.5 -30.5t78 -30t66.5 -52.5t27.5 -87.5q0 -50 -17.5 -83.5t-49.5 -50t-66.5 -23t-80.5 -6.5q-55 0 -88 6t-88 22z" />
<glyph unicode="&#xe0;" d="M506 88v-88h-175v46q-96 -50 -147 -54q-18 -3 -45 1q-64 10 -85.5 50.5t-21.5 110.5t21.5 110t85.5 50q31 4 69.5 -2.5t61 -14.5l61.5 -23v74q0 54 -20.5 78t-64.5 24q-37 0 -79 -10v-67h-95v137q93 29 179 29q101 0 147 -49t46 -143v-259h62zM209 250q-63 0 -63 -96 q0 -46 13.5 -70.5t49.5 -24.5q38 0 122 39v119q-85 33 -122 33zM203 589l-166 164l137 18l126 -171z" />
<glyph unicode="&#xe1;" d="M506 88v-88h-175v46q-96 -50 -147 -54q-18 -3 -45 1q-64 10 -85.5 50.5t-21.5 110.5t21.5 110t85.5 50q31 4 69.5 -2.5t61 -14.5l61.5 -23v74q0 54 -20.5 78t-64.5 24q-37 0 -79 -10v-67h-95v137q93 29 179 29q101 0 147 -49t46 -143v-259h62zM209 250q-63 0 -63 -96 q0 -46 13.5 -70.5t49.5 -24.5q38 0 122 39v119q-85 33 -122 33zM305 590h-107l123 210h142z" />
<glyph unicode="&#xe2;" d="M506 88v-88h-175v46q-96 -50 -147 -54q-18 -3 -45 1q-64 10 -85.5 50.5t-21.5 110.5t21.5 110t85.5 50q31 4 69.5 -2.5t61 -14.5l61.5 -23v74q0 54 -20.5 78t-64.5 24q-37 0 -79 -10v-67h-95v137q93 29 179 29q101 0 147 -49t46 -143v-259h62zM209 250q-63 0 -63 -96 q0 -46 13.5 -70.5t49.5 -24.5q38 0 122 39v119q-85 33 -122 33zM387 580l-133 68l-134 -68l-29 35l163 150l162 -150z" />
<glyph unicode="&#xe3;" d="M506 88v-88h-175v46q-96 -50 -147 -54q-18 -3 -45 1q-64 10 -85.5 50.5t-21.5 110.5t21.5 110t85.5 50q31 4 69.5 -2.5t61 -14.5l61.5 -23v74q0 54 -20.5 78t-64.5 24q-37 0 -79 -10v-67h-95v137q93 29 179 29q101 0 147 -49t46 -143v-259h62zM209 250q-63 0 -63 -96 q0 -46 13.5 -70.5t49.5 -24.5q38 0 122 39v119q-85 33 -122 33zM151 584l-62 30q27 69 88 83q35 6 72.5 -12.5t65.5 -17.5q24 -1 46 33l62 -24q-15 -38 -39.5 -60.5t-50.5 -28.5q-35 -6 -72.5 12.5t-65.5 17.5q-23 0 -44 -33z" />
<glyph unicode="&#xe4;" d="M506 88v-88h-175v46q-96 -50 -147 -54q-18 -3 -45 1q-64 10 -85.5 50.5t-21.5 110.5t21.5 110t85.5 50q31 4 69.5 -2.5t61 -14.5l61.5 -23v74q0 54 -20.5 78t-64.5 24q-37 0 -79 -10v-67h-95v137q93 29 179 29q101 0 147 -49t46 -143v-259h62zM209 250q-63 0 -63 -96 q0 -46 13.5 -70.5t49.5 -24.5q38 0 122 39v119q-85 33 -122 33zM213 590h-113v143h113v-143zM407 590h-113v143h113v-143z" />
<glyph unicode="&#xe5;" d="M506 88v-88h-175v46q-96 -50 -147 -54q-18 -3 -45 1q-64 10 -85.5 50.5t-21.5 110.5t21.5 110t85.5 50q31 4 69.5 -2.5t61 -14.5l61.5 -23v74q0 54 -20.5 78t-64.5 24q-37 0 -79 -10v-67h-95v137q93 29 179 29q101 0 147 -49t46 -143v-259h62zM209 250q-63 0 -63 -96 q0 -46 13.5 -70.5t49.5 -24.5q38 0 122 39v119q-85 33 -122 33zM374 693q0 -47 -34 -78t-86 -31t-86 31t-34 78q0 46 34 77t86 31t86 -31t34 -77zM302 693q0 19 -13.5 31.5t-34.5 12.5t-34.5 -12.5t-13.5 -31.5t13.5 -32.5t34.5 -13.5t34.5 13.5t13.5 32.5z" />
<glyph unicode="&#xe6;" horiz-adv-x="765" d="M708 107l21 -82q-95 -37 -186 -37q-95 0 -148 36q-72 -33 -225 -33q-47 0 -77.5 13t-44.5 39t-18.5 52t-4.5 65q0 36 4 60.5t17 49t41.5 36.5t71.5 12q76 0 159 -36v66q0 56 -23.5 79t-73.5 22q-50 -2 -135 -21l-21 82q91 29 174 29q94 0 140 -43q51 43 176 43 q102 0 138 -41t36 -114v-64q0 -97 -296 -101v-23q0 -118 110 -118q82 0 165 29zM318 86v130q0 11 -42.5 20t-78.5 9q-33 0 -45.5 -22t-12.5 -66q0 -45 12.5 -69t45.5 -24q45 0 83 6t38 16zM616 334v47q0 36 -9.5 55.5t-39.5 19.5q-67 0 -100.5 -21.5t-33.5 -77.5v-80 q183 9 183 57z" />
<glyph unicode="&#xe7;" horiz-adv-x="473" d="M420 372h-95v73q-32 4 -51 4q-61 0 -85 -31.5t-24 -86.5v-133q0 -55 24 -86.5t85 -31.5q63 0 142 15l13 -82q-77 -21 -146 -23l-20 -35q39 -1 71.5 -21.5t32.5 -55.5q0 -37 -25 -60t-61.5 -29.5t-76 -3.5t-71.5 15l23 42q19 -9 48 -12t54.5 8t25.5 38q0 20 -14.5 31 t-29.5 13.5t-42 3.5l36 68q-97 9 -140 63.5t-43 155.5v107q0 111 52 166t171 55q65 0 146 -29v-138z" />
<glyph unicode="&#xe8;" horiz-adv-x="497" d="M439 108l21 -82q-93 -36 -186 -36q-120 0 -171.5 54.5t-51.5 166.5v116q0 57 9 95t24.5 61.5t46.5 35.5t65 16t90 4q98 0 133 -39.5t35 -109.5v-70q0 -29 -21 -49t-88 -35.5t-180 -16.5v-21q0 -118 109 -118q85 0 165 28zM347 331v50q0 36 -9.5 55.5t-39.5 19.5 q-70 0 -101.5 -18.5t-31.5 -80.5v-80q182 9 182 54zM214 587l-166 164l137 18l126 -171z" />
<glyph unicode="&#xe9;" horiz-adv-x="497" d="M439 108l21 -82q-93 -36 -186 -36q-120 0 -171.5 54.5t-51.5 166.5v116q0 57 9 95t24.5 61.5t46.5 35.5t65 16t90 4q98 0 133 -39.5t35 -109.5v-70q0 -29 -21 -49t-88 -35.5t-180 -16.5v-21q0 -118 109 -118q85 0 165 28zM347 331v50q0 36 -9.5 55.5t-39.5 19.5 q-70 0 -101.5 -18.5t-31.5 -80.5v-80q182 9 182 54zM316 588h-107l123 210h142z" />
<glyph unicode="&#xea;" horiz-adv-x="497" d="M439 108l21 -82q-93 -36 -186 -36q-120 0 -171.5 54.5t-51.5 166.5v116q0 57 9 95t24.5 61.5t46.5 35.5t65 16t90 4q98 0 133 -39.5t35 -109.5v-70q0 -29 -21 -49t-88 -35.5t-180 -16.5v-21q0 -118 109 -118q85 0 165 28zM347 331v50q0 36 -9.5 55.5t-39.5 19.5 q-70 0 -101.5 -18.5t-31.5 -80.5v-80q182 9 182 54zM398 578l-133 68l-134 -68l-29 35l163 150l162 -150z" />
<glyph unicode="&#xeb;" horiz-adv-x="497" d="M439 108l21 -82q-93 -36 -186 -36q-120 0 -171.5 54.5t-51.5 166.5v116q0 57 9 95t24.5 61.5t46.5 35.5t65 16t90 4q98 0 133 -39.5t35 -109.5v-70q0 -29 -21 -49t-88 -35.5t-180 -16.5v-21q0 -118 109 -118q85 0 165 28zM347 331v50q0 36 -9.5 55.5t-39.5 19.5 q-70 0 -101.5 -18.5t-31.5 -80.5v-80q182 9 182 54zM224 588h-113v143h113v-143zM418 588h-113v143h113v-143z" />
<glyph unicode="&#xec;" horiz-adv-x="267" d="M256 88v-88h-237v88h63v353h-60v88h173v-441h61zM151 589l-166 164l137 18l126 -171z" />
<glyph unicode="&#xed;" horiz-adv-x="267" d="M256 88v-88h-237v88h63v353h-60v88h173v-441h61zM199 590h-107l123 210h142z" />
<glyph unicode="&#xee;" horiz-adv-x="267" d="M256 88v-88h-237v88h63v353h-60v88h173v-441h61zM267 580l-133 68l-134 -68l-29 35l163 150l162 -150z" />
<glyph unicode="&#xef;" horiz-adv-x="267" d="M256 88v-88h-237v88h63v353h-60v88h173v-441h61zM287 590h-113v143h113v-143zM93 590h-113v143h113v-143z" />
<glyph unicode="&#xf0;" horiz-adv-x="640" d="M145 645l28 86q44 -11 80 -24l30 65l70 -30l-29 -63q277 -124 286 -422q1 -4 1 -11v-27q0 -119 -67 -174t-207 -55h-7q-140 0 -207 55t-67 174v27q0 120 58.5 175t179.5 55h7q91 0 171 -44q-66 102 -186 162l-30 -65l-70 30l29 65q-34 12 -70 21zM330 84h7q89 0 122 34.5 t33 101.5v25q0 69 -33 103t-122 34h-7q-89 0 -122 -34t-33 -103v-25q0 -67 33 -101.5t122 -34.5z" />
<glyph unicode="&#xf1;" horiz-adv-x="560" d="M549 88v-88h-176v349q0 52 -9 76.5t-38 24.5q-30 0 -131 -60v-302h61v-88h-237v88h62v353h-58v88h172v-72q123 82 175 82q32 0 54.5 -11t34.5 -26.5t18.5 -43t8 -50.5t1.5 -59v-261h62zM202 582l-62 30q27 69 88 83q35 6 72.5 -12.5t65.5 -17.5q24 -1 46 33l62 -24 q-15 -38 -39.5 -60.5t-50.5 -28.5q-35 -6 -72.5 12.5t-65.5 17.5q-23 0 -44 -33z" />
<glyph unicode="&#xf2;" horiz-adv-x="519" d="M468 386v-243q0 -81 -50.5 -117t-158.5 -36t-158 36t-50 117v243q0 81 50 117t158 36t158.5 -36t50.5 -117zM355 144v241q0 36 -22 53.5t-74 17.5q-51 0 -73 -17.5t-22 -53.5v-241q0 -71 95 -71q96 0 96 71zM208 587l-166 164l137 18l126 -171z" />
<glyph unicode="&#xf3;" horiz-adv-x="519" d="M468 386v-243q0 -81 -50.5 -117t-158.5 -36t-158 36t-50 117v243q0 81 50 117t158 36t158.5 -36t50.5 -117zM355 144v241q0 36 -22 53.5t-74 17.5q-51 0 -73 -17.5t-22 -53.5v-241q0 -71 95 -71q96 0 96 71zM311 588h-107l123 210h142z" />
<glyph unicode="&#xf4;" horiz-adv-x="519" d="M468 386v-243q0 -81 -50.5 -117t-158.5 -36t-158 36t-50 117v243q0 81 50 117t158 36t158.5 -36t50.5 -117zM355 144v241q0 36 -22 53.5t-74 17.5q-51 0 -73 -17.5t-22 -53.5v-241q0 -71 95 -71q96 0 96 71zM393 578l-133 68l-134 -68l-29 35l163 150l162 -150z" />
<glyph unicode="&#xf5;" horiz-adv-x="519" d="M468 386v-243q0 -81 -50.5 -117t-158.5 -36t-158 36t-50 117v243q0 81 50 117t158 36t158.5 -36t50.5 -117zM355 144v241q0 36 -22 53.5t-74 17.5q-51 0 -73 -17.5t-22 -53.5v-241q0 -71 95 -71q96 0 96 71zM157 582l-62 30q27 69 88 83q35 6 72.5 -12.5t65.5 -17.5 q24 -1 46 33l62 -24q-15 -38 -39.5 -60.5t-50.5 -28.5q-35 -6 -72.5 12.5t-65.5 17.5q-23 0 -44 -33z" />
<glyph unicode="&#xf6;" horiz-adv-x="519" d="M468 386v-243q0 -81 -50.5 -117t-158.5 -36t-158 36t-50 117v243q0 81 50 117t158 36t158.5 -36t50.5 -117zM355 144v241q0 36 -22 53.5t-74 17.5q-51 0 -73 -17.5t-22 -53.5v-241q0 -71 95 -71q96 0 96 71zM218 588h-113v143h113v-143zM412 588h-113v143h113v-143z" />
<glyph unicode="&#xf7;" horiz-adv-x="441" d="M417 233h-392v108h392v-108zM275 0h-113v143h113v-143zM275 425h-113v144h113v-144z" />
<glyph unicode="&#xf8;" horiz-adv-x="506" d="M115 -55h-71l46 85q-46 39 -46 119v231q0 84 50.5 121.5t158.5 37.5q61 0 104 -12l34 63h71l-49 -90q48 -39 48 -120v-231q0 -84 -50 -121.5t-158 -37.5q-63 0 -107 12zM348 150v228l-157 -293q23 -12 62 -12q95 0 95 77zM157 379v-224l156 290q-24 11 -60 11 q-51 0 -73.5 -19t-22.5 -58z" />
<glyph unicode="&#xf9;" horiz-adv-x="550" d="M69 441h-58v88h172v-355q0 -52 9 -76.5t38 -24.5q34 0 131 36v332h-58v88h172v-441h58v-88h-172v49q-118 -59 -175 -59q-32 0 -54.5 11t-34.5 26.5t-18.5 43t-8 50.5t-1.5 59v261zM203 587l-166 164l137 18l126 -171z" />
<glyph unicode="&#xfa;" horiz-adv-x="550" d="M69 441h-58v88h172v-355q0 -52 9 -76.5t38 -24.5q34 0 131 36v332h-58v88h172v-441h58v-88h-172v49q-118 -59 -175 -59q-32 0 -54.5 11t-34.5 26.5t-18.5 43t-8 50.5t-1.5 59v261zM305 588h-107l123 210h142z" />
<glyph unicode="&#xfb;" horiz-adv-x="550" d="M69 441h-58v88h172v-355q0 -52 9 -76.5t38 -24.5q34 0 131 36v332h-58v88h172v-441h58v-88h-172v49q-118 -59 -175 -59q-32 0 -54.5 11t-34.5 26.5t-18.5 43t-8 50.5t-1.5 59v261zM388 578l-133 68l-134 -68l-29 35l163 150l162 -150z" />
<glyph unicode="&#xfc;" horiz-adv-x="550" d="M69 441h-58v88h172v-355q0 -52 9 -76.5t38 -24.5q34 0 131 36v332h-58v88h172v-441h58v-88h-172v49q-118 -59 -175 -59q-32 0 -54.5 11t-34.5 26.5t-18.5 43t-8 50.5t-1.5 59v261zM407 588h-113v143h113v-143zM213 588h-113v143h113v-143z" />
<glyph unicode="&#xfd;" horiz-adv-x="529" d="M69 441h-58v88h172v-355q0 -52 9 -76.5t38 -24.5q34 0 131 36v332h-58v88h172v-593q0 -164 -143 -164q-66 0 -257 50l23 82q170 -42 210 -42q35 0 44 23.5t9 86.5v77q-118 -59 -175 -59q-32 0 -54.5 11t-34.5 26.5t-18.5 43t-8 50.5t-1.5 59v261zM300 588h-107l123 210 h142z" />
<glyph unicode="&#xfe;" horiz-adv-x="539" d="M283 -128v-88h-267v88h62v759h-62v88h267v-88h-91v-175q69 57 167 57q35 0 60 -10.5t38 -25.5t20.5 -41.5t9 -49t1.5 -57.5v-155q0 -35 -1.5 -57.5t-9 -49t-20.5 -41.5t-38 -25.5t-60 -10.5q-98 0 -167 57v-175h91zM374 174v155q0 26 -1 40t-5 30.5t-14 23.5t-27 7 q-97 0 -135 -36v-285q38 -36 135 -36q17 0 27 7t14 23.5t5 30.5t1 40z" />
<glyph unicode="&#xff;" horiz-adv-x="529" d="M183 529v-355q0 -52 9 -76.5t38 -24.5q34 0 131 36v332h-58v88h172v-593q0 -164 -143 -164q-66 0 -257 50l23 82q170 -42 210 -42q35 0 44 23.5t9 86.5v77q-118 -59 -175 -59q-32 0 -54.5 11t-34.5 26.5t-18.5 43t-8 50.5t-1.5 59v261h-58v88h172zM402 588h-113v143h113 v-143zM208 588h-113v143h113v-143z" />
<glyph unicode="&#x152;" horiz-adv-x="1000" d="M970 558h-102v73h-233v-217h216v-88h-216v-238h233v73h102v-161h-455v17q-63 -27 -167 -27h-13q-150 0 -218.5 61t-68.5 210v197q0 150 68 211t219 61h13q105 0 167 -28v17h455v-161zM511 261v197q0 98 -33.5 137.5t-129.5 39.5h-13q-96 0 -129.5 -39.5t-33.5 -137.5 v-197q0 -97 34.5 -137t128.5 -40h13q94 0 128.5 40t34.5 137z" />
<glyph unicode="&#x153;" horiz-adv-x="795" d="M729 108l21 -82q-93 -36 -186 -36q-95 0 -148 35q-51 -35 -158 -35q-108 0 -158 36t-50 117v243q0 81 50 117t158 36q96 0 146 -28q46 28 172 28q98 0 133 -39.5t35 -109.5v-70q0 -44 -60 -71t-217 -30v-88q23 -51 97 -51q85 0 165 28zM258 73q79 0 93 48q-10 37 -10 90 v116q0 55 7 90q-17 39 -90 39q-51 0 -73 -17.5t-22 -53.5v-241q0 -71 95 -71zM637 331v50q0 36 -9.5 55.5t-39.5 19.5q-52 0 -81 -8.5t-42 -34.5q2 -16 2 -27v-109q170 10 170 54z" />
<glyph unicode="&#x178;" horiz-adv-x="658" d="M651 719v-88h-75l-187 -355v-188h72v-88h-264v88h72v188l-190 355h-72v88h263v-88h-65l124 -262l123 262h-64v88h263zM288 770h-113v143h113v-143zM482 770h-113v143h113v-143z" />
<glyph unicode="&#x2c6;" horiz-adv-x="408" d="M336 580l-133 68l-134 -68l-29 35l163 150l162 -150z" />
<glyph unicode="&#x2dc;" horiz-adv-x="379" d="M85 584l-62 30q27 69 88 83q35 6 72.5 -12.5t65.5 -17.5q24 -1 46 33l62 -24q-15 -38 -39.5 -60.5t-50.5 -28.5q-35 -6 -72.5 12.5t-65.5 17.5q-23 0 -44 -33z" />
<glyph unicode="&#x2000;" horiz-adv-x="490" />
<glyph unicode="&#x2001;" horiz-adv-x="981" />
<glyph unicode="&#x2002;" horiz-adv-x="490" />
<glyph unicode="&#x2003;" horiz-adv-x="981" />
<glyph unicode="&#x2004;" horiz-adv-x="327" />
<glyph unicode="&#x2005;" horiz-adv-x="245" />
<glyph unicode="&#x2006;" horiz-adv-x="163" />
<glyph unicode="&#x2007;" horiz-adv-x="163" />
<glyph unicode="&#x2008;" horiz-adv-x="122" />
<glyph unicode="&#x2009;" horiz-adv-x="196" />
<glyph unicode="&#x200a;" horiz-adv-x="54" />
<glyph unicode="&#x2010;" horiz-adv-x="366" d="M315 249h-263v94h263v-94z" />
<glyph unicode="&#x2011;" horiz-adv-x="366" d="M315 249h-263v94h263v-94z" />
<glyph unicode="&#x2013;" horiz-adv-x="581" d="M527 249h-472v94h472v-94z" />
<glyph unicode="&#x2014;" horiz-adv-x="846" d="M794 249h-742v94h742v-94z" />
<glyph unicode="&#x2018;" horiz-adv-x="221" d="M139 466h-130l100 253h97z" />
<glyph unicode="&#x2019;" horiz-adv-x="222" d="M114 467h-97l66 252h131z" />
<glyph unicode="&#x201a;" horiz-adv-x="233" d="M117 -125h-97l62 256h129z" />
<glyph unicode="&#x201c;" horiz-adv-x="455" d="M175 466h-129l98 253h98zM348 466h-129l98 253h97z" />
<glyph unicode="&#x201d;" horiz-adv-x="439" d="M281 719h129l-97 -253h-100zM107 719h130l-99 -253h-97z" />
<glyph unicode="&#x201e;" horiz-adv-x="423" d="M117 -125h-97l62 256h129zM307 -125h-97l62 256h129z" />
<glyph unicode="&#x2022;" horiz-adv-x="329" d="M275 125h-220v295h220v-295z" />
<glyph unicode="&#x2026;" horiz-adv-x="610" d="M158 0h-113v131h113v-131zM362 0h-114v131h114v-131zM565 0h-113v131h113v-131z" />
<glyph unicode="&#x202f;" horiz-adv-x="196" />
<glyph unicode="&#x2039;" horiz-adv-x="331" d="M227 46l-203 229l203 230l76 -65l-138 -165l137 -163z" />
<glyph unicode="&#x203a;" horiz-adv-x="330" d="M306 275l-203 -229l-75 66l138 163l-138 165l75 65z" />
<glyph unicode="&#x205f;" horiz-adv-x="245" />
<glyph unicode="&#x20ac;" horiz-adv-x="652" d="M598 532h-102v93q-35 8 -71 8h-14q-99 0 -134 -38.5t-35 -136.5v-66h168l-20 -67h-148v-46h168l-20 -67h-146q7 -68 44 -97t123 -29h14q69 0 156 31l23 -95q-90 -32 -179 -32h-14q-140 0 -210 50.5t-81 171.5h-96l16 67h78v46h-94l16 67h78v66q0 150 70 211t223 61h14 q109 0 173 -36v-162z" />
<glyph unicode="&#x2122;" horiz-adv-x="875" d="M846 424v-64h-124l-42 211l-79 -216h-83l-82 216l-40 -211h-124v64h50l56 231h-42v64h131l92 -259l93 259h129v-64h-41l56 -231h50zM308 623h-69v32h-41v-231h41v-64h-164v64h41v231h-41v-32h-69v96h302v-96z" />
</font>
</defs>
</svg>
