<?xml version="1.0" standalone="no"?>
<!DOCTYPE svg PUBLIC "-//W3C//DTD SVG 1.1//EN" "http://www.w3.org/Graphics/SVG/1.1/DTD/svg11.dtd" >
<svg xmlns="http://www.w3.org/2000/svg">
<metadata>
This is a custom SVG webfont generated by Fontspring.
Designer    : http://www.insignedesign.com
Foundry     : Jeremy Dooley
Foundry URL : http://www.insignedesign.com
</metadata>
<defs>
<font id="webfont" horiz-adv-x="570" >
<font-face units-per-em="1000" ascent="750" descent="-250" />
<missing-glyph horiz-adv-x="225" />
<glyph unicode=" "  horiz-adv-x="225" />
<glyph unicode="&#x09;" horiz-adv-x="225" />
<glyph unicode="&#xa0;" horiz-adv-x="225" />
<glyph unicode="!" horiz-adv-x="232" d="M202 248h-171v499h171v-499zM202 2h-171v193h171v-193z" />
<glyph unicode="&#x22;" horiz-adv-x="430" d="M180 418h-130l-19 301h168zM380 418h-130l-19 301h168z" />
<glyph unicode="#" horiz-adv-x="795" d="M250 0h-165l42 125h-96v162h150l27 79h-87v162h141l52 155h165l-52 -155h62l52 155h166l-53 -155h67v-162h-121l-27 -79h78v-162h-132l-42 -125h-164l41 125h-62zM373 366l-27 -79h62l27 79h-62z" />
<glyph unicode="$" horiz-adv-x="569" d="M368 -87h-167v79q-75 6 -186 37h-1v205h152v-94q52 -15 85 -15q124 0 124 80q0 32 -36.5 51.5t-88.5 34t-104.5 35.5t-89 68.5t-36.5 120.5q0 181 201 210v86h167v-87q69 -11 139 -44v-205h-152v110q-30 10 -54 10q-120 0 -120 -71q0 -28 26.5 -47.5t65.5 -30t85.5 -27.5 t85.5 -38t65.5 -64t26.5 -104q0 -92 -51.5 -144t-136.5 -69v-87z" />
<glyph unicode="%" horiz-adv-x="1034" d="M384 432q0 -160 -186 -160t-186 160v141q0 160 186 160t186 -160v-141zM172 434q0 -19 4.5 -27t21.5 -8q10 0 16 3.5t8 12.5t2.5 15.5t0 21.5t-0.5 21v98q0 19 -4.5 27t-21.5 8q-10 0 -16 -3.5t-8 -12.5t-2.5 -15.5t0 -21.5t0.5 -21v-98zM348 -9h-197l506 726h198z M1002 150q0 -160 -186 -160t-186 160v141q0 160 186 160t186 -160v-141zM790 152q0 -19 4.5 -27t21.5 -8q10 0 16 3.5t8 12.5t2.5 15.5t0 21.5t-0.5 21v98q0 19 -4.5 27t-21.5 8q-10 0 -16 -3.5t-8 -12.5t-2.5 -15.5t0 -21.5t0.5 -21v-98z" />
<glyph unicode="&#x26;" horiz-adv-x="876" d="M842 255h-142v60h-17v-183h46v-132h-271v132h46v183h-202q-91 0 -91 -78v-42q0 -41 31 -56t85 -15q38 0 90 8l19 -129q-71 -13 -108 -13q-53 0 -90.5 3.5t-79.5 15.5t-68 33.5t-43 60t-17 92.5v42q0 50 24.5 88t80.5 49q-57 17 -74.5 45t-17.5 76v27q0 116 73.5 162 t224.5 46q89 0 234 -29v-205h-152v84q-47 6 -75 6q-77 0 -101.5 -15.5t-24.5 -48.5v-27q0 -45 92 -45h528v-195z" />
<glyph unicode="'" horiz-adv-x="226" d="M180 418h-130l-19 301h168z" />
<glyph unicode="(" horiz-adv-x="340" d="M209 301q0 -100 33.5 -229.5t87.5 -199.5l-59 -51q-241 189 -241 480t241 480l59 -51q-54 -70 -87.5 -199.5t-33.5 -229.5z" />
<glyph unicode=")" horiz-adv-x="340" d="M131 301q0 100 -33.5 229.5t-87.5 199.5l59 51q241 -189 241 -480t-241 -480l-59 51q54 70 87.5 199.5t33.5 229.5z" />
<glyph unicode="*" horiz-adv-x="493" d="M303 340l-56 109l-55 -109l-139 95l102 71l-139 14l68 151l108 -68l-32 116h176l-33 -116l109 68l65 -151l-140 -14l104 -72z" />
<glyph unicode="+" horiz-adv-x="565" d="M367 20h-165v168h-192v158h192v167h165v-167h188v-158h-188v-168z" />
<glyph unicode="," horiz-adv-x="316" d="M162 -125h-147l76 298h200z" />
<glyph unicode="-" horiz-adv-x="373" d="M342 225h-311v142h311v-142z" />
<glyph unicode="." horiz-adv-x="223" d="M198 0h-173v173h173v-173z" />
<glyph unicode="/" horiz-adv-x="539" d="M181 -42h-175l341 773h176z" />
<glyph unicode="0" horiz-adv-x="636" d="M314 -10q-144 0 -217 68.5t-73 193.5v214q0 125 73.5 194.5t216.5 69.5h8q143 0 216.5 -69.5t73.5 -194.5v-214q0 -125 -73 -193.5t-217 -68.5h-8zM314 131h8q35 0 57 10t31 30t11.5 37.5t2.5 45.5v211q0 23 -1 36.5t-6.5 32.5t-15.5 29.5t-30 18.5t-49 8h-8 q-29 0 -49 -8t-30 -18.5t-15.5 -29.5t-6.5 -32.5t-1 -36.5v-211q0 -28 2.5 -45.5t11.5 -37.5t31 -30t57 -10z" />
<glyph unicode="1" horiz-adv-x="369" d="M353 132v-132h-271v132h45v432h-44v155h226v-587h44z" />
<glyph unicode="2" horiz-adv-x="644" d="M196 469h-152v205q122 55 252 55q146 0 222 -52.5t76 -180.5q0 -28 -11 -56.5t-24 -50.5t-44 -52l-50 -47t-65.5 -50l-66.5 -46.5l-75 -49.5h194v101h152v-245h-574v144q193 140 284.5 222t91.5 134q0 54 -24.5 72t-85.5 18q-53 0 -100 -17v-104z" />
<glyph unicode="3" horiz-adv-x="616" d="M193 476h-152v205q116 49 234 49q156 0 232 -46t76 -162v-27q0 -48 -17.5 -76t-74.5 -45q56 -11 80.5 -49t24.5 -88v-42q0 -60 -25.5 -102t-72 -63.5t-99 -30.5t-120.5 -9q-88 0 -249 23v205h152v-81q51 -6 97 -6q136 0 136 64v42q0 37 -27 51t-74 14h-81v134h69 q45 0 73.5 14.5t28.5 44.5v27q0 33 -26.5 50t-109.5 17q-27 0 -75 -8v-105z" />
<glyph unicode="4" horiz-adv-x="619" d="M581 132v-132h-271v132h49v36h-339v134l336 417h217l-345 -417h131v139h174v-139h86v-134h-86v-36h48z" />
<glyph unicode="5" horiz-adv-x="612" d="M553 514h-152v74h-172l-15 -108q198 -4 288 -61.5t90 -184.5v-4q0 -66 -25 -114t-70 -74.5t-100.5 -39t-123.5 -12.5q-93 0 -243 33v205h152v-94q41 -7 78 -7q152 0 152 103v4q0 36 -9.5 54.5t-47.5 35.5t-115.5 23t-210.5 6l52 366h472v-205z" />
<glyph unicode="6" horiz-adv-x="623" d="M469 731l40 -131q-186 -33 -285 -146q74 32 146 32h8q118 0 174 -56.5t56 -187.5v-10q0 -131 -70 -186.5t-220 -55.5h-8q-150 0 -220 55.5t-70 186.5v4q0 206 106 330t343 165zM310 131h8q38 0 61.5 7.5t33 24.5t12 31t2.5 40v7q0 27 -2 40.5t-11.5 31t-33 25t-62.5 7.5 h-8q-39 0 -62.5 -7.5t-33 -25t-11.5 -31t-2 -40.5v-7q0 -26 2.5 -40t12 -31t33 -24.5t61.5 -7.5z" />
<glyph unicode="7" horiz-adv-x="578" d="M167 514h-152v205h553v-131l-335 -588h-197l355 588h-224v-74z" />
<glyph unicode="8" horiz-adv-x="658" d="M363 -10h-68q-74 0 -120.5 8.5t-82.5 32.5t-51.5 68t-15.5 113q0 56 29 103.5t75 59.5q-82 25 -82 150v4q0 62 14.5 102t47.5 61.5t76 29.5t110 8h68q67 0 110 -8t76 -29.5t47.5 -61.5t14.5 -102v-4q0 -125 -82 -150q46 -12 75 -59.5t29 -103.5q0 -69 -15.5 -113 t-51.5 -68t-82.5 -32.5t-120.5 -8.5zM292 132h74q54 0 70 16t16 68q0 49 -17 66t-73 17h-66q-56 0 -73 -17t-17 -66q0 -53 15 -68.5t71 -15.5zM363 593h-68q-45 0 -58.5 -12.5t-13.5 -52.5q0 -44 14.5 -58t58.5 -14h66q44 0 58.5 14t14.5 58q0 40 -13.5 52.5t-58.5 12.5z " />
<glyph unicode="9" horiz-adv-x="623" d="M154 -13l-40 131q182 31 285 145q-75 -31 -146 -31h-8q-118 0 -174 56.5t-56 187.5v10q0 131 70 186.5t220 55.5h8q150 0 220 -55.5t70 -186.5v-10q-2 -203 -108 -326t-341 -163zM313 587h-8q-38 0 -61.5 -7.5t-33 -24.5t-12 -31t-2.5 -40v-7q0 -27 2 -40.5t11.5 -31 t33 -25t62.5 -7.5h8q39 0 62.5 7.5t33 25t11.5 31t2 40.5v7q0 26 -2.5 40t-12 31t-33 24.5t-61.5 7.5z" />
<glyph unicode=":" horiz-adv-x="221" d="M196 0h-171v173h171v-173zM196 365h-171v172h171v-172z" />
<glyph unicode=";" horiz-adv-x="297" d="M247 345h-172v192h172v-192zM144 -125h-147l76 298h200z" />
<glyph unicode="&#x3c;" horiz-adv-x="611" d="M553 130v-140l-504 216v120l504 216v-140l-330 -136z" />
<glyph unicode="=" horiz-adv-x="559" d="M517 276h-485v155h485v-155zM517 86h-486v156h486v-156z" />
<glyph unicode="&#x3e;" horiz-adv-x="511" d="M49 -10v140l330 136l-330 136v140l504 -216v-120z" />
<glyph unicode="?" horiz-adv-x="504" d="M177 477h-152v205q116 47 215 47q56 0 100 -9t81.5 -31t57.5 -63t20 -100q0 -35 -18 -68.5t-44 -59t-52 -48.5t-44 -46.5t-18 -44.5v-74h-170v74q0 37 26 77.5t57.5 69.5t57.5 62.5t26 57.5q0 65 -70 65q-44 0 -73 -7v-107zM325 -4h-172v163h172v-163z" />
<glyph unicode="@" horiz-adv-x="801" d="M503 130l22 -152q-50 -15 -103 -15q-90 0 -160 19t-125.5 62t-85.5 119.5t-30 183.5t61 196t157 137.5t203 48.5q168 0 281 -94t113 -230q0 -144 -58.5 -212.5t-176.5 -68.5q-64 0 -125 47q-65 -23 -91 -23q-70 0 -114.5 42t-44.5 109q0 89 57 155t167 66q78 0 117 -32.5 t39 -83.5q0 -27 -14 -71q-26 -83 18 -83q19 0 35.5 51.5t16.5 99.5q0 73 -63.5 121.5t-156.5 48.5q-105 0 -176 -69t-71 -155q0 -71 15.5 -117t48 -69t70.5 -31t96 -8q45 0 78 8zM406 284q22 3 37 23.5t17 46.5q-1 10 -2.5 17.5t-8.5 13t-18 3.5q-57 -8 -62 -68 q-2 -17 8.5 -28t28.5 -8z" />
<glyph unicode="A" horiz-adv-x="758" d="M294 132v-132h-289v132h65l178 455h-55v132h264l230 -587h66v-132h-289v132h38l-18 58h-210l-19 -58h39zM379 522l-63 -197h125z" />
<glyph unicode="B" horiz-adv-x="690" d="M414 0h-394v132h60v455h-60v132h382q58 0 99.5 -5t69 -18t44 -28t25 -41t11 -51t2.5 -64q0 -64 -38 -99.5t-90 -39.5q73 -3 112 -47t39 -105v-13q0 -56 -8.5 -90t-35 -63.5t-80 -42t-138.5 -12.5zM488 208v13q0 52 -15 70t-59 18h-152v-177h152q44 0 59 16.5t15 59.5z M262 431h140q38 0 50.5 17t12.5 64q0 40 -13 57.5t-50 17.5h-140v-156z" />
<glyph unicode="C" horiz-adv-x="606" d="M566 475h-152v106q-21 4 -49 4h-18q-44 0 -70.5 -7.5t-39 -27t-16 -41t-3.5 -60.5v-178q0 -39 3.5 -60.5t16 -41t39 -27t70.5 -7.5h18q70 0 176 41l35 -142q-111 -44 -211 -44h-18q-166 0 -241.5 63t-75.5 218v178q0 155 75.5 218t241.5 63h18q125 0 201 -50v-205z" />
<glyph unicode="D" horiz-adv-x="700" d="M383 719q66 0 114 -7t79.5 -24.5t50.5 -37.5t28.5 -54.5t12 -66t2.5 -81.5v-177q0 -81 -10.5 -129t-42 -82t-87 -47t-147.5 -13h-363v132h60v455h-60v132h363zM482 271v177q0 39 -3.5 61t-16 42t-39 28t-70.5 8h-91v-455h91q44 0 70.5 8t39 28t16 42t3.5 61z" />
<glyph unicode="E" horiz-adv-x="604" d="M587 514h-152v73h-173v-150h173v-132h-173v-173h173v73h152v-205h-567v132h60v455h-60v132h567v-205z" />
<glyph unicode="F" horiz-adv-x="591" d="M585 514h-152v73h-171v-168h171v-132h-171v-155h61v-132h-303v132h61v455h-61v132h565v-205z" />
<glyph unicode="G" horiz-adv-x="642" d="M606 471h-152v103q-53 11 -89 11h-18q-44 0 -70.5 -7.5t-39 -27t-16 -41t-3.5 -60.5v-178q0 -39 3.5 -60.5t16 -41t39 -27t70.5 -7.5h18q38 0 60 13v197h182v-289q-106 -66 -242 -66h-18q-166 0 -241.5 63t-75.5 218v178q0 155 75.5 218t241.5 63h18q73 0 123.5 -12 t117.5 -42v-205z" />
<glyph unicode="H" horiz-adv-x="766" d="M746 132v-132h-302v132h60v167h-242v-167h60v-132h-302v132h60v455h-60v132h302v-132h-60v-156h242v156h-60v132h302v-132h-60v-455h60z" />
<glyph unicode="I" horiz-adv-x="342" d="M322 132v-132h-302v132h60v455h-60v132h302v-132h-60v-455h60z" />
<glyph unicode="J" horiz-adv-x="312" d="M307 719v-132h-60v-578q0 -124 -43 -180t-138 -56q-80 0 -164 38l50 124q73 -20 90 -20q13 0 18 20t5 76v576h-60v132h302z" />
<glyph unicode="K" horiz-adv-x="688" d="M322 132v-132h-302v132h60v455h-60v132h302v-132h-60v-195l202 327h202v-132h-77l-144 -216l159 -239h79v-132h-202l-219 350v-218h60z" />
<glyph unicode="L" horiz-adv-x="563" d="M323 719v-132h-60v-455h138v73h152v-205h-533v132h61v455h-61v132h303z" />
<glyph unicode="M" horiz-adv-x="1081" d="M361 719l179 -511l179 511h242v-132h-57l109 -455h63v-132h-293v132h50l-56 294l-150 -436h-174l-155 436l-53 -294h53v-132h-293v132h62l109 455h-57v132h242z" />
<glyph unicode="N" horiz-adv-x="749" d="M684 0h-182l-240 433v-301h60v-132h-302v132h60v455h-60v132h242l240 -444v312h-60v132h302v-132h-60v-587z" />
<glyph unicode="O" horiz-adv-x="685" d="M348 -10h-11q-160 0 -233.5 63t-73.5 218v178q0 155 73.5 218t233.5 63h11q160 0 233.5 -63t73.5 -218v-178q0 -155 -73.5 -218t-233.5 -63zM467 271v178q0 78 -21 108.5t-98 30.5h-11q-77 0 -98 -30.5t-21 -108.5v-178q0 -78 21 -108.5t98 -30.5h11q77 0 98 30.5 t21 108.5z" />
<glyph unicode="P" horiz-adv-x="655" d="M322 132v-132h-302v132h60v455h-60v132h340q76 0 126 -10t87.5 -36t54.5 -74t17 -121q0 -74 -17 -121.5t-55 -73.5t-87.5 -35.5t-125.5 -9.5h-98v-106h60zM262 370h98q61 0 78 21t17 87q0 67 -17 88t-78 21h-98v-217z" />
<glyph unicode="Q" horiz-adv-x="685" d="M524 -50l32 -145q-88 -23 -125 -23q-91 0 -134.5 37t-43.5 140v36q-115 14 -169 78.5t-54 197.5v178q0 155 73.5 218t233.5 63h11q160 0 233.5 -63t73.5 -218v-178q0 -134 -54.5 -198.5t-170.5 -77.5v-46q0 -15 18 -15q9 0 76 16zM467 271v178q0 78 -21 108.5t-98 30.5 h-11q-77 0 -98 -30.5t-21 -108.5v-178q0 -78 21 -108.5t98 -30.5h11q77 0 98 30.5t21 108.5z" />
<glyph unicode="R" horiz-adv-x="669" d="M659 132v-132h-202l-106 238h-89v-106h60v-132h-302v132h60v455h-60v132h340q76 0 126 -10t87.5 -36t54.5 -74t17 -121q0 -93 -28.5 -145t-87.5 -74l60 -127h70zM262 370h98q61 0 78 21t17 87q0 67 -17 88t-78 21h-98v-217z" />
<glyph unicode="S" horiz-adv-x="569" d="M527 475h-152v110q-30 10 -54 10q-120 0 -120 -71q0 -28 26.5 -47.5t65.5 -30t85.5 -27.5t85.5 -38t65.5 -64t26.5 -104t-24 -105.5t-65.5 -69.5t-90.5 -36.5t-106 -11.5q-78 0 -125 8t-130 31h-1v205h152v-94q52 -15 85 -15q124 0 124 80q0 32 -36.5 51.5t-88.5 34 t-104.5 35.5t-89 68.5t-36.5 120.5q0 215 281 215q123 0 226 -50v-205z" />
<glyph unicode="T" horiz-adv-x="631" d="M621 514h-152v73h-62v-455h60v-132h-302v132h60v455h-63v-73h-152v205h611v-205z" />
<glyph unicode="U" horiz-adv-x="712" d="M707 719v-132h-59v-316q0 -156 -67 -219t-221 -63h-8q-153 0 -220 63t-67 219v316h-60v132h302v-132h-60v-317q0 -37 2.5 -56.5t12.5 -37.5t31.5 -25t58.5 -7h8q71 0 88 26.5t17 99.5v317h-59v132h301z" />
<glyph unicode="V" horiz-adv-x="700" d="M307 719v-132h-57l100 -370l99 370h-56v132h302v-132h-61l-206 -597h-157l-206 597h-60v132h302z" />
<glyph unicode="W" horiz-adv-x="1040" d="M287 719v-132h-48l79 -343l125 476h150l129 -476l77 343h-46v132h282v-132h-55l-194 -587h-150l-117 431l-117 -431h-150l-195 587h-52v132h282z" />
<glyph unicode="X" horiz-adv-x="671" d="M297 132v-132h-292v132h70l149 228l-148 227h-71v132h292v-132h-30l68 -117l67 117h-29v132h292v-132h-72l-147 -227l149 -228h71v-132h-292v132h28l-67 114l-67 -114h29z" />
<glyph unicode="Y" horiz-adv-x="665" d="M660 719v-132h-63l-174 -321v-134h60v-132h-302v132h60v134l-175 321h-61v132h302v-132h-55l80 -182l80 182h-54v132h302z" />
<glyph unicode="Z" horiz-adv-x="591" d="M189 514h-152v205h525v-132l-328 -455h185v73h152v-205h-551v132l328 455h-159v-73z" />
<glyph unicode="[" horiz-adv-x="295" d="M275 -129h-245v849h245v-144h-74v-561h74v-144z" />
<glyph unicode="\" horiz-adv-x="514" d="M508 -16h-171l-332 748h170z" />
<glyph unicode="]" horiz-adv-x="295" d="M265 -129h-245v144h74v561h-74v144h245v-849z" />
<glyph unicode="^" horiz-adv-x="566" d="M283 677l271 -306h-209l-62 82l-63 -82h-208z" />
<glyph unicode="_" horiz-adv-x="608" d="M577 -59h-546v160h546v-160z" />
<glyph unicode="`" horiz-adv-x="391" d="M222 589l-215 200l213 27l159 -209z" />
<glyph unicode="a" horiz-adv-x="525" d="M520 132v-132h-222v46q-89 -56 -142 -56q-19 0 -42 5q-35 9 -56.5 25t-30.5 41t-11.5 44.5t-2.5 50.5t2.5 50.5t11.5 44.5t30.5 41.5t56.5 24.5q68 15 184 -31v44q0 75 -59 75q-30 0 -45 -2v-58h-142v165q102 27 196 27q110 0 166 -54.5t56 -153.5v-197h50zM231 226 q-46 0 -46 -70q0 -68 46 -68q13 0 67 28v93q-51 17 -67 17z" />
<glyph unicode="b" horiz-adv-x="550" d="M515 190q0 -38 -1.5 -62t-8.5 -53t-19.5 -45.5t-36.5 -28t-59 -11.5q-47 0 -153 53v-43h-222v132h50v481h-50v132h222v-281l51.5 35.5t48.5 25t53 12.5q35 0 59 -11.5t36.5 -28t19.5 -45.5t8.5 -53t1.5 -62v-147zM343 347q0 21 -1 30.5t-7 18t-18 8.5q-13 0 -40 -12.5 t-40 -22.5v-241q53 -15 80 -15q9 0 15 4.5t8 15.5t2.5 20t0.5 27v167z" />
<glyph unicode="c" horiz-adv-x="486" d="M446 335h-142v67q-7 1 -19 1q-33 0 -55.5 -16t-22.5 -44v-159q0 -28 22.5 -44t55.5 -16q64 0 151 16l20 -123q-96 -27 -171 -27q-124 0 -187 55t-63 160v117q0 105 63 160t187 55q69 0 161 -37v-165z" />
<glyph unicode="d" horiz-adv-x="551" d="M485 745v-613h50v-132h-222v43q-106 -53 -153 -53q-35 0 -59 11.5t-36.5 28t-19.5 45.5t-8.5 53t-1.5 62v147q0 38 1.5 62t8.5 53t19.5 45.5t36.5 28t59 11.5q23 0 53 -12.5t48.5 -25l51.5 -35.5v149h-50v132h222zM207 180q0 -18 0.5 -27t2.5 -20t8 -15.5t15 -4.5 q27 0 80 15v241q-13 10 -40 22.5t-40 12.5q-18 0 -22 -13.5t-4 -43.5v-167z" />
<glyph unicode="e" horiz-adv-x="506" d="M456 149l30 -122q-117 -37 -201 -37q-250 0 -250 215v132q0 65 11.5 103.5t41 60.5t70 29t109.5 7q120 0 164.5 -39.5t44.5 -108.5v-74q0 -51 -58 -81t-211 -33v-17q0 -28 22.5 -44t55.5 -16q81 0 171 25zM314 331v44q0 39 -27 39t-53.5 -7.5t-26.5 -19.5v-105 q54 9 80.5 19t26.5 30z" />
<glyph unicode="f" horiz-adv-x="347" d="M301 132v-132h-286v132h51v263h-51v132h51v36q0 120 63.5 163.5t191.5 17.5q28 -5 71 -22l-36 -111q-71 16 -81 16q-37 0 -37 -64v-36h82v-132h-82v-263h63z" />
<glyph unicode="g" horiz-adv-x="515" d="M35 337q0 38 1.5 62t8.5 53t19.5 45.5t36.5 28t59 11.5q23 0 53 -12.5t48.5 -25l51.5 -35.5v63h172v-621q0 -38 -14 -65t-32 -39.5t-46.5 -19.5t-43.5 -8t-38 -1q-66 0 -273 55l34 121q174 -43 199 -43q30 0 36 9t6 51v77q-106 -53 -153 -53q-35 0 -59 11.5t-36.5 28 t-19.5 45.5t-8.5 53t-1.5 62v147zM207 180q0 -18 0.5 -27t2.5 -20t8 -15.5t15 -4.5q27 0 80 15v241q-13 10 -40 22.5t-40 12.5q-18 0 -22 -13.5t-4 -43.5v-167z" />
<glyph unicode="h" d="M286 132v-132h-271v132h50v481h-50v132h222v-281q2 2 20 14t23 15l21 12.5t24 13l20.5 9t23.5 7.5t21 2q35 0 59 -11.5t36.5 -28t19.5 -45.5t8.5 -53t1.5 -62v-205h50v-132h-222v337q0 18 -0.5 27t-2.5 20t-8 15.5t-15 4.5q-19 0 -80 -35v-237h49z" />
<glyph unicode="i" horiz-adv-x="291" d="M286 132v-132h-271v132h51v263h-50v132h222v-395h48zM238 571h-172v174h172v-174z" />
<glyph unicode="j" horiz-adv-x="268" d="M239 527v-536q0 -128 -37.5 -173t-124.5 -45q-67 0 -160 37l41 129q65 -20 89 -20q12 0 16 16t4 56v405h-50v131h222zM238 571h-173v174h173v-174z" />
<glyph unicode="k" horiz-adv-x="557" d="M286 132v-132h-271v132h56v481h-50v132h222v-444l139 226h157v-132h-52l-77 -110l88 -153h49v-132h-165l-139 266v-134h43z" />
<glyph unicode="l" horiz-adv-x="293" d="M288 132v-132h-271v132h47v481h-49v132h222v-613h51z" />
<glyph unicode="m" horiz-adv-x="807" d="M802 132v-132h-222v337q0 18 -0.5 27t-2.5 20t-8 15.5t-15 4.5q-17 0 -60 -35q1 -10 1 -32v-205h50v-132h-222v337q0 18 -0.5 27t-2.5 20t-8 15.5t-15 4.5q-16 0 -60 -35v-237h49v-132h-271v132h50v263h-50v132h222v-63l17.5 13.5l19.5 15l18.5 13.5t20.5 13l18.5 9t20 7 t18.5 2q88 0 113 -77q2 2 13.5 10.5l15 11l14 10.5t15 10.5t14 9t15 9l14 6.5t15 5.5t14 3t14.5 1.5q35 0 59 -11.5t36.5 -28t19.5 -45.5t8.5 -53t1.5 -62v-205h50z" />
<glyph unicode="n" d="M565 132v-132h-222v337q0 18 -0.5 27t-2.5 20t-8 15.5t-15 4.5q-19 0 -80 -35v-237h49v-132h-271v132h50v263h-50v132h222v-63q2 2 20 14t23 15l21 12.5t24 13l20.5 9t23.5 7.5t21 2q35 0 59 -11.5t36.5 -28t19.5 -45.5t8.5 -53t1.5 -62v-205h50z" />
<glyph unicode="o" horiz-adv-x="530" d="M495 380v-233q0 -86 -55 -121.5t-175 -35.5t-175 35.5t-55 121.5v233q0 86 55 121.5t175 35.5t175 -35.5t55 -121.5zM324 148v231q0 18 -12.5 26.5t-46.5 8.5t-46.5 -8.5t-12.5 -26.5v-231q0 -35 59 -35t59 35z" />
<glyph unicode="p" horiz-adv-x="545" d="M510 337v-147q0 -38 -1.5 -62t-8.5 -53t-19.5 -45.5t-36.5 -28t-59 -11.5q-47 0 -153 53v-129h79v-132h-301v132h50v481h-50v132h222v-63l51.5 35.5t48.5 25t53 12.5q35 0 59 -11.5t36.5 -28t19.5 -45.5t8.5 -53t1.5 -62zM338 180v167q0 21 -1 30.5t-7 18t-18 8.5 q-13 0 -40 -12.5t-40 -22.5v-231q50 -25 80 -25q9 0 15 4.5t8 15.5t2.5 20t0.5 27z" />
<glyph unicode="q" horiz-adv-x="532" d="M35 337q0 38 1.5 62t8.5 53t19.5 45.5t36.5 28t59 11.5q23 0 53 -12.5t48.5 -25l51.5 -35.5v63h172v-613h47v-132h-301v132h82v129q-106 -53 -153 -53q-35 0 -59 11.5t-36.5 28t-19.5 45.5t-8.5 53t-1.5 62v147zM207 180q0 -18 0.5 -27t2.5 -20t8 -15.5t15 -4.5 q30 0 80 25v231q-13 10 -40 22.5t-40 12.5q-18 0 -22 -13.5t-4 -43.5v-167z" />
<glyph unicode="r" horiz-adv-x="469" d="M237 527v-73q4 4 20.5 18.5t23.5 20t21.5 16t23.5 15.5t21 9t23 4q58 0 76 -33t18 -133v-36h-142v36q-3 33 -25 33q-15 0 -60 -45v-227h49v-132h-271v132h50v263h-50v132h222z" />
<glyph unicode="s" horiz-adv-x="478" d="M440 345h-142v62q-32 6 -48 6q-39 0 -51 -10t-12 -26q0 -20 20.5 -30.5t51 -14t66.5 -12t66.5 -21.5t51 -45.5t20.5 -82.5q0 -59 -19.5 -97t-57 -55.5t-74.5 -23t-90 -5.5q-45 0 -85 5.5t-60 10.5t-62 17v165h142v-69q32 -5 55 -5q80 0 80 37q0 19 -20.5 29t-51 12.5 t-66.5 11t-66.5 22t-51 47t-20.5 84.5q0 41 10.5 72.5t30 50.5t40 31.5t49 17.5t48 6.5t45.5 1.5q86 0 201 -27v-165z" />
<glyph unicode="t" horiz-adv-x="362" d="M325 150l37 -129q-101 -31 -148 -31q-71 0 -113.5 37t-42.5 116v249h-53v135h53v117h173v-117h101v-135h-101v-246q0 -14 21 -14q11 0 73 18z" />
<glyph unicode="u" d="M227 527v-347q0 -18 0.5 -27t2.5 -20t8 -15.5t15 -4.5q27 0 80 15v267h-50v132h222v-395h50v-132h-222v43q-106 -53 -153 -53q-35 0 -59 11.5t-36.5 28t-19.5 45.5t-8.5 53t-1.5 62v205h-50v132h222z" />
<glyph unicode="v" horiz-adv-x="568" d="M263 527v-132h-23l43 -204l45 204h-21v132h241v-132h-51l-138 -395h-158l-130 395h-49v132h241z" />
<glyph unicode="w" horiz-adv-x="821" d="M261 527v-132h-42l37 -203l72 335h161l81 -336l29 204h-39v132h251v-132h-51l-122 -395h-160l-70 313l-71 -313h-161l-122 395h-44v132h251z" />
<glyph unicode="x" horiz-adv-x="532" d="M198 527l70 -179l59 179h174v-132h-41l-64 -134l70 -129h51v-132h-180l-69 178l-69 -178h-181v132h52l72 128l-67 135h-60v132h183z" />
<glyph unicode="y" horiz-adv-x="535" d="M55 395h-50v132h222v-347q0 -18 0.5 -27t2.5 -20t8 -15.5t15 -4.5q27 0 80 15v267h-50v132h222v-621q0 -38 -14 -65t-32 -39.5t-46.5 -19.5t-43.5 -8t-38 -1q-66 0 -273 55l34 121q174 -43 199 -43q30 0 36 9t6 51v77q-106 -53 -153 -53q-35 0 -59 11.5t-36.5 28 t-19.5 45.5t-8.5 53t-1.5 62v205z" />
<glyph unicode="z" horiz-adv-x="462" d="M157 348h-142v179h413v-132l-226 -263h103v48h142v-180h-432v132l236 263h-94v-47z" />
<glyph unicode="{" horiz-adv-x="355" d="M335 724v-120q-69 0 -69 -47q0 -16 2.5 -59.5t2.5 -66.5q0 -81 -62 -141q33 -31 47.5 -70t14.5 -70q0 -23 -2.5 -66.5t-2.5 -59.5q0 -47 69 -47v-120q-40 0 -62.5 1t-52 4t-46 10.5t-33.5 19.5t-27 31.5t-16 46.5q-6 26 -6.5 54.5t1.5 67.5t2 58q0 76 -75 76v129 q75 0 75 76q0 19 -2 58t-1.5 67.5t6.5 54.5q6 27 16 46.5t27 31.5t33.5 19.5t46 10.5t52 4t62.5 1z" />
<glyph unicode="|" horiz-adv-x="226" d="M196 -163h-165v933h165v-933z" />
<glyph unicode="}" horiz-adv-x="355" d="M20 604v120q40 0 62.5 -1t52 -4t46 -10.5t33.5 -19.5t27 -31.5t16 -46.5q6 -26 6.5 -54.5t-1.5 -67.5t-2 -58q0 -76 75 -76v-129q-75 0 -75 -76q0 -19 2 -58t1.5 -67.5t-6.5 -54.5q-6 -27 -16 -46.5t-27 -31.5t-33.5 -19.5t-46 -10.5t-52 -4t-62.5 -1v120q69 0 69 47 q0 16 -2.5 59.5t-2.5 66.5q0 81 61 140q-61 60 -61 141q0 23 2.5 66.5t2.5 59.5q0 47 -69 47z" />
<glyph unicode="~" horiz-adv-x="580" d="M428 364l132 -61q-26 -80 -77.5 -121t-108.5 -41q-41 0 -97 25.5t-74 25.5q-16 0 -47 -56l-137 62q57 134 154 157q47 12 113 -17t95 -29q9 0 18.5 11.5t28.5 43.5z" />
<glyph unicode="&#xa1;" horiz-adv-x="232" d="M202 339h-171v193h171v-193zM202 -227h-171v513h171v-513z" />
<glyph unicode="&#xa2;" horiz-adv-x="432" d="M325 -95h-164v93q-77 15 -110.5 66t-33.5 141v118q0 82 37 135t107 72v100h164v-97q36 -5 89 -23l-30 -149q-79 24 -117 24q-32 0 -55 -20t-23 -66v-70q0 -86 80 -86q33 0 115 24l30 -149q-59 -18 -89 -23v-90z" />
<glyph unicode="&#xa3;" horiz-adv-x="562" d="M408 286h-88q0 -4 0.5 -12t0.5 -13q0 -44 -12 -68t-55 -39h319v-154h-553v156q112 39 112 104q0 8 -2 26h-90v144h71q-1 13 -1 41v51q0 208 281 208q54 0 181 -26l-29 -147q-19 2 -71.5 9t-80.5 9q-101 8 -101 -53v-51q0 -17 2 -41h116v-144z" />
<glyph unicode="&#xa4;" horiz-adv-x="664" d="M508 3l-59 52q-47 -23 -119 -23q-62 0 -118 24l-57 -52l-132 119l61 54q-24 48 -24 100q0 53 24 99q-51 44 -62 55l75 66q11 9 31 27.5t26 24.5l60 -53q56 24 117 24q68 0 118 -23q11 11 33.5 30.5t23.5 20.5l135 -120l-61 -52q22 -46 22 -98q0 -45 -25 -101l63 -54z M330 186q46 0 78 27t32 65q0 36 -32 62t-77 26q-44 0 -76.5 -26t-32.5 -63t32 -64t76 -27z" />
<glyph unicode="&#xa5;" horiz-adv-x="679" d="M430 0h-182v66h-152v136h152v44h-151v135h97l-194 340h202l137 -274l138 274h202l-195 -340h98v-135h-152v-44h152v-136h-152v-66z" />
<glyph unicode="&#xa6;" horiz-adv-x="226" d="M196 -163h-165v414h165v-414zM196 297h-165v409h165v-409z" />
<glyph unicode="&#xa7;" horiz-adv-x="432" d="M5 -7l30 131q35 -12 86.5 -21t80.5 -9q49 0 49 27q0 15 -17.5 23.5t-43.5 11t-56 12t-56 24.5t-43.5 49.5t-17.5 85.5q0 72 32 115q-32 38 -32 109q0 56 18.5 94t51.5 55.5t66 24t76 6.5q74 0 171 -24l-29 -131q-58 18 -131 18q-23 0 -35 -3.5t-14.5 -8t-2.5 -11.5 q0 -19 24 -28t58.5 -15t69 -19t58.5 -49t24 -95q0 -70 -36 -114q36 -39 36 -110q0 -95 -60 -138t-150 -43q-62 0 -98 6.5t-109 26.5zM188 347q0 -19 25 -29q38 3 38 27q0 17 -22 25q-18 -1 -27.5 -4.5t-11.5 -7.5t-2 -11z" />
<glyph unicode="&#xa8;" horiz-adv-x="436" d="M202 590h-170v193h170v-193zM402 590h-171v193h171v-193z" />
<glyph unicode="&#xa9;" horiz-adv-x="790" d="M769 350q0 -88 -32 -159t-85 -115t-119 -67.5t-138 -23.5t-138 23.5t-119 67.5t-85 115t-32 159t32 159t85 115t119 67t138 23t138 -23t119 -67t85 -115t32 -159zM661 350q0 130 -79 203t-187 73t-186.5 -73t-78.5 -203t78.5 -203t186.5 -73t187 73t79 203zM535 401h-101 v47q-3 0 -7 0.5t-6 0.5q-23 0 -39 -11.5t-16 -31.5v-112q0 -20 16 -31.5t39 -11.5q48 0 107 11l14 -87q-70 -19 -121 -19q-177 0 -177 152v84q0 152 177 152q46 0 114 -26v-117z" />
<glyph unicode="&#xaa;" horiz-adv-x="394" d="M376 429v-97h-164v34q-66 -41 -105 -41q-16 0 -31 3q-25 6 -41 18.5t-22.5 30.5t-8.5 32.5t-2 37.5t2 37.5t8.5 33t22.5 30.5t41 18q49 11 136 -23v33q0 55 -44 55q-22 0 -33 -1v-43h-105v122q78 20 145 20q81 0 122.5 -40.5t41.5 -113.5v-146h37zM162 499q-34 0 -34 -52 q0 -50 34 -50q12 0 50 21v68q-37 13 -50 13z" />
<glyph unicode="&#xab;" horiz-adv-x="657" d="M247 16l-227 249l227 248l115 -100l-129 -148l129 -149zM522 16l-227 249l227 248l115 -100l-129 -148l129 -149z" />
<glyph unicode="&#xac;" horiz-adv-x="584" d="M553 109h-161v158h-384v155h545v-313z" />
<glyph unicode="&#xad;" horiz-adv-x="373" d="M342 225h-311v142h311v-142z" />
<glyph unicode="&#xae;" horiz-adv-x="790" d="M769 350q0 -88 -32 -159t-85 -115t-119 -67.5t-138 -23.5t-138 23.5t-119 67.5t-85 115t-32 159t32 159t85 115t119 67t138 23t138 -23t119 -67t85 -115t32 -159zM661 350q0 130 -79 203t-187 73t-186.5 -73t-78.5 -203t78.5 -203t186.5 -73t187 73t79 203zM583 257v-94 h-136l-43 104h-17v-104h-157v94h35v186h-35v94h187q86 0 121 -28t35 -108q0 -90 -48 -116l14 -28h44zM387 360h30q17 0 22.5 10.5t5.5 30.5q0 22 -5.5 32t-22.5 10h-30v-83z" />
<glyph unicode="&#xaf;" horiz-adv-x="391" d="M360 591h-329v127h329v-127z" />
<glyph unicode="&#xb0;" horiz-adv-x="315" d="M294 705q0 -51 -38 -88t-102 -37t-102 37t-38 88q0 50 38 87.5t102 37.5t102 -37.5t38 -87.5zM189 705q0 11 -8.5 21.5t-26.5 10.5t-26.5 -10.5t-8.5 -21.5t8.5 -21.5t26.5 -10.5t26.5 10.5t8.5 21.5z" />
<glyph unicode="&#xb1;" horiz-adv-x="574" d="M367 135h-165v168h-192v158h192v167h165v-167h188v-158h-188v-168zM556 -59h-546v160h546v-160z" />
<glyph unicode="&#xb2;" horiz-adv-x="553" d="M193 750h-145v184q102 49 207 49q123 0 188 -42.5t65 -151.5q0 -37 -20.5 -72t-60 -68t-77 -57.5t-91.5 -54.5h113v46h144v-183h-475v137q287 192 287 255q0 21 -4 33t-15 17.5t-21.5 6.5t-32.5 1q-33 0 -62 -10v-90z" />
<glyph unicode="&#xb3;" horiz-adv-x="550" d="M193 756h-145v184q97 44 193 44q134 0 198 -38.5t64 -135.5v-23v-10v-10.5t-0.5 -10t-2.5 -11t-5 -10t-7.5 -10.5l-11 -9.5t-16 -9.5t-20.5 -8q74 -16 74 -105v-33q0 -49 -21 -83.5t-59.5 -52t-83 -25t-102.5 -7.5q-72 0 -208 19v184h144v-65q34 -3 64 -3q92 0 92 33v33 q0 36 -59 36h-75l1 128h62q27 0 45 8.5t18 21.5v23q0 12 -3.5 18.5t-26.5 13.5t-68 7q-7 0 -41 -4v-89z" />
<glyph unicode="&#xb4;" horiz-adv-x="376" d="M260 590h-165l138 252h215z" />
<glyph unicode="&#xb5;" d="M227 -231h-172v626h-50v132h222v-347q0 -18 0.5 -27t2.5 -20t8 -15.5t15 -4.5q27 0 80 15v267h-50v132h222v-395h50v-132h-222v43q-75 -37 -106 -46v-228z" />
<glyph unicode="&#xb6;" horiz-adv-x="652" d="M616 37v-132h-212v682h-47v-682h-212v132h56v257q-87 12 -137.5 68.5t-50.5 141.5q0 96 66.5 155.5t175.5 59.5h306v-682h55z" />
<glyph unicode="&#xb7;" horiz-adv-x="334" d="M245 158h-171v194h171v-194z" />
<glyph unicode="&#xb8;" horiz-adv-x="352" d="M90 -80l61 116h77l-42 -69q44 -3 82 -26t38 -62q0 -42 -29 -69t-74 -36t-95 -7.5t-96 13.5l34 64q17 -4 38 -6t44 -1t38.5 11t15.5 28q0 10 -3 17t-9.5 11.5t-12.5 7.5t-16.5 4.5t-17 2t-18 1t-15.5 0.5z" />
<glyph unicode="&#xb9;" horiz-adv-x="312" d="M277 526v-126h-232v126h30v301h-29v148h203v-449h28z" />
<glyph unicode="&#xba;" horiz-adv-x="315" d="M294 705q0 -51 -38 -88t-102 -37t-102 37t-38 88q0 50 38 87.5t102 37.5t102 -37.5t38 -87.5zM189 705q0 11 -8.5 21.5t-26.5 10.5t-26.5 -10.5t-8.5 -21.5t8.5 -21.5t26.5 -10.5t26.5 10.5t8.5 21.5z" />
<glyph unicode="&#xbb;" horiz-adv-x="657" d="M362 265l-227 -249l-115 100l129 149l-129 148l115 100zM637 265l-227 -249l-115 100l129 149l-129 148l115 100z" />
<glyph unicode="&#xbc;" horiz-adv-x="1243" d="M1147 126v-126h-232v126h34v12h-258v127l253 310h208l-174 -206h137v-104h66v-127h-66v-12h32zM774 730l-333 -740h-185l332 740h186zM252 271v-126h-232v126h30v301h-29v148h203v-449h28zM949 265v70l-59 -70h59z" />
<glyph unicode="&#xbd;" horiz-adv-x="1243" d="M900 350h-145v184q102 49 207 49q123 0 188 -42.5t65 -151.5q0 -37 -20.5 -72t-60 -68t-77 -57.5t-91.5 -54.5h113v46h144v-183h-475v137q287 192 287 255q0 21 -4 33t-15 17.5t-21.5 6.5t-32.5 1q-33 0 -62 -10v-90zM774 730l-329 -740h-185l328 740h186zM252 271v-126 h-232v126h30v301h-29v148h203v-449h28z" />
<glyph unicode="&#xbe;" horiz-adv-x="1432" d="M172 501h-145v184q97 44 193 44q134 0 198 -38.5t64 -135.5v-23v-10v-10.5t-0.5 -10t-2.5 -11t-5 -10t-7.5 -10.5l-11 -9.5t-16 -9.5t-20.5 -8q74 -16 74 -105v-33q0 -49 -21 -83.5t-59.5 -52t-83 -25t-102.5 -7.5q-72 0 -208 19v184h144v-65q35 -3 64 -3q92 0 92 33v33 q0 36 -59 36h-75l1 128h62q27 0 45 8.5t18 21.5v23q0 12 -3.5 18.5t-26.5 13.5t-68 7q-7 0 -41 -4v-89zM1348 126v-126h-232v126h34v12h-258v127l253 310h208l-174 -206h137v-104h66v-127h-66v-12h32zM985 730l-333 -740h-185l332 740h186zM1150 265v70l-59 -70h59z" />
<glyph unicode="&#xbf;" horiz-adv-x="502" d="M265 46h152v-205q-116 -47 -215 -47q-56 0 -100 9t-81.5 31t-57.5 63t-20 100q0 35 18 68.5t44 59t52 48.5t44 46.5t18 44.5v74h170v-74q0 -37 -26 -77.5t-57.5 -69.5t-57.5 -62.5t-26 -57.5q0 -65 70 -65q43 0 73 7v107zM117 527h172v-163h-172v163z" />
<glyph unicode="&#xc0;" horiz-adv-x="758" d="M294 132v-132h-289v132h65l178 455h-55v132h264l230 -587h66v-132h-289v132h38l-18 58h-210l-19 -58h39zM297 769l-215 200l213 27l159 -209zM379 522l-63 -197h125z" />
<glyph unicode="&#xc1;" horiz-adv-x="758" d="M294 132v-132h-289v132h65l178 455h-55v132h264l230 -587h66v-132h-289v132h38l-18 58h-210l-19 -58h39zM459 770h-165l138 252h215zM379 522l-63 -197h125z" />
<glyph unicode="&#xc2;" horiz-adv-x="758" d="M294 132v-132h-289v132h65l178 455h-55v132h264l230 -587h66v-132h-289v132h38l-18 58h-210l-19 -58h39zM536 760l-157 58l-157 -58l-43 53l200 176l200 -176zM379 522l-63 -197h125z" />
<glyph unicode="&#xc3;" horiz-adv-x="758" d="M294 132v-132h-289v132h65l178 455h-55v132h264l230 -587h66v-132h-289v132h38l-18 58h-210l-19 -58h39zM269 760l-96 44q25 91 105 115q45 9 63 0.5t48 -21.5t61 -11q11 1 19.5 9.5t21.5 30.5l95 -34q-13 -48 -42 -82t-63 -43q-44 -9 -62 -0.5t-48.5 21.5t-61.5 11 q-18 -1 -40 -40zM379 522l-63 -197h125z" />
<glyph unicode="&#xc4;" horiz-adv-x="758" d="M294 132v-132h-289v132h65l178 455h-55v132h264l230 -587h66v-132h-289v132h38l-18 58h-210l-19 -58h39zM563 770h-171v193h171v-193zM363 770h-170v193h170v-193zM379 522l-63 -197h125z" />
<glyph unicode="&#xc5;" horiz-adv-x="758" d="M294 132v-132h-289v132h65l178 455h-55v132h264l230 -587h66v-132h-289v132h38l-18 58h-210l-19 -58h39zM519 885q0 -51 -38 -88t-102 -37t-102 37t-38 88q0 50 38 87.5t102 37.5t102 -37.5t38 -87.5zM379 522l-63 -197h125zM414 885q0 11 -8.5 21.5t-26.5 10.5 t-26.5 -10.5t-8.5 -21.5t8.5 -21.5t26.5 -10.5t26.5 10.5t8.5 21.5z" />
<glyph unicode="&#xc6;" horiz-adv-x="1124" d="M1107 0h-567v132h60v58h-308v4l-40 -62h42v-132h-289v132h59l312 455h-43v132h774v-205h-152v73h-173v-150h173v-132h-173v-173h173v73h152v-205zM600 587h-60l-166 -262h226v262z" />
<glyph unicode="&#xc7;" horiz-adv-x="606" d="M566 475h-152v106q-21 4 -49 4h-18q-44 0 -70.5 -7.5t-39 -27t-16 -41t-3.5 -60.5v-178q0 -39 3.5 -60.5t16 -41t39 -27t70.5 -7.5h18q70 0 176 41l35 -142q-99 -40 -193 -43l-18 -31q44 -3 82 -26t38 -62q0 -42 -29 -69t-74 -36t-95 -7.5t-96 13.5l34 64q17 -4 38 -6 t44 -1t38.5 11t15.5 28q0 10 -3 17t-9.5 11.5t-12.5 7.5t-16.5 4.5t-17 2t-18 1t-15.5 0.5l41 78q-146 6 -213 70t-67 210v178q0 155 75.5 218t241.5 63h18q125 0 201 -50v-205z" />
<glyph unicode="&#xc8;" horiz-adv-x="604" d="M587 514h-152v73h-173v-150h173v-132h-173v-173h173v73h152v-205h-567v132h60v455h-60v132h567v-205zM259 769l-215 200l213 27l159 -209z" />
<glyph unicode="&#xc9;" horiz-adv-x="604" d="M587 514h-152v73h-173v-150h173v-132h-173v-173h173v73h152v-205h-567v132h60v455h-60v132h567v-205zM421 770h-165l138 252h215z" />
<glyph unicode="&#xca;" horiz-adv-x="604" d="M587 514h-152v73h-173v-150h173v-132h-173v-173h173v73h152v-205h-567v132h60v455h-60v132h567v-205zM498 760l-157 58l-157 -58l-43 53l200 176l200 -176z" />
<glyph unicode="&#xcb;" horiz-adv-x="604" d="M587 514h-152v73h-173v-150h173v-132h-173v-173h173v73h152v-205h-567v132h60v455h-60v132h567v-205zM525 770h-171v193h171v-193zM325 770h-170v193h170v-193z" />
<glyph unicode="&#xcc;" horiz-adv-x="342" d="M322 132v-132h-302v132h60v455h-60v132h302v-132h-60v-455h60zM88 769l-215 200l213 27l159 -209z" />
<glyph unicode="&#xcd;" horiz-adv-x="342" d="M322 132v-132h-302v132h60v455h-60v132h302v-132h-60v-455h60zM250 770h-165l138 252h215z" />
<glyph unicode="&#xce;" horiz-adv-x="342" d="M322 132v-132h-302v132h60v455h-60v132h302v-132h-60v-455h60zM327 760l-157 58l-157 -58l-43 53l200 176l200 -176z" />
<glyph unicode="&#xcf;" horiz-adv-x="342" d="M322 132v-132h-302v132h60v455h-60v132h302v-132h-60v-455h60zM154 770h-170v193h170v-193zM354 770h-171v193h171v-193z" />
<glyph unicode="&#xd0;" horiz-adv-x="695" d="M383 0h-363v132h60v149h-57v162h57v144h-60v132h363q66 0 114 -7t79.5 -24.5t50.5 -37.5t28.5 -54.5t12 -66t2.5 -81.5v-177q0 -81 -10.5 -129t-42 -82t-87 -47t-147.5 -13zM482 271v177q0 39 -3.5 61t-16 42t-39 28t-70.5 8h-91v-144h102v-162h-102v-149h91q44 0 70.5 8 t39 28t16 42t3.5 61z" />
<glyph unicode="&#xd1;" horiz-adv-x="749" d="M684 0h-182l-240 433v-301h60v-132h-302v132h60v455h-60v132h242l240 -444v312h-60v132h302v-132h-60v-587zM264 760l-96 44q25 91 105 115q45 9 63 0.5t48 -21.5t61 -11q11 1 19.5 9.5t21.5 30.5l95 -34q-13 -48 -42 -82t-63 -43q-44 -9 -62 -0.5t-48.5 21.5t-61.5 11 q-18 -1 -40 -40z" />
<glyph unicode="&#xd2;" horiz-adv-x="685" d="M348 -10h-11q-160 0 -233.5 63t-73.5 218v178q0 155 73.5 218t233.5 63h11q160 0 233.5 -63t73.5 -218v-178q0 -155 -73.5 -218t-233.5 -63zM467 271v178q0 78 -21 108.5t-98 30.5h-11q-77 0 -98 -30.5t-21 -108.5v-178q0 -78 21 -108.5t98 -30.5h11q77 0 98 30.5 t21 108.5zM261 769l-215 200l213 27l159 -209z" />
<glyph unicode="&#xd3;" horiz-adv-x="685" d="M348 -10h-11q-160 0 -233.5 63t-73.5 218v178q0 155 73.5 218t233.5 63h11q160 0 233.5 -63t73.5 -218v-178q0 -155 -73.5 -218t-233.5 -63zM467 271v178q0 78 -21 108.5t-98 30.5h-11q-77 0 -98 -30.5t-21 -108.5v-178q0 -78 21 -108.5t98 -30.5h11q77 0 98 30.5 t21 108.5zM423 770h-165l138 252h215z" />
<glyph unicode="&#xd4;" horiz-adv-x="685" d="M348 -10h-11q-160 0 -233.5 63t-73.5 218v178q0 155 73.5 218t233.5 63h11q160 0 233.5 -63t73.5 -218v-178q0 -155 -73.5 -218t-233.5 -63zM467 271v178q0 78 -21 108.5t-98 30.5h-11q-77 0 -98 -30.5t-21 -108.5v-178q0 -78 21 -108.5t98 -30.5h11q77 0 98 30.5 t21 108.5zM500 760l-157 58l-157 -58l-43 53l200 176l200 -176z" />
<glyph unicode="&#xd5;" horiz-adv-x="685" d="M348 -10h-11q-160 0 -233.5 63t-73.5 218v178q0 155 73.5 218t233.5 63h11q160 0 233.5 -63t73.5 -218v-178q0 -155 -73.5 -218t-233.5 -63zM467 271v178q0 78 -21 108.5t-98 30.5h-11q-77 0 -98 -30.5t-21 -108.5v-178q0 -78 21 -108.5t98 -30.5h11q77 0 98 30.5 t21 108.5zM233 760l-96 44q25 91 105 115q45 9 63 0.5t48 -21.5t61 -11q11 1 19.5 9.5t21.5 30.5l95 -34q-13 -48 -42 -82t-63 -43q-44 -9 -62 -0.5t-48.5 21.5t-61.5 11q-18 -1 -40 -40z" />
<glyph unicode="&#xd6;" horiz-adv-x="685" d="M348 -10h-11q-160 0 -233.5 63t-73.5 218v178q0 155 73.5 218t233.5 63h11q160 0 233.5 -63t73.5 -218v-178q0 -155 -73.5 -218t-233.5 -63zM467 271v178q0 78 -21 108.5t-98 30.5h-11q-77 0 -98 -30.5t-21 -108.5v-178q0 -78 21 -108.5t98 -30.5h11q77 0 98 30.5 t21 108.5zM327 770h-170v193h170v-193zM527 770h-171v193h171v-193z" />
<glyph unicode="&#xd7;" horiz-adv-x="615" d="M474 13l-168 148l-171 -149l-114 106l169 147l-168 150l114 106l170 -150l173 149l114 -105l-169 -149l170 -149z" />
<glyph unicode="&#xd8;" horiz-adv-x="766" d="M250 -27h-175l30 68q-88 64 -88 230v178q0 155 73.5 218t233.5 63h11q43 0 72 -4l9 20h176l-32 -72q82 -66 82 -225v-178q0 -155 -73.5 -218t-233.5 -63h-11q-34 0 -66 3zM205 267l141 321h-22q-77 0 -98 -30.5t-21 -108.5v-182zM454 271v163l-134 -302h15q77 0 98 30.5 t21 108.5z" />
<glyph unicode="&#xd9;" horiz-adv-x="712" d="M707 719v-132h-59v-316q0 -156 -67 -219t-221 -63h-8q-153 0 -220 63t-67 219v316h-60v132h302v-132h-60v-317q0 -37 2.5 -56.5t12.5 -37.5t31.5 -25t58.5 -7h8q71 0 88 26.5t17 99.5v317h-59v132h301zM273 769l-215 200l213 27l159 -209z" />
<glyph unicode="&#xda;" horiz-adv-x="712" d="M707 719v-132h-59v-316q0 -156 -67 -219t-221 -63h-8q-153 0 -220 63t-67 219v316h-60v132h302v-132h-60v-317q0 -37 2.5 -56.5t12.5 -37.5t31.5 -25t58.5 -7h8q71 0 88 26.5t17 99.5v317h-59v132h301zM435 770h-165l138 252h215z" />
<glyph unicode="&#xdb;" horiz-adv-x="712" d="M707 719v-132h-59v-316q0 -156 -67 -219t-221 -63h-8q-153 0 -220 63t-67 219v316h-60v132h302v-132h-60v-317q0 -37 2.5 -56.5t12.5 -37.5t31.5 -25t58.5 -7h8q71 0 88 26.5t17 99.5v317h-59v132h301zM512 760l-157 58l-157 -58l-43 53l200 176l200 -176z" />
<glyph unicode="&#xdc;" horiz-adv-x="712" d="M707 719v-132h-59v-316q0 -156 -67 -219t-221 -63h-8q-153 0 -220 63t-67 219v316h-60v132h302v-132h-60v-317q0 -37 2.5 -56.5t12.5 -37.5t31.5 -25t58.5 -7h8q71 0 88 26.5t17 99.5v317h-59v132h301zM539 770h-171v193h171v-193zM339 770h-170v193h170v-193z" />
<glyph unicode="&#xdd;" horiz-adv-x="665" d="M660 719v-132h-63l-174 -321v-134h60v-132h-302v132h60v134l-175 321h-61v132h302v-132h-55l80 -182l80 182h-54v132h302zM411 770h-165l138 252h215z" />
<glyph unicode="&#xde;" horiz-adv-x="651" d="M318 132v-132h-302v132h60v455h-60v132h302v-132h-60v-28h98q63 0 103.5 -3.5t78.5 -15.5t58.5 -33.5t32.5 -58.5t12 -90q0 -54 -12 -90.5t-32.5 -58t-58.5 -33t-78 -15t-104 -3.5h-98v-26h60zM356 425h-98v-133h98q61 0 78 12.5t17 53.5q0 42 -17 54.5t-78 12.5z" />
<glyph unicode="&#xdf;" horiz-adv-x="711" d="M254 23v165h142v-68q33 -6 55 -6q79 0 79 37q0 15 -19.5 23.5t-49 11t-63.5 12t-63.5 24.5t-49 49.5t-19.5 85.5q0 56 13.5 94t37.5 55.5t47.5 24t53.5 6.5q4 0 11 1t18 10t11 25q0 54 -111 54q-110 0 -110 -64v-563h-222v132h52v431q0 64 40.5 110t101.5 67t133 21 q115 0 200.5 -50.5t85.5 -137.5q0 -16 -1 -29.5t-9.5 -40.5t-24 -45t-47.5 -33t-77 -15q-32 0 -32 -33q0 -19 27 -28t66 -15t78 -19t66 -49t27 -95q0 -47 -14 -81.5t-35 -53.5t-55 -29.5t-64 -13.5t-72 -3q-62 0 -98 6.5t-109 26.5z" />
<glyph unicode="&#xe0;" horiz-adv-x="525" d="M520 132v-132h-222v46q-89 -56 -142 -56q-19 0 -42 5q-35 9 -56.5 25t-30.5 41t-11.5 44.5t-2.5 50.5t2.5 50.5t11.5 44.5t30.5 41.5t56.5 24.5q68 15 184 -31v44q0 75 -59 75q-30 0 -45 -2v-58h-142v165q102 27 196 27q110 0 166 -54.5t56 -153.5v-197h50zM231 226 q-46 0 -46 -70q0 -68 46 -68q13 0 67 28v93q-51 17 -67 17zM174 589l-215 200l213 27l159 -209z" />
<glyph unicode="&#xe1;" horiz-adv-x="525" d="M520 132v-132h-222v46q-89 -56 -142 -56q-19 0 -42 5q-35 9 -56.5 25t-30.5 41t-11.5 44.5t-2.5 50.5t2.5 50.5t11.5 44.5t30.5 41.5t56.5 24.5q68 15 184 -31v44q0 75 -59 75q-30 0 -45 -2v-58h-142v165q102 27 196 27q110 0 166 -54.5t56 -153.5v-197h50zM231 226 q-46 0 -46 -70q0 -68 46 -68q13 0 67 28v93q-51 17 -67 17zM336 590h-165l138 252h215z" />
<glyph unicode="&#xe2;" horiz-adv-x="525" d="M520 132v-132h-222v46q-89 -56 -142 -56q-19 0 -42 5q-35 9 -56.5 25t-30.5 41t-11.5 44.5t-2.5 50.5t2.5 50.5t11.5 44.5t30.5 41.5t56.5 24.5q68 15 184 -31v44q0 75 -59 75q-30 0 -45 -2v-58h-142v165q102 27 196 27q110 0 166 -54.5t56 -153.5v-197h50zM231 226 q-46 0 -46 -70q0 -68 46 -68q13 0 67 28v93q-51 17 -67 17zM413 580l-157 58l-157 -58l-43 53l200 176l200 -176z" />
<glyph unicode="&#xe3;" horiz-adv-x="525" d="M520 132v-132h-222v46q-89 -56 -142 -56q-19 0 -42 5q-35 9 -56.5 25t-30.5 41t-11.5 44.5t-2.5 50.5t2.5 50.5t11.5 44.5t30.5 41.5t56.5 24.5q68 15 184 -31v44q0 75 -59 75q-30 0 -45 -2v-58h-142v165q102 27 196 27q110 0 166 -54.5t56 -153.5v-197h50zM231 226 q-46 0 -46 -70q0 -68 46 -68q13 0 67 28v93q-51 17 -67 17zM146 580l-96 44q25 91 105 115q45 9 63 0.5t48 -21.5t61 -11q11 1 19.5 9.5t21.5 30.5l95 -34q-13 -48 -42 -82t-63 -43q-44 -9 -62 -0.5t-48.5 21.5t-61.5 11q-18 -1 -40 -40z" />
<glyph unicode="&#xe4;" horiz-adv-x="525" d="M520 132v-132h-222v46q-89 -56 -142 -56q-19 0 -42 5q-35 9 -56.5 25t-30.5 41t-11.5 44.5t-2.5 50.5t2.5 50.5t11.5 44.5t30.5 41.5t56.5 24.5q68 15 184 -31v44q0 75 -59 75q-30 0 -45 -2v-58h-142v165q102 27 196 27q110 0 166 -54.5t56 -153.5v-197h50zM231 226 q-46 0 -46 -70q0 -68 46 -68q13 0 67 28v93q-51 17 -67 17zM240 590h-170v193h170v-193zM440 590h-171v193h171v-193z" />
<glyph unicode="&#xe5;" horiz-adv-x="525" d="M520 132v-132h-222v46q-89 -56 -142 -56q-19 0 -42 5q-35 9 -56.5 25t-30.5 41t-11.5 44.5t-2.5 50.5t2.5 50.5t11.5 44.5t30.5 41.5t56.5 24.5q68 15 184 -31v44q0 75 -59 75q-30 0 -45 -2v-58h-142v165q102 27 196 27q110 0 166 -54.5t56 -153.5v-197h50zM231 226 q-46 0 -46 -70q0 -68 46 -68q13 0 67 28v93q-51 17 -67 17zM396 705q0 -51 -38 -88t-102 -37t-102 37t-38 88q0 50 38 87.5t102 37.5t102 -37.5t38 -87.5zM291 705q0 11 -8.5 21.5t-26.5 10.5t-26.5 -10.5t-8.5 -21.5t8.5 -21.5t26.5 -10.5t26.5 10.5t8.5 21.5z" />
<glyph unicode="&#xe6;" horiz-adv-x="762" d="M712 149l30 -122q-117 -37 -201 -37q-87 0 -144 27q-80 -26 -219 -26q-38 0 -67 7t-46 21t-28 28.5t-15.5 37.5t-5.5 39t-1 42q0 31 1.5 48.5t9 41.5t22 36.5t42.5 22t69 9.5q44 0 131 -30v36q0 46 -21.5 60t-57.5 13q-49 -2 -127 -15l-30 122q96 27 186 27q79 0 131 -29 q52 29 152 29q66 0 110.5 -12.5t67.5 -35.5t32 -49t9 -61v-64q0 -33 -21 -55.5t-85 -39.5t-173 -19v-17q0 -28 22.5 -44t55.5 -16q81 0 171 25zM570 331v44q0 39 -27 39t-53.5 -7.5t-26.5 -19.5v-105q54 9 80.5 19t26.5 30zM290 104v104q0 4 -22.5 7.5t-44.5 3.5t-29 -11.5 t-7 -45.5q0 -66 36 -66q67 0 67 8z" />
<glyph unicode="&#xe7;" horiz-adv-x="486" d="M446 335h-142v67q-7 1 -19 1q-33 0 -55.5 -16t-22.5 -44v-159q0 -28 22.5 -44t55.5 -16q64 0 151 16l20 -123q-71 -20 -148 -26l-22 -37q44 -3 82 -26t38 -62q0 -42 -29 -69t-74 -36t-95 -7.5t-96 13.5l34 64q17 -4 38 -6t44 -1t38.5 11t15.5 28q0 10 -3 17t-9.5 11.5 t-12.5 7.5t-16.5 4.5t-17 2t-18 1t-15.5 0.5l45 86q-200 20 -200 212v117q0 105 63 160t187 55q69 0 161 -37v-165z" />
<glyph unicode="&#xe8;" horiz-adv-x="511" d="M456 149l30 -122q-117 -37 -201 -37q-250 0 -250 215v132q0 65 11.5 103.5t41 60.5t70 29t109.5 7q120 0 164.5 -39.5t44.5 -108.5v-74q0 -51 -58 -81t-211 -33v-17q0 -28 22.5 -44t55.5 -16q81 0 171 25zM314 331v44q0 39 -27 39t-53.5 -7.5t-26.5 -19.5v-105 q54 9 80.5 19t26.5 30zM185 586l-215 200l213 27l159 -209z" />
<glyph unicode="&#xe9;" horiz-adv-x="511" d="M456 149l30 -122q-117 -37 -201 -37q-250 0 -250 215v132q0 65 11.5 103.5t41 60.5t70 29t109.5 7q120 0 164.5 -39.5t44.5 -108.5v-74q0 -51 -58 -81t-211 -33v-17q0 -28 22.5 -44t55.5 -16q81 0 171 25zM314 331v44q0 39 -27 39t-53.5 -7.5t-26.5 -19.5v-105 q54 9 80.5 19t26.5 30zM347 587h-165l138 252h215z" />
<glyph unicode="&#xea;" horiz-adv-x="511" d="M456 149l30 -122q-117 -37 -201 -37q-250 0 -250 215v132q0 65 11.5 103.5t41 60.5t70 29t109.5 7q120 0 164.5 -39.5t44.5 -108.5v-74q0 -51 -58 -81t-211 -33v-17q0 -28 22.5 -44t55.5 -16q81 0 171 25zM314 331v44q0 39 -27 39t-53.5 -7.5t-26.5 -19.5v-105 q54 9 80.5 19t26.5 30zM424 577l-157 58l-157 -58l-43 53l200 176l200 -176z" />
<glyph unicode="&#xeb;" horiz-adv-x="511" d="M456 149l30 -122q-117 -37 -201 -37q-250 0 -250 215v132q0 65 11.5 103.5t41 60.5t70 29t109.5 7q120 0 164.5 -39.5t44.5 -108.5v-74q0 -51 -58 -81t-211 -33v-17q0 -28 22.5 -44t55.5 -16q81 0 171 25zM314 331v44q0 39 -27 39t-53.5 -7.5t-26.5 -19.5v-105 q54 9 80.5 19t26.5 30zM251 587h-170v193h170v-193zM451 587h-171v193h171v-193z" />
<glyph unicode="&#xec;" horiz-adv-x="291" d="M286 132v-132h-271v132h51v263h-50v132h222v-395h48zM175 589l-215 200l213 27l159 -209z" />
<glyph unicode="&#xed;" horiz-adv-x="291" d="M238 527v-395h48v-132h-271v132h51v263h-50v132h222zM243 590h-165l138 252h215z" />
<glyph unicode="&#xee;" horiz-adv-x="291" d="M238 527v-395h48v-132h-271v132h51v263h-50v132h222zM303 580l-157 58l-157 -58l-43 53l200 176l200 -176z" />
<glyph unicode="&#xef;" horiz-adv-x="291" d="M286 132v-132h-271v132h51v263h-50v132h222v-395h48zM331 590h-171v193h171v-193zM131 590h-170v193h170v-193z" />
<glyph unicode="&#xf0;" horiz-adv-x="628" d="M119 600l40 131q32 -6 79 -17l26 63l104 -42l-23 -58q260 -115 263 -435v-10q0 -131 -70 -186.5t-220 -55.5h-8q-150 0 -220 55.5t-70 186.5v10q0 131 56 187.5t174 56.5h8q72 0 146 -32q-45 51 -113 88l-21 -53l-104 42l21 53q-39 11 -68 16zM310 131h8q38 0 61.5 7.5 t33 24.5t12 31t2.5 40v7q0 27 -2 40.5t-11.5 31t-33 25t-62.5 7.5h-8q-39 0 -62.5 -7.5t-33 -25t-11.5 -31t-2 -40.5v-7q0 -26 2.5 -40t12 -31t33 -24.5t61.5 -7.5z" />
<glyph unicode="&#xf1;" d="M565 132v-132h-222v337q0 18 -0.5 27t-2.5 20t-8 15.5t-15 4.5q-19 0 -80 -35v-237h49v-132h-271v132h50v263h-50v132h222v-63q2 2 20 14t23 15l21 12.5t24 13l20.5 9t23.5 7.5t21 2q35 0 59 -11.5t36.5 -28t19.5 -45.5t8.5 -53t1.5 -62v-205h50zM199 577l-96 44 q25 91 105 115q45 9 63 0.5t48 -21.5t61 -11q11 1 19.5 9.5t21.5 30.5l95 -34q-13 -48 -42 -82t-63 -43q-44 -9 -62 -0.5t-48.5 21.5t-61.5 11q-18 -1 -40 -40z" />
<glyph unicode="&#xf2;" horiz-adv-x="530" d="M495 380v-233q0 -86 -55 -121.5t-175 -35.5t-175 35.5t-55 121.5v233q0 86 55 121.5t175 35.5t175 -35.5t55 -121.5zM324 148v231q0 18 -12.5 26.5t-46.5 8.5t-46.5 -8.5t-12.5 -26.5v-231q0 -35 59 -35t59 35zM183 586l-215 200l213 27l159 -209z" />
<glyph unicode="&#xf3;" horiz-adv-x="530" d="M495 380v-233q0 -86 -55 -121.5t-175 -35.5t-175 35.5t-55 121.5v233q0 86 55 121.5t175 35.5t175 -35.5t55 -121.5zM324 148v231q0 18 -12.5 26.5t-46.5 8.5t-46.5 -8.5t-12.5 -26.5v-231q0 -35 59 -35t59 35zM345 587h-165l138 252h215z" />
<glyph unicode="&#xf4;" horiz-adv-x="530" d="M495 380v-233q0 -86 -55 -121.5t-175 -35.5t-175 35.5t-55 121.5v233q0 86 55 121.5t175 35.5t175 -35.5t55 -121.5zM324 148v231q0 18 -12.5 26.5t-46.5 8.5t-46.5 -8.5t-12.5 -26.5v-231q0 -35 59 -35t59 35zM422 577l-157 58l-157 -58l-43 53l200 176l200 -176z" />
<glyph unicode="&#xf5;" horiz-adv-x="530" d="M495 380v-233q0 -86 -55 -121.5t-175 -35.5t-175 35.5t-55 121.5v233q0 86 55 121.5t175 35.5t175 -35.5t55 -121.5zM324 148v231q0 18 -12.5 26.5t-46.5 8.5t-46.5 -8.5t-12.5 -26.5v-231q0 -35 59 -35t59 35zM155 577l-96 44q25 91 105 115q45 9 63 0.5t48 -21.5 t61 -11q11 1 19.5 9.5t21.5 30.5l95 -34q-13 -48 -42 -82t-63 -43q-44 -9 -62 -0.5t-48.5 21.5t-61.5 11q-18 -1 -40 -40z" />
<glyph unicode="&#xf6;" horiz-adv-x="530" d="M495 380v-233q0 -86 -55 -121.5t-175 -35.5t-175 35.5t-55 121.5v233q0 86 55 121.5t175 35.5t175 -35.5t55 -121.5zM324 148v231q0 18 -12.5 26.5t-46.5 8.5t-46.5 -8.5t-12.5 -26.5v-231q0 -35 59 -35t59 35zM249 587h-170v193h170v-193zM449 587h-171v193h171v-193z " />
<glyph unicode="&#xf7;" horiz-adv-x="509" d="M484 215h-461v162h461v-162zM334 0h-171v193h171v-193zM334 395h-171v192h171v-192z" />
<glyph unicode="&#xf8;" horiz-adv-x="508" d="M125 -60h-101l50 91q-50 38 -50 126v213q0 92 54.5 129.5t175.5 37.5q57 0 96 -7l33 60h101l-52 -93q52 -39 52 -127v-213q0 -92 -54.5 -129.5t-175.5 -37.5q-53 0 -98 8zM313 158v123l-91 -164q11 -4 32 -4q59 0 59 45zM195 369v-120l89 162q-12 3 -30 3 q-34 0 -46.5 -11t-12.5 -34z" />
<glyph unicode="&#xf9;" d="M55 395h-50v132h222v-347q0 -18 0.5 -27t2.5 -20t8 -15.5t15 -4.5q27 0 80 15v267h-50v132h222v-395h50v-132h-222v43q-106 -53 -153 -53q-35 0 -59 11.5t-36.5 28t-19.5 45.5t-8.5 53t-1.5 62v205zM177 586l-215 200l213 27l159 -209z" />
<glyph unicode="&#xfa;" d="M55 395h-50v132h222v-347q0 -18 0.5 -27t2.5 -20t8 -15.5t15 -4.5q27 0 80 15v267h-50v132h222v-395h50v-132h-222v43q-106 -53 -153 -53q-35 0 -59 11.5t-36.5 28t-19.5 45.5t-8.5 53t-1.5 62v205zM339 587h-165l138 252h215z" />
<glyph unicode="&#xfb;" d="M55 395h-50v132h222v-347q0 -18 0.5 -27t2.5 -20t8 -15.5t15 -4.5q27 0 80 15v267h-50v132h222v-395h50v-132h-222v43q-106 -53 -153 -53q-35 0 -59 11.5t-36.5 28t-19.5 45.5t-8.5 53t-1.5 62v205zM416 577l-157 58l-157 -58l-43 53l200 176l200 -176z" />
<glyph unicode="&#xfc;" d="M55 395h-50v132h222v-347q0 -18 0.5 -27t2.5 -20t8 -15.5t15 -4.5q27 0 80 15v267h-50v132h222v-395h50v-132h-222v43q-106 -53 -153 -53q-35 0 -59 11.5t-36.5 28t-19.5 45.5t-8.5 53t-1.5 62v205zM443 587h-171v193h171v-193zM243 587h-170v193h170v-193z" />
<glyph unicode="&#xfd;" horiz-adv-x="535" d="M55 395h-50v132h222v-347q0 -18 0.5 -27t2.5 -20t8 -15.5t15 -4.5q27 0 80 15v267h-50v132h222v-621q0 -38 -14 -65t-32 -39.5t-46.5 -19.5t-43.5 -8t-38 -1q-66 0 -273 55l34 121q174 -43 199 -43q30 0 36 9t6 51v77q-106 -53 -153 -53q-35 0 -59 11.5t-36.5 28 t-19.5 45.5t-8.5 53t-1.5 62v205zM342 587h-165l138 252h215z" />
<glyph unicode="&#xfe;" horiz-adv-x="555" d="M311 -86v-132h-301v132h60v673h-60v132h301v-132h-69v-129q70 53 133 53q40 0 68 -11t43 -26.5t23 -43t9.5 -50.5t1.5 -59v-141q0 -36 -1.5 -59t-9.5 -50.5t-23 -43t-43 -26.5t-68 -11q-63 0 -133 53v-129h69zM348 180v141q0 18 -0.5 27t-2.5 20t-8 15.5t-15 4.5 q-37 0 -80 -15v-245q43 -15 80 -15q9 0 15 4.5t8 15.5t2.5 20t0.5 27z" />
<glyph unicode="&#xff;" horiz-adv-x="535" d="M55 395h-50v132h222v-347q0 -18 0.5 -27t2.5 -20t8 -15.5t15 -4.5q27 0 80 15v267h-50v132h222v-621q0 -38 -14 -65t-32 -39.5t-46.5 -19.5t-43.5 -8t-38 -1q-66 0 -273 55l34 121q174 -43 199 -43q30 0 36 9t6 51v77q-106 -53 -153 -53q-35 0 -59 11.5t-36.5 28 t-19.5 45.5t-8.5 53t-1.5 62v205zM446 587h-171v193h171v-193zM246 587h-170v193h170v-193z" />
<glyph unicode="&#x152;" horiz-adv-x="997" d="M980 514h-152v73h-173v-150h173v-132h-173v-173h173v73h152v-205h-507v2q-54 -12 -125 -12h-11q-160 0 -233.5 63t-73.5 218v178q0 155 73.5 218t233.5 63h11q71 0 125 -12v1h507v-205zM467 271v178q0 78 -21 108.5t-98 30.5h-11q-77 0 -98 -30.5t-21 -108.5v-178 q0 -78 21 -108.5t98 -30.5h11q77 0 98 30.5t21 108.5z" />
<glyph unicode="&#x153;" horiz-adv-x="785" d="M724 149l30 -122q-117 -37 -201 -37q-89 0 -147 27q-53 -27 -161 -27q-120 0 -175 35.5t-55 121.5v233q0 86 55 121.5t175 35.5q92 0 140 -18q46 18 150 18q120 0 164.5 -39.5t44.5 -108.5v-74q0 -51 -58 -81t-211 -33v-20q1 -27 23.5 -42t54.5 -15q81 0 171 25zM304 148 v31q-1 8 -1 26v132q0 24 1 36v6q0 18 -12.5 26.5t-46.5 8.5t-46.5 -8.5t-12.5 -26.5v-231q0 -35 59 -35t59 35zM582 331v44q0 39 -27 39q-26 0 -52.5 -7.5t-27.5 -18.5v-106q54 9 80.5 19t26.5 30z" />
<glyph unicode="&#x178;" horiz-adv-x="665" d="M660 719v-132h-63l-174 -321v-134h60v-132h-302v132h60v134l-175 321h-61v132h302v-132h-55l80 -182l80 182h-54v132h302zM515 770h-171v193h171v-193zM315 770h-170v193h170v-193z" />
<glyph unicode="&#x2c6;" horiz-adv-x="481" d="M398 580l-157 58l-157 -58l-43 53l200 176l200 -176z" />
<glyph unicode="&#x2dc;" horiz-adv-x="462" d="M117 580l-96 44q25 91 105 115q45 9 63 0.5t48 -21.5t61 -11q11 1 19.5 9.5t21.5 30.5l95 -34q-13 -48 -42 -82t-63 -43q-44 -9 -62 -0.5t-48.5 21.5t-61.5 11q-18 -1 -40 -40z" />
<glyph unicode="&#x2000;" horiz-adv-x="511" />
<glyph unicode="&#x2001;" horiz-adv-x="1022" />
<glyph unicode="&#x2002;" horiz-adv-x="511" />
<glyph unicode="&#x2003;" horiz-adv-x="1022" />
<glyph unicode="&#x2004;" horiz-adv-x="340" />
<glyph unicode="&#x2005;" horiz-adv-x="255" />
<glyph unicode="&#x2006;" horiz-adv-x="170" />
<glyph unicode="&#x2007;" horiz-adv-x="170" />
<glyph unicode="&#x2008;" horiz-adv-x="127" />
<glyph unicode="&#x2009;" horiz-adv-x="204" />
<glyph unicode="&#x200a;" horiz-adv-x="56" />
<glyph unicode="&#x2010;" horiz-adv-x="373" d="M342 225h-311v142h311v-142z" />
<glyph unicode="&#x2011;" horiz-adv-x="373" d="M342 225h-311v142h311v-142z" />
<glyph unicode="&#x2013;" d="M539 225h-508v142h508v-142z" />
<glyph unicode="&#x2014;" horiz-adv-x="823" d="M792 225h-761v142h761v-142z" />
<glyph unicode="&#x2018;" horiz-adv-x="296" d="M211 431h-199l119 288h146z" />
<glyph unicode="&#x2019;" horiz-adv-x="297" d="M165 433h-146l66 286h201z" />
<glyph unicode="&#x201a;" horiz-adv-x="316" d="M162 -125h-147l76 298h200z" />
<glyph unicode="&#x201c;" horiz-adv-x="527" d="M219 431h-199l118 288h148zM440 431h-199l119 288h146z" />
<glyph unicode="&#x201d;" horiz-adv-x="511" d="M310 719h199l-118 -288h-148zM88 719h199l-119 -288h-146z" />
<glyph unicode="&#x201e;" horiz-adv-x="559" d="M162 -125h-147l76 298h200zM405 -125h-147l76 298h200z" />
<glyph unicode="&#x2022;" horiz-adv-x="335" d="M304 109h-273v325h273v-325z" />
<glyph unicode="&#x2026;" horiz-adv-x="669" d="M198 0h-173v173h173v-173zM421 0h-173v173h173v-173zM644 0h-173v173h173v-173z" />
<glyph unicode="&#x202f;" horiz-adv-x="204" />
<glyph unicode="&#x2039;" horiz-adv-x="382" d="M247 16l-227 249l227 248l115 -100l-129 -148l129 -149z" />
<glyph unicode="&#x203a;" horiz-adv-x="382" d="M362 265l-227 -249l-115 100l129 149l-129 148l115 100z" />
<glyph unicode="&#x205f;" horiz-adv-x="255" />
<glyph unicode="&#x20ac;" horiz-adv-x="676" d="M636 475h-152v106q-21 4 -49 4h-18q-44 0 -70.5 -7.5t-39 -27t-16 -41t-3.5 -60.5v-15h152l-31 -95h-121v-33h152l-31 -95h-118q6 -40 33.5 -58t92.5 -18h18q70 0 176 41l35 -142q-111 -44 -211 -44h-18q-150 0 -225 50t-89 171h-97l24 95h70v33h-94l24 95h70v15 q0 155 75.5 218t241.5 63h18q125 0 201 -50v-205z" />
<glyph unicode="&#x2122;" horiz-adv-x="992" d="M958 427v-98h-165l-29 162l-59 -167h-129l-64 167l-25 -162h-164v98h50l48 194h-37v98h176l80 -234l80 234h175v-98h-36l48 -194h51zM361 597h-105v24h-8v-194h37v-98h-200v98h36v194h-9v-24h-105v122h354v-122z" />
</font>
</defs>
</svg>
